<?xml version="1.0" encoding="UTF-8" standalone="no"?>
<!-- Created with Inkscape (http://www.inkscape.org/) -->

<svg
   width="400"
   height="300"
   viewBox="0 0 105.83333 79.375"
   version="1.1"
   id="svg1216"
   xmlns="http://www.w3.org/2000/svg"
   xmlns:svg="http://www.w3.org/2000/svg">
  <defs
     id="defs1213" />
  <g
     id="layer1">
    <path
       style="display:inline;fill:#000000;stroke-width:0.264583"
       d="m 67.528635,79.179267 c 1.291228,-0.0735 1.729068,-0.210416 2.025272,-0.633302 0.295891,-0.422444 0.485539,-0.481917 0.873924,-0.274061 0.409223,0.219009 0.574619,0.12853 0.945113,-0.517019 0.387368,-0.67495 0.395602,-0.803008 0.05991,-0.931826 -0.214048,-0.08214 -0.323303,-0.255928 -0.24279,-0.386199 C 71.270574,76.306587 70.972238,76.2 70.527087,76.2 c -0.543047,0 -0.809366,0.13059 -0.809366,0.396875 0,0.220485 -0.235185,0.396875 -0.529167,0.396875 -0.291041,0 -0.529166,0.107416 -0.529166,0.238699 0,0.131286 -0.361868,0.36485 -0.804154,0.519031 -0.741622,0.258532 -0.827336,0.224538 -1.102307,-0.437137 -0.163986,-0.394608 -0.323017,-0.806765 -0.353401,-0.915906 -0.03038,-0.10914 -0.08219,-0.287734 -0.115123,-0.396874 -0.242742,-0.804437 0.09677,-2.118964 0.683366,-2.645834 0.364537,-0.327422 0.548238,-0.595312 0.408225,-0.595312 -0.423444,0 -0.0069,-1.066911 0.687769,-1.761572 0.627523,-0.627523 0.633619,-0.66634 0.160909,-1.024419 -0.411612,-0.311796 -0.423095,-0.373544 -0.07078,-0.380596 0.529545,-0.01058 1.08131,-1.144838 1.226682,-2.521651 0.06145,-0.581916 0.453107,-1.71301 0.870366,-2.513541 0.417258,-0.800532 0.938154,-1.901997 1.157547,-2.447701 0.219392,-0.545703 0.515797,-0.992187 0.658677,-0.992187 0.291703,0 2.14847,-3.574955 2.14847,-4.136591 0,-0.198729 0.12609,-0.361326 0.280199,-0.361326 0.154109,0 0.195244,-0.137459 0.09141,-0.305464 -0.114387,-0.185081 -0.07285,-0.233807 0.105407,-0.12364 0.32172,0.198835 1.198851,-1.246417 0.923542,-1.521727 -0.09121,-0.09121 -0.03033,-0.165835 0.135279,-0.165835 0.165613,0 0.401275,-0.38653 0.523692,-0.858957 0.153876,-0.593823 0.379825,-0.859245 0.73202,-0.859896 0.308065,-5.29e-4 0.719855,-0.374891 1.041757,-0.946975 0.292775,-0.520322 0.917009,-1.532353 1.387187,-2.248959 0.470178,-0.716608 0.857131,-1.570812 0.859896,-1.898234 0.0028,-0.327422 0.153855,-0.597136 0.335756,-0.599363 0.25327,-0.0031 0.249875,-0.05533 -0.0145,-0.22301 -0.280051,-0.177623 -0.263803,-0.439089 0.08607,-1.385012 0.23721,-0.641328 0.523214,-1.344646 0.635561,-1.562928 0.11235,-0.218281 0.364016,-1.021953 0.559263,-1.785937 0.327134,-1.280054 0.418547,-1.392174 1.164868,-1.428705 l 0.809876,-0.03964 -0.744246,-0.111829 c -0.736637,-0.110685 -0.742429,-0.126375 -0.566497,-1.534485 l 0.17775,-1.422654 -1.682462,-0.09469 -1.682462,-0.09468 1.770322,-0.05098 c 0.973678,-0.02804 1.840693,-0.164843 1.926704,-0.304009 0.08601,-0.139166 0.350692,-0.178461 0.588185,-0.08733 0.288642,0.110762 0.368377,0.06307 0.240496,-0.143846 -0.115436,-0.186778 -0.02442,-0.309547 0.229483,-0.309547 0.743554,0 0.751242,-0.748191 0.01421,-1.382165 l -0.704453,-0.605946 0.42418,-3.173132 c 0.233299,-1.745223 0.48328,-3.530319 0.555514,-3.966882 0.07224,-0.436563 0.307224,-2.043906 0.522198,-3.571875 0.214974,-1.527969 0.507807,-3.254375 0.65074,-3.836458 0.142933,-0.582084 0.321252,-1.534584 0.396264,-2.116667 0.07501,-0.582083 0.368101,-2.42402 0.651311,-4.093194 0.395007,-2.328077 0.440833,-3.081958 0.196766,-3.237094 -0.247095,-0.157061 -0.246566,-0.203139 0.0024,-0.206285 0.36449,-0.0046 0.654889,-1.062295 1.127085,-4.105094 0.180663,-1.164166 0.387147,-2.354791 0.458857,-2.645833 0.07171,-0.291042 0.19241,-1.213776 0.268232,-2.050521 L 88.831323,0 h 3.010908 c 1.656001,0 3.010548,0.0893 3.010107,0.198438 -5.3e-4,0.10914 -0.242306,1.442345 -0.537478,2.962678 -0.295174,1.520333 -0.587433,3.160662 -0.649467,3.645178 -0.06203,0.484515 -0.182544,0.993808 -0.267806,1.131761 -0.145973,0.236191 -0.354783,2.792731 -0.383537,4.695799 -0.0071,0.472943 -0.132057,0.859896 -0.277577,0.859896 -0.145521,0 -0.250484,-0.0893 -0.233252,-0.198437 0.01722,-0.109141 0.01722,-0.763985 0,-1.455209 l -0.03133,-1.256771 h -1.02965 c -1.174464,0 -1.098484,-0.154757 -1.883619,3.836459 -0.344733,1.752439 -0.388739,2.432581 -0.166642,2.575636 0.180567,0.116306 0.191907,0.196013 0.02823,0.198437 -0.150452,0.0022 -0.25835,0.331474 -0.23977,0.731656 0.0692,1.490662 0.06428,1.484105 0.768598,1.022617 0.358683,-0.235018 0.71587,-0.427305 0.79375,-0.427305 0.07788,0 0.1416,1.108338 0.1416,2.462972 0,1.674824 0.116673,2.622534 0.364609,2.961606 0.344033,0.47049 0.374198,0.454678 0.534496,-0.28016 0.192063,-0.880459 0.291578,-1.625768 0.545581,-4.086084 0.09765,-0.945886 0.221062,-2.076979 0.274243,-2.513542 0.05318,-0.436563 0.112446,-1.031875 0.131697,-1.322917 0.03035,-0.458826 0.07036,-0.441241 0.301045,0.132292 0.262628,0.652953 0.271309,0.654654 0.675238,0.132292 0.395129,-0.510985 0.404855,-0.504167 0.283038,0.198437 -0.08896,0.5131 -0.01471,0.727604 0.251865,0.727604 0.238218,0 0.325017,0.171233 0.234707,0.463021 -0.424151,1.370414 -1.04262,4.569461 -1.061395,5.490104 -0.01916,0.939158 0.0529,1.066864 0.639876,1.134085 0.84028,0.09623 1.107305,-0.338101 1.844435,-3.000079 0.320251,-1.156516 0.649131,-2.340881 0.730848,-2.631922 0.289213,-1.030092 0.376375,-3.530143 0.139827,-4.010662 -0.146114,-0.296807 -0.134583,-1.056036 0.0295,-1.942463 0.167386,-0.904282 0.306813,-1.229829 0.368279,-0.859896 0.0544,0.327422 0.239461,0.597136 0.411241,0.599364 0.236289,0.0031 0.23521,0.05308 -0.0044,0.205421 -0.191463,0.121714 -0.228877,0.343572 -0.09459,0.56086 0.316481,0.512077 0.610653,-0.148508 1.314254,-2.951257 C 99.200726,8.38879 99.301302,7.536975 99.125495,7.222825 98.940666,6.892622 98.988461,6.683404 99.300873,6.454962 99.595777,6.239324 99.716216,5.788057 99.685363,5.014345 99.621143,3.403839 99.276502,3.225735 98.413571,4.357097 97.919129,5.005345 97.615673,5.215926 97.483696,5.002382 97.375944,4.828037 97.106138,4.755095 96.884126,4.840289 96.565904,4.962403 96.490254,4.802819 96.526695,4.08628 96.552125,3.586381 96.638397,3.176839 96.71842,3.176186 96.79846,3.175534 97.011483,2.460625 97.191826,1.5875 L 97.519719,0 h 2.623721 2.62373 l -0.34586,0.992188 c -0.19022,0.545703 -0.32983,1.319609 -0.31026,1.719791 0.0196,0.400182 -0.0576,0.727604 -0.17157,0.727604 -0.11395,0 -0.20717,0.2816 -0.20717,0.625777 0,0.344178 -0.21559,0.909724 -0.47909,1.256771 -0.49026,0.645718 -1.254199,2.82044 -1.14257,3.252581 0.0341,0.132185 -0.037,0.310779 -0.158172,0.396875 -0.320289,0.227629 -2.223175,6.737052 -2.34787,8.031636 -0.240713,2.499078 0.650848,2.726775 2.048258,0.523109 1.044034,-1.646403 1.306214,-2.341617 2.012674,-5.336931 0.29051,-1.231754 0.61184,-2.004962 0.86052,-2.070664 0.34457,-0.09104 0.34596,-0.06946 0.0105,0.163717 -0.33158,0.230493 -0.31322,0.355273 0.12947,0.880039 0.28371,0.336306 0.55184,0.666055 0.59586,0.732775 0.1533,0.232376 1.69774,-1.716248 2.19317,-2.767143 0.49768,-1.05566 0.49895,-1.029764 0.50475,10.252604 0.005,10.070563 -0.0394,11.310938 -0.40668,11.310938 -0.22687,0 -0.33401,0.126984 -0.23809,0.282186 0.0959,0.155204 -0.0347,0.435057 -0.29017,0.621895 -0.30081,0.219959 -0.41212,0.540308 -0.31576,0.908801 0.0819,0.313005 0.0409,0.502375 -0.0911,0.420825 -0.13196,-0.08155 -0.23992,-0.02218 -0.23992,0.131927 0,0.154109 -0.19133,0.280199 -0.42518,0.280199 -0.27901,0 -0.36997,-0.14388 -0.26459,-0.418515 0.0883,-0.230182 0.1606,-0.578866 0.1606,-0.774851 0,-0.195985 0.18358,-0.539914 0.40796,-0.764289 0.36754,-0.367548 0.3414,-0.424656 -0.264,-0.576601 -0.74859,-0.187883 -1.57292,0.03195 -1.36731,0.364636 0.0732,0.118451 -0.15714,0.72635 -0.51188,1.350885 -0.35474,0.624533 -0.58495,1.232665 -0.51156,1.351402 0.0734,0.118737 -0.0106,0.263893 -0.18661,0.322564 -0.18505,0.06168 -0.30764,0.544193 -0.29064,1.143924 0.0162,0.570484 -0.10397,1.276786 -0.26699,1.569564 -0.16301,0.292777 -0.26856,0.629234 -0.23454,0.747683 0.0649,0.225893 -0.3883,2.146191 -0.667244,2.827348 -0.22756,0.555696 -0.22588,0.5496 -0.457169,1.656569 -0.114355,0.54731 -0.313483,1.060353 -0.442507,1.140093 -0.473475,0.292624 -0.214913,0.643636 0.493014,0.669295 l 0.727606,0.02638 -0.66146,0.195487 c -0.363803,0.107516 -0.631693,0.333772 -0.595313,0.502793 0.03638,0.169019 -0.03803,0.307306 -0.165365,0.307306 -0.12733,0 -0.299942,0.342154 -0.383579,0.760341 -0.135745,0.678725 -0.859661,1.292685 -1.164619,0.987727 -0.06406,-0.06406 -0.116473,-0.662173 -0.116473,-1.329145 0,-0.987595 -0.08766,-1.212673 -0.472278,-1.212673 -0.352446,0 -0.509,0.273751 -0.616987,1.07887 -0.07959,0.593376 -0.333653,1.287648 -0.564584,1.542825 -0.230931,0.255175 -0.340969,0.542862 -0.244531,0.6393 0.09644,0.09644 -0.01386,0.384434 -0.24515,0.639987 -0.44282,0.48931 -0.458205,0.536745 -0.458205,1.412732 0,1.059919 -0.612032,0.337024 -0.665432,-0.785963 -0.03717,-0.781714 0.06458,-1.178795 0.327953,-1.279864 0.313076,-0.120139 0.318289,-0.186817 0.02894,-0.370239 -0.566875,-0.359347 -1.014373,-0.266539 -1.014373,0.210368 0,0.243202 -0.177181,0.637968 -0.393732,0.877257 -0.216553,0.239287 -0.467328,0.803042 -0.557278,1.252789 -0.131183,0.655921 -0.06636,0.842735 0.327588,0.944134 0.332785,0.08566 0.253865,0.136311 -0.244776,0.157107 -0.4533,0.01892 -0.789221,0.208505 -0.874729,0.493713 -0.07635,0.254661 -0.436668,1.028567 -0.800708,1.719791 -0.364041,0.691224 -0.605833,1.256771 -0.537316,1.256771 0.06852,0 -0.09346,0.446484 -0.359945,0.992188 -0.41371,0.847185 -0.431234,1.05152 -0.119912,1.398182 0.312751,0.348253 0.294535,0.449757 -0.128068,0.713679 -0.450499,0.28134 -1.523532,2.83939 -1.391317,3.316825 0.03094,0.111739 -0.123042,0.632296 -0.342189,1.15679 -0.506132,1.211342 -0.500044,1.35282 0.06457,1.500367 0.422368,0.110377 0.423458,0.123696 0.01241,0.151694 -0.247835,0.01688 -0.66272,0.477176 -0.921967,1.022879 -0.373438,0.786072 -0.492059,0.88518 -0.57101,0.477078 -0.07424,-0.383773 -0.199697,-0.248851 -0.49203,0.529167 -0.215805,0.574352 -0.414917,1.282401 -0.442471,1.573443 -0.02755,0.291041 -0.25446,0.910206 -0.504237,1.375923 -0.639033,1.191503 -0.572755,1.613667 0.273468,1.741861 0.685546,0.103851 0.678513,0.112514 -0.121672,0.149865 -0.749625,0.03499 -0.886481,0.163822 -1.16636,1.097976 -0.174395,0.582083 -0.471233,1.058333 -0.659641,1.058333 -0.424465,0 -0.889881,1.600687 -0.761156,2.617811 0.06799,0.5372 -0.07946,0.90772 -0.510288,1.282322 -0.415772,0.361508 -0.662448,0.953087 -0.786099,1.88522 L 81.076578,79.375 73.478922,79.32402 C 69.300209,79.29598 66.62258,79.23084 67.528635,79.179267 Z M 98.078662,42.821625 c -0.04497,-0.386284 0.04432,-0.780262 0.198437,-0.875512 0.355643,-0.219797 0.368406,-1.20028 0.01562,-1.20028 -0.375584,0 -0.325157,-0.539067 0.132516,-1.4166 0.216615,-0.415327 0.330322,-0.857917 0.252688,-0.983533 -0.07763,-0.125616 0.0892,-0.372248 0.370734,-0.548074 0.431065,-0.269203 0.455195,-0.376375 0.152813,-0.678757 -0.605803,-0.6058 -1.294434,0.08776 -1.663565,1.675488 -0.182483,0.784905 -0.267208,1.531596 -0.188275,1.65931 0.07893,0.127715 -0.02698,0.373706 -0.235363,0.546648 -0.222102,0.184327 -0.338531,0.633235 -0.281374,1.084874 0.05363,0.423738 -0.0127,0.838538 -0.147375,0.921779 -0.543602,0.335965 -0.193135,0.67782 0.615013,0.5999 0.758251,-0.07311 0.850231,-0.165931 0.778127,-0.785243 z M 89.778568,28.068326 c 0.147873,-0.424191 0.189421,-0.850697 0.09233,-0.947791 -0.0971,-0.09709 -0.135949,-0.881123 -0.08634,-1.742285 0.0496,-0.861163 -0.01798,-1.56575 -0.150196,-1.56575 -0.258686,0 -1.015672,3.311967 -0.9071,3.96875 0.212984,1.288426 0.659715,1.410412 1.051311,0.287076 z M 92.686151,8.89716 c 0.112332,-1.766807 -0.02106,-2.023583 -0.926372,-1.783229 -0.615895,0.163516 -0.79796,0.416575 -1.06358,1.478314 -0.176268,0.704564 -0.254503,1.387787 -0.173858,1.518272 0.08064,0.130485 0.582049,0.200952 1.114232,0.156593 0.957363,-0.0798 0.968476,-0.0943 1.049578,-1.36995 z m -0.239196,-2.184986 0.834961,-0.166992 -0.0935,-1.678684 c -0.05143,-0.923277 -0.0037,-1.711333 0.106129,-1.751237 0.374505,-0.136105 0.441775,-2.287341 0.07592,-2.427733 -0.203917,-0.07825 -0.288335,0.0096 -0.208671,0.217216 0.07469,0.194642 -0.09002,0.407153 -0.372899,0.481128 -0.530762,0.138797 -0.995286,1.586841 -0.559795,1.745031 0.133538,0.04851 0.242795,0.193598 0.242795,0.322425 0,0.128827 -0.160956,0.172466 -0.357685,0.09697 -0.256389,-0.09839 -0.443711,0.291109 -0.661458,1.375348 -0.443556,2.208626 -0.510932,2.087552 0.994209,1.786524 z m 6.980764,-4.066341 c -0.07611,-0.291041 -0.243557,-0.529166 -0.372104,-0.529166 -0.273368,0 -0.314019,0.625263 -0.05734,0.881944 0.346869,0.34687 0.565447,0.167313 0.42944,-0.352778 z m 3.892091,76.636282 c 0,-0.05109 0.27378,-0.616632 0.60841,-1.25677 0.33463,-0.640139 0.82973,-1.908027 1.10023,-2.817532 0.27049,-0.909506 0.59202,-1.653646 0.7145,-1.653646 0.12248,0 0.22269,1.309687 0.22269,2.910416 V 79.375 h -1.32292 c -0.7276,0 -1.32291,-0.0418 -1.32291,-0.09288 z M 53.596044,77.192188 c -0.0098,-0.254662 -0.166735,-0.464844 -0.348636,-0.467072 -0.220486,-0.0027 -0.198438,-0.08955 0.06614,-0.260533 0.343739,-0.222141 0.338162,-0.257021 -0.04164,-0.260532 -0.361484,-0.0033 -0.423942,-0.24139 -0.355534,-1.35508 0.08882,-1.446032 0.230756,-1.700757 1.058638,-1.899888 0.481817,-0.115893 0.476356,-0.130029 -0.06103,-0.157975 -0.548122,-0.0285 -0.586711,-0.145243 -0.541367,-1.637765 0.03816,-1.255985 0.178787,-1.747303 0.643705,-2.248959 0.327184,-0.353036 0.481502,-0.641884 0.342929,-0.641884 -0.475639,0 -0.251915,-0.578715 0.277217,-0.717087 0.480489,-0.125651 0.574241,-0.269026 0.506569,-0.774687 -0.01244,-0.09287 0.119599,-0.256738 0.293396,-0.364151 0.173797,-0.10741 0.375915,-0.775565 0.449152,-1.484789 0.07558,-0.731906 0.32054,-1.445633 0.566502,-1.650584 0.320079,-0.266716 0.346469,-0.39364 0.100962,-0.485619 -0.182809,-0.06849 -0.266089,-0.231789 -0.185068,-0.362882 0.08102,-0.131095 0.192976,-0.62694 0.24879,-1.101881 0.08577,-0.729858 0.423061,-2.595885 1.040831,-5.75832 0.345361,-1.767935 0.397423,-3.156765 0.124654,-3.325347 -0.202703,-0.125277 -0.1822,-0.24987 0.06711,-0.407842 0.249545,-0.15812 0.13045,-0.228692 -0.390676,-0.23151 -0.91903,-0.005 -0.829564,-0.624361 0.108919,-0.75406 0.890802,-0.123108 1.264401,-0.5324 0.770813,-0.844457 -0.263469,-0.166572 -0.284723,-0.25086 -0.06393,-0.253567 0.181901,-0.0022 0.330729,-0.242175 0.330729,-0.533217 0,-0.291042 -0.126089,-0.529167 -0.280199,-0.529167 -0.154109,0 -0.206613,0.119063 -0.116676,0.264584 0.08994,0.14552 -0.01217,0.264583 -0.22692,0.264583 -0.214743,0 -0.450024,0.148828 -0.522848,0.330729 -0.07282,0.181901 -0.07046,-0.547621 0.0052,-1.621163 0.103743,-1.471088 0.04946,-2.007777 -0.220372,-2.178762 -0.278164,-0.176265 -0.254743,-0.227771 0.105,-0.23092 0.316421,-0.0028 0.463021,-0.213482 0.463021,-0.665509 0,-0.500475 -0.144886,-0.668928 -0.595313,-0.69215 -0.537982,-0.02774 -0.544353,-0.04295 -0.06614,-0.157975 0.927166,-0.223012 1.039847,-0.559734 0.373083,-1.114885 -0.563171,-0.4689 -0.579969,-0.531956 -0.143787,-0.539729 0.362066,-0.0065 0.456946,-0.150035 0.355499,-0.537969 -0.07611,-0.291042 -0.04434,-0.529167 0.07059,-0.529167 0.280448,0 0.531924,-1.382882 0.31247,-1.718284 -0.09576,-0.146351 -0.186475,-1.15906 -0.201596,-2.250466 -0.02162,-1.55983 0.08131,-2.140043 0.481039,-2.711979 l 0.508529,-0.727604 -0.613331,-0.03135 c -0.33733,-0.01725 -0.785519,-0.0067 -0.995973,0.02352 -0.32004,0.04589 -0.325562,-0.01392 -0.03375,-0.365524 0.191895,-0.23122 0.229836,-0.420397 0.08432,-0.420397 -0.145521,0 -0.412803,0.178594 -0.59396,0.396875 -0.181158,0.218282 -0.557112,0.396875 -0.835457,0.396875 -0.418356,0 -0.458602,-0.08871 -0.232185,-0.511773 C 56.128222,32.527589 56.022751,31.75 55.467777,31.75 c -0.552204,0 -2.541569,3.598759 -3.33688,6.03641 -0.252333,0.773412 -0.515879,1.349116 -0.585653,1.27934 -0.06978,-0.06977 0.01132,-1.038561 0.180245,-2.152862 0.168908,-1.114298 0.244816,-2.188323 0.168683,-2.386724 -0.07613,-0.1984 -0.03703,-0.398185 0.08688,-0.443965 0.227016,-0.08387 0.353979,-1.079059 0.302168,-2.368495 -0.0273,-0.679545 -0.0691,-0.696222 -1.601772,-0.639133 -0.865552,0.03224 -1.758521,0.211982 -1.984375,0.399421 -0.268063,0.222474 -0.410639,0.239844 -0.410639,0.05003 0,-0.196228 -0.878104,-0.271282 -2.700652,-0.230835 l -2.700653,0.05994 -0.338931,1.171702 c -0.186412,0.644435 -0.264507,1.239747 -0.17354,1.322916 0.09096,0.08317 0.21854,0.0024 0.283506,-0.179514 0.06496,-0.181901 0.234283,-0.330729 0.376267,-0.330729 0.141983,0 0.165174,0.148828 0.05154,0.330729 -0.113639,0.181901 -0.230291,0.449791 -0.259228,0.595312 -0.02894,0.145521 -0.483354,1.455209 -1.009814,2.910417 -0.878031,2.426994 -1.020689,2.391667 -0.534205,-0.132292 0.07012,-0.363802 0.18764,-1.493017 0.261152,-2.509369 0.07351,-1.016349 0.202197,-2.063861 0.285967,-2.327799 0.08377,-0.26394 0.007,-0.655005 -0.170646,-0.869034 -0.257622,-0.310412 -0.23945,-0.481809 0.08982,-0.847199 0.227026,-0.251931 0.492649,-0.815245 0.590273,-1.251807 0.32004,-1.431182 0.425921,-1.719792 0.630933,-1.719792 0.111308,0 0.147804,0.658056 0.08111,1.462347 l -0.121272,1.462347 1.422419,-0.03205 c 0.782331,-0.01762 2.102752,0.05307 2.934272,0.157128 0.831519,0.10405 2.409097,0.105105 3.505729,0.0024 l 1.993882,-0.186883 V 29.33056 c 0,-0.70259 -0.09736,-0.991198 -0.293497,-0.869982 -0.42612,0.263356 0.06199,-2.587821 0.750432,-4.383495 0.227584,-0.593614 0.311621,-1.057091 0.455742,-2.513541 0.072,-0.727605 0.207645,-1.590808 0.301435,-1.91823 0.09527,-0.332512 0.05442,-0.595312 -0.0925,-0.595312 -0.347774,0 -0.88441,0.661431 -0.961216,1.184746 -0.03369,0.229517 -0.172847,0.408618 -0.309247,0.398004 -0.299366,-0.0233 -0.200086,-0.74791 0.29456,-2.149884 0.431215,-1.222192 0.265605,-1.371151 -1.374635,-1.236434 -0.932341,0.07658 -1.048962,0.17474 -1.356855,1.14211 -0.185263,0.582083 -0.412527,1.236927 -0.505026,1.455208 -0.0925,0.218281 -0.14928,0.486172 -0.126177,0.595313 0.0231,0.10914 -0.06459,0.198437 -0.194884,0.198437 -0.273016,0 -1.899915,3.235437 -2.565408,5.101869 -0.248155,0.695976 -0.552236,1.327858 -0.675733,1.404182 -0.123494,0.07633 -0.113435,-0.153445 0.02236,-0.510601 0.135789,-0.357155 0.177995,-0.718269 0.09379,-0.802476 -0.08421,-0.08421 -0.03292,-0.304808 0.113964,-0.490226 0.509429,-0.64306 2.189586,-6.501337 2.189586,-7.634534 0,-0.436706 -0.194466,-0.50723 -1.389063,-0.503746 -1.604486,0.0047 -2.018323,0.200154 -2.177888,1.028718 -0.200306,1.040103 -0.430718,1.613064 -0.648685,1.613064 -0.116175,0 -0.118885,-0.504985 -0.006,-1.122189 0.236312,-1.292291 0.152357,-1.523644 -0.552908,-1.523644 -0.336508,0 -0.656265,0.337523 -0.939959,0.992187 -0.236477,0.545703 -0.483923,0.84996 -0.549876,0.676127 -0.06596,-0.173834 0.01916,-0.575929 0.18914,-0.893544 0.244068,-0.456044 0.233768,-0.625195 -0.04899,-0.804367 -0.43702,-0.276926 -3.680137,-0.302638 -4.099118,-0.0325 -0.16582,0.106913 -0.449503,0.690213 -0.63041,1.296224 -0.180906,0.60601 -0.727561,1.55851 -1.214789,2.116666 l -0.88587,1.01483 -0.0051,-1.108865 c -0.0028,-0.609875 0.11593,-1.183649 0.263824,-1.275053 0.147897,-0.0914 0.205486,-0.268797 0.127979,-0.394207 -0.07751,-0.125411 -0.01992,-0.302804 0.127976,-0.394208 0.376595,-0.232748 0.337677,-1.260315 -0.04293,-1.133447 -0.171503,0.05717 -0.396439,0.275449 -0.499854,0.485069 -0.344022,0.697323 -1.834153,5.487746 -1.834153,5.896371 0,0.221222 -0.239852,0.478349 -0.533008,0.571392 -0.310682,0.09861 -0.458531,0.299178 -0.354457,0.480851 0.09821,0.171424 0.08112,0.223416 -0.03796,0.115538 -0.119081,-0.107878 -0.372036,-0.06707 -0.56212,0.09069 -0.489244,0.406035 -0.286915,-0.815412 0.442719,-2.672671 0.558316,-1.42117 1.30941,-4.008641 1.30941,-4.510826 0,-0.37002 -0.723972,-0.306708 -0.903994,0.07906 -0.123471,0.264583 -0.185209,0.264583 -0.308679,0 C 32.680188,17.565863 31.913457,17.4625 30.333,17.4625 h -2.298951 l -0.655564,2.033416 c -0.360558,1.118378 -0.789138,2.075717 -0.952401,2.127419 -0.293243,0.09286 -0.205132,-0.520582 0.442388,-3.080013 0.125727,-0.496954 0.18188,-0.979137 0.124785,-1.071518 -0.05709,-0.09238 -1.54026,-0.199467 -3.295924,-0.237968 -2.63631,-0.05781 -3.192117,-0.0036 -3.192117,0.311518 0,0.209835 -0.197786,0.544926 -0.439525,0.744645 -0.394585,0.325998 -0.425389,0.288731 -0.301274,-0.364478 l 0.138252,-0.727604 H 17.166275 14.429881 L 14.2545,17.925521 c -0.09646,0.400182 -0.3888,1.203854 -0.649645,1.785937 -1.907531,4.256707 -1.974274,4.101042 1.75838,4.101042 1.715534,0 3.298531,-0.127603 3.602742,-0.290412 0.425166,-0.227542 0.634151,-0.198902 0.965345,0.132291 0.387216,0.387217 0.38622,0.422704 -0.01186,0.422704 -0.286534,0 -0.628022,0.517071 -1.0025,1.517953 -0.312367,0.834874 -0.654614,1.579016 -0.760549,1.653647 -0.105936,0.07463 -0.466564,0.790536 -0.801396,1.5909 -0.672972,1.608633 -1.273222,2.421787 -0.976542,1.322917 0.09822,-0.363802 0.249775,-1.078177 0.336787,-1.5875 0.08701,-0.509323 0.544411,-1.472076 1.016444,-2.139451 1.691193,-2.391066 1.721472,-2.358466 -2.190519,-2.358466 h -3.412186 l -0.637667,1.389063 c -0.350717,0.763984 -0.787788,1.484275 -0.971269,1.600647 -0.183481,0.116372 -0.333602,0.421037 -0.333602,0.677034 0,0.255998 -0.174807,0.696566 -0.38846,0.979041 -0.693643,0.917077 -0.479919,-0.207185 0.388252,-2.04234 0.800104,-1.691276 0.999725,-2.497262 0.549605,-2.219073 -0.134394,0.08306 -0.441619,0.744931 -0.682722,1.470824 -0.241103,0.725891 -0.578261,1.319804 -0.749239,1.319804 -0.170979,0 -0.44326,0.386953 -0.60507,0.859896 -1.484908,4.34013 -2.995337,8.471792 -3.150597,8.61821 -0.104503,0.09855 -0.111113,-0.07783 -0.01469,-0.391957 0.534855,-1.742416 1.272838,-4.53435 1.333719,-5.045718 0.03862,-0.324376 0.204892,-0.752049 0.369496,-0.950386 0.164604,-0.198334 0.220937,-0.438949 0.125186,-0.534701 -0.09575,-0.09575 -0.04907,-0.174094 0.103742,-0.174094 0.15281,0 0.336058,-0.304564 0.407217,-0.676812 0.09522,-0.498139 0.03352,-0.640027 -0.233739,-0.537472 -0.199715,0.07664 -0.36312,0.02402 -0.36312,-0.116935 0,-0.140954 0.127568,-0.256281 0.283483,-0.256281 0.647001,0 2.097768,-2.307226 2.097768,-3.336185 0,-0.643505 -0.453058,-0.396735 -0.797265,0.434253 C 8.459237,26.111498 8.2098,26.026693 8.581448,25.049181 8.898517,24.215226 8.424046,23.76382 7.934341,24.433532 7.530629,24.985641 7.242607,25.00124 7.4504,24.459742 7.583994,24.111602 7.37003,24.06096 6.053033,24.129013 l -1.555115,0.08036 -0.246721,1.389062 C 4.115503,26.362422 3.919682,26.9875 3.816042,26.9875 c -0.10364,0 -0.08475,-0.446484 0.04197,-0.992188 0.356446,-1.534937 0.297462,-1.79321 -0.484572,-2.121769 -0.48688,-0.204556 -0.531357,-0.259548 -0.134433,-0.166218 0.444887,0.104608 0.65593,-0.01363 0.844224,-0.472987 0.382594,-0.933363 1.13146,-5.510647 0.970285,-5.93066 -0.25981,-0.677055 -1.193629,-0.432378 -1.363493,0.357259 -0.08609,0.400183 -0.320622,1.144323 -0.52119,1.653646 -0.919288,2.334434 -1.316996,4.056862 -0.963905,4.174559 0.242643,0.08088 0.182412,0.229642 -0.201991,0.498888 -0.301249,0.211003 -0.553096,0.525719 -0.55966,0.699369 -0.0066,0.173649 -0.185833,0.672913 -0.398376,1.109476 l -0.386443,0.79375 0.133793,-0.727604 C 0.865841,25.462839 1.003119,24.819286 1.097323,24.432904 1.249587,23.80838 1.204387,23.747184 0.690164,23.881657 L 0.111726,24.032921 0.213132,18.69719 C 0.305602,13.831802 0.413769,12.339213 0.79495,10.668911 0.88581,10.270762 0.78342,10.055677 0.463187,9.971999 0.022237,9.856777 0.022229,9.849494 0.463023,9.820275 1.065796,9.780325 1.206628,8.190052 0.626181,7.977916 0.475205,7.922736 0.487584,7.750134 0.657171,7.545794 0.864123,7.296432 0.831736,7.164175 0.535922,7.050661 0.049311,6.863931 -0.002326,6.35 0.465522,6.35 0.919207,6.35 1.382307,5.552453 1.598847,4.398197 1.775812,3.454892 1.764481,3.439083 0.889342,3.408279 L 0,3.376979 0.79375,3.208291 C 1.551449,3.047266 1.591104,2.970575 1.66685,1.519804 L 1.7462,4e-6 h 2.92552 c 2.435185,0 2.90106,0.06374 2.779576,0.380326 C 7.20483,1.02261 6.687826,3.03656 6.741464,3.145423 6.831964,3.329092 6.116504,3.672852 5.909722,3.545054 5.799194,3.476744 5.822712,3.121146 5.961982,2.754836 6.24148,2.019699 6.193271,0.184361 5.902152,0.477148 5.650828,0.729912 5.164437,2.969145 5.309777,3.204309 5.374387,3.308854 5.304777,3.435208 5.15514,3.485096 5.005478,3.534986 4.821467,3.932105 4.746227,4.36759 4.670987,4.803074 4.546363,5.368325 4.469283,5.623703 4.270244,6.28315 5.097388,6.535914 5.527871,5.947193 5.850235,5.506335 5.879917,5.512318 6.019556,6.046303 6.204898,6.755051 7.395382,6.82647 7.774267,6.15157 c 0.247559,-0.440972 0.268432,-0.440972 0.438329,0 0.09992,0.259342 0.452402,0.463021 0.801294,0.463021 0.522428,0 0.689737,-0.224051 1.037269,-1.389062 0.227902,-0.763984 0.488111,-2.252266 0.57824,-3.307292 L 10.793272,8e-6 h 1.841567 c 1.649326,0 1.82188,0.04833 1.652981,0.463021 -0.103722,0.254661 -0.373913,0.998802 -0.600425,1.653646 -0.226512,0.654843 -0.556549,1.42875 -0.733416,1.719791 -0.387041,0.63689 -0.486539,2.778125 -0.129093,2.778125 0.139354,0 0.367952,-0.214099 0.507997,-0.475775 0.369748,-0.69088 1.351491,-4.653681 1.351491,-5.455287 V 8e-6 H 19.05 c 3.405662,0 4.365625,0.07563 4.365625,0.343958 0,0.189177 -0.102612,0.457068 -0.228026,0.595313 -0.125414,0.138245 -0.356249,0.727604 -0.512966,1.309687 -0.156717,0.582084 -0.530355,1.761425 -0.830307,2.620758 -0.299953,0.859333 -0.545368,1.611382 -0.545368,1.67122 0,0.05984 0.327016,0.07112 0.726703,0.02508 0.758797,-0.08742 0.776855,-0.12446 2.652653,-5.441531 L 25.075016,1.3e-5 h 4.575793 4.575795 l -0.227341,0.792685 c -0.256725,0.895157 -0.991354,2.001713 -1.835219,2.764356 -0.383005,0.346141 -0.529339,0.389402 -0.44749,0.132291 0.06689,-0.210122 0.190863,-0.917822 0.275492,-1.572665 l 0.153872,-1.190625 -0.515422,0.608242 c -0.298098,0.351778 -0.447461,0.798021 -0.35424,1.058333 0.08865,0.24755 0.06944,0.367396 -0.04269,0.266325 -0.372957,-0.336174 -2.261688,2.586698 -2.261688,3.500034 0,0.150203 1.307698,0.255607 3.17119,0.255607 h 3.171191 l 0.312872,-1.242524 c 0.230862,-0.916833 0.357889,-1.114186 0.484619,-0.752908 0.160541,0.457665 0.209436,0.449164 0.749271,-0.130283 0.31764,-0.340944 0.577524,-0.831107 0.577524,-1.08925 0,-0.258143 0.246679,-1.128661 0.548177,-1.934484 L 38.534906,0 h 2.920852 2.920852 L 44.207367,0.992188 44.038124,1.984375 44.626803,0.992188 45.21548,0 h 2.591686 2.591687 l -0.441886,1.124479 c -0.243036,0.618464 -0.59816,1.369793 -0.789162,1.66962 -0.408173,0.640728 -1.138936,2.956331 -1.143056,3.622047 -0.0024,0.372212 0.228645,0.463021 1.177565,0.463021 1.140201,0 1.189522,-0.03381 1.447377,-0.992188 C 50.796514,5.341276 50.969488,4.35901 51.03408,3.704167 51.09867,3.049323 51.237445,1.947995 51.34246,1.256771 L 51.533397,0 h 1.779574 1.779575 l -0.63423,1.918229 c -0.348827,1.055026 -0.791988,2.394479 -0.984806,2.976563 -0.192815,0.582083 -0.439486,1.266692 -0.548156,1.521354 -0.174765,0.40955 -0.02551,0.463021 1.292482,0.463021 1.722363,0 1.819026,-0.127344 2.108814,-2.778125 0.09545,-0.873125 0.24163,-2.153047 0.324845,-2.844271 L 56.802794,0 h 15.722921 15.722921 l -0.174463,0.727604 c -0.09595,0.400182 -0.336294,1.049009 -0.534086,1.441836 -0.335857,0.667029 -0.618093,1.59247 -1.597739,5.238893 -0.688351,2.562166 -0.702503,2.692085 -0.319704,2.934509 0.293783,0.18605 0.276661,0.233196 -0.08587,0.23644 -0.299439,0.0027 -0.540469,0.34013 -0.711583,0.996239 -0.651733,2.498979 -1.05804,4.234909 -1.17315,5.012221 -0.06883,0.464769 -0.251036,1.238675 -0.404913,1.719792 -0.153876,0.481117 -0.930598,4.148976 -1.726046,8.150799 -0.795449,4.001823 -1.582328,7.63323 -1.748624,8.069792 -0.166293,0.436563 -0.293981,0.823516 -0.283752,0.859896 0.01024,0.03638 0.0186,0.423333 0.0186,0.859896 0,0.70196 -0.08996,0.79375 -0.777899,0.79375 -0.651298,0 -0.766376,-0.09689 -0.707096,-0.595313 0.03894,-0.327422 0.166677,-0.811675 0.283863,-1.076118 0.120235,-0.271331 0.09927,-0.594599 -0.04813,-0.741995 -0.319966,-0.319966 -1.698385,-0.563155 -3.116366,-0.54981 l -1.058334,0.01 0.878449,-0.213532 c 0.483148,-0.117443 1.09479,-0.156959 1.359204,-0.08781 0.264412,0.06914 0.557935,7.94e-4 0.65227,-0.151804 0.116432,-0.188394 0.392734,-0.193419 0.860306,-0.01564 0.378833,0.144031 0.751649,0.199014 0.828479,0.122182 0.07683,-0.07683 0.01114,-0.139695 -0.146003,-0.139695 -0.294187,0 -0.05555,-0.991206 0.567799,-2.3584 0.221784,-0.48644 0.212357,-0.665068 -0.03957,-0.749652 -0.181901,-0.06107 -0.330729,-0.292455 -0.330729,-0.514178 0,-0.24964 -0.151112,-0.345147 -0.396875,-0.250839 -0.226909,0.08707 -0.396875,0.0055 -0.396875,-0.190452 0,-0.224335 0.254217,-0.305438 0.73583,-0.234752 0.667644,0.09799 0.741982,0.02728 0.802201,-0.763034 0.0365,-0.479068 0.211397,-0.963184 0.388649,-1.075812 0.225406,-0.143224 0.187796,-0.205996 -0.125127,-0.20883 -0.246073,-0.0021 -0.53236,-0.14151 -0.636193,-0.309515 -0.116967,-0.189256 -0.07258,-0.233643 0.116676,-0.116676 0.168005,0.103833 0.305464,0.0627 0.305464,-0.09141 0,-0.437326 -0.471622,-0.329253 -0.79783,0.182822 -0.317701,0.498724 -0.278985,-0.03428 0.272476,-3.751242 0.199872,-1.347173 0.191929,-1.882471 -0.02997,-2.019609 -0.210801,-0.130283 -0.177337,-0.256314 0.110882,-0.417609 0.5315,-0.297444 1.041895,-2.472433 0.681963,-2.906123 -0.168198,-0.202668 -1.023572,-0.299979 -2.402692,-0.273342 l -2.141508,0.04134 -0.371988,1.190625 c -0.204595,0.654843 -0.420934,1.42875 -0.480759,1.719791 -0.15912,0.774138 -1.681324,6.614584 -1.723967,6.614584 -0.01995,0 -0.07707,0.178593 -0.126942,0.396875 -0.04987,0.218281 -0.345543,1.11125 -0.657045,1.984375 -0.311502,0.873125 -0.848651,2.778125 -1.193662,4.233333 -0.345014,1.455208 -0.993884,4.074583 -1.441937,5.820833 -0.448054,1.74625 -1.048819,4.281903 -1.335035,5.634784 -0.286218,1.352881 -0.649769,2.662568 -0.807892,2.910417 -0.228769,0.358579 -0.251992,0.288485 -0.113681,-0.343117 0.0956,-0.436563 0.212752,-0.972344 0.26034,-1.190625 0.04759,-0.218282 0.516186,-2.599532 1.041328,-5.291667 0.525143,-2.692135 1.128197,-5.609167 1.340123,-6.482292 0.211923,-0.873125 0.802119,-3.4925 1.31154,-5.820833 0.509423,-2.328333 1.109017,-5.058138 1.332431,-6.066233 0.326088,-1.471394 0.339836,-1.875021 0.0697,-2.046469 -0.25054,-0.159011 -0.226669,-0.214605 0.09344,-0.217621 0.44712,-0.0042 0.760678,-1.001085 0.760678,-2.418375 0,-0.653835 -0.102415,-0.760677 -0.729163,-0.760677 -0.789911,0 -1.130517,0.525557 -1.628987,2.513542 -0.145952,0.582083 -0.870736,3.32052 -1.610632,6.085416 -0.739897,2.764896 -1.639367,6.27724 -1.998822,7.805209 -0.797338,3.389304 -2.008087,7.336258 -1.884479,6.143249 0.17453,-1.684454 -0.374459,-0.382265 -1.044644,2.477873 -0.372226,1.58854 -0.844081,3.483565 -1.048567,4.211169 -0.204489,0.727605 -0.713666,2.573073 -1.131507,4.101042 -0.603303,2.206173 -0.863949,2.793974 -1.266029,2.855108 -0.589026,0.08956 -1.518602,2.013741 -1.32693,2.746693 0.06956,0.265988 0.02315,0.483616 -0.103148,0.483616 -0.220101,0 -0.774456,1.671026 -0.921628,2.778125 -0.03869,0.291041 -0.33327,1.481666 -0.654622,2.645833 -0.321352,1.164167 -0.853204,3.24776 -1.181896,4.630208 -0.328692,1.382448 -0.838669,3.34698 -1.133282,4.365625 -0.294611,1.018646 -0.739154,2.62599 -0.98787,3.571875 -0.248716,0.945886 -0.550973,1.957917 -0.671679,2.248959 -0.186859,0.450543 -0.222131,0.460369 -0.237376,0.06615 z m 1.131295,-48.737793 c 0.413779,-0.790583 0.666414,-1.57643 0.561414,-1.746324 -0.105,-0.169894 -0.07699,-0.384886 0.06224,-0.477756 0.839547,-0.559987 2.675805,-5.560795 2.159135,-5.880115 -0.206584,-0.127676 -0.205851,-0.205491 0.0026,-0.275984 0.15962,-0.054 0.321921,-0.693487 0.360622,-1.421091 l 0.07036,-1.322917 -1.110369,-0.08067 c -1.097394,-0.07973 -1.113801,-0.06793 -1.403736,1.008806 -0.161351,0.599212 -0.339045,1.40942 -0.394875,1.800462 -0.05583,0.391041 -0.231532,1.306297 -0.390446,2.033901 -0.158914,0.727604 -0.34621,1.95854 -0.416213,2.735412 -0.07001,0.776872 -0.24238,1.627555 -0.383053,1.890407 -0.140674,0.262851 -0.334521,1.147948 -0.430771,1.966884 -0.223727,1.903571 0.238381,1.822267 1.31304,-0.231016 z M 7.704,23.081461 c 0.329396,-0.433806 0.349443,-0.432524 0.357386,0.02283 0.01505,0.862549 0.837012,0.358122 1.217247,-0.747003 0.381357,-1.108385 1.172418,-4.401638 1.172418,-4.880876 0,-0.153175 -0.11104,-0.278499 -0.246754,-0.278499 -0.312,0 -0.651594,0.93307 -0.77128,2.119167 -0.02216,0.219657 -0.295682,0.558866 -0.607817,0.753797 -0.55217,0.344836 -0.563583,0.325091 -0.422052,-0.730105 0.08001,-0.596489 0.03773,-1.084526 -0.09394,-1.084526 -0.131673,0 -0.239406,-0.238125 -0.239406,-0.529167 0,-0.426644 -0.176389,-0.529166 -0.910427,-0.529166 -0.930971,0 -1.16655,0.175795 -1.32827,0.991193 -0.05062,0.255208 -0.341522,1.436352 -0.646458,2.624765 -0.304936,1.188412 -0.554429,2.28101 -0.554429,2.427995 0,0.673893 2.540972,0.541289 3.073783,-0.160409 z m 2.839268,-1.753981 c 0.223501,-0.857438 0.311394,-1.452751 0.195318,-1.322917 -0.258889,0.289575 -1.084339,2.849577 -1.07324,3.328485 0.01459,0.629667 0.450718,-0.366636 0.877922,-2.005568 z m -9.272871,1.600457 c 0.07501,-0.195467 0.220527,-1.028905 0.323377,-1.852083 0.328511,-2.629316 -0.451639,-1.640299 -1.062992,1.347583 -0.13514,0.660477 -0.08559,0.859896 0.213646,0.859896 0.214275,0 0.450961,-0.159928 0.525969,-0.355396 z m 10.340098,-0.96752 0.156859,-0.926042 -0.381634,0.79375 c -0.433051,0.900688 -0.53602,1.699634 -0.168794,1.309688 0.13019,-0.138245 0.307296,-0.668073 0.393569,-1.177396 z m 68.82264,-5.598647 c 0.145404,-0.136522 0.280607,-1.381585 0.30045,-2.766807 0.03502,-2.444308 0.01696,-2.525855 -0.612325,-2.765107 -0.94416,-0.358969 -1.128345,-0.31273 -1.389354,0.34879 -1.603301,4.063519 -1.999922,4.960937 -2.192533,4.960937 -0.124127,0 -0.09455,-0.245024 0.06572,-0.544499 0.373353,-0.697614 0.632553,-4.053613 0.297066,-3.846272 -0.135742,0.08389 -0.308134,0.54059 -0.38309,1.014882 -0.07496,0.474291 -0.385771,1.565439 -0.690692,2.424772 -0.304925,0.859333 -0.554406,1.596287 -0.554406,1.637674 0,0.430151 4.65245,0.01139 5.159164,-0.46437 z M 19.718611,16.248954 c 0.476795,-0.412073 1.037102,-2.05751 2.086933,-6.128641 L 22.573117,7.14375 22.002188,7.14135 C 21.679493,7.13995 21.118,7.513875 20.710773,8.001246 l -0.720487,0.862277 -0.0071,-0.875868 c -0.0069,-0.849272 -0.03724,-0.873374 -0.999305,-0.79375 -0.864999,0.07159 -1.057067,0.217785 -1.498308,1.140451 -0.278366,0.582083 -0.610074,1.27194 -0.737129,1.533016 -0.241975,0.497216 -1.901365,5.191937 -2.186964,6.187325 -0.138078,0.481235 -0.04314,0.593647 0.574055,0.67972 1.294356,0.18051 4.164251,-0.123495 4.583093,-0.485482 z m 6.953495,0.341907 c 0.47903,0.08875 0.666059,-0.104573 1.074451,-1.110608 0.589431,-1.452011 0.808292,-1.415363 0.472504,0.07912 -0.193419,0.860838 -0.164351,1.10693 0.144753,1.225544 0.516822,0.198323 3.63138,0.190018 4.155435,-0.01108 0.372883,-0.143089 0.874634,-1.447477 1.109065,-2.883211 0.04752,-0.291042 0.433705,-1.863087 0.858187,-3.493434 0.424479,-1.630348 0.706715,-3.029333 0.627194,-3.108855 -0.07952,-0.07952 -1.480269,-0.144587 -3.11277,-0.144587 -3.433241,0 -3.320896,-0.07669 -4.3713,2.984017 -0.333965,0.973112 -0.645398,1.731102 -0.692079,1.684422 -0.04668,-0.04668 0.03476,-0.715708 0.180983,-1.486728 0.146222,-0.771019 0.265856,-1.802321 0.265856,-2.291782 0,-0.876418 -0.01782,-0.889929 -1.173499,-0.889929 -1.10097,0 -1.194196,0.05723 -1.50836,0.926042 -0.184174,0.509323 -0.477515,0.926041 -0.65187,0.926041 -0.367851,0 -1.202473,1.516056 -1.675078,3.042709 -0.180196,0.582083 -0.621558,1.700069 -0.980805,2.484413 -0.359247,0.784344 -0.593506,1.581578 -0.520576,1.771632 0.153329,0.399569 2.357152,0.587432 4.078118,0.347637 0.626892,-0.08735 1.400799,-0.110463 1.719791,-0.05136 z M 48.811443,16.412 c 0.153455,-0.286733 0.330099,-1.129078 0.392541,-1.871879 0.06244,-0.7428 0.293923,-2.204841 0.514403,-3.248979 0.220477,-1.044139 0.451654,-2.344918 0.513728,-2.890621 l 0.112858,-0.992188 h -1.300382 c -1.530062,0 -1.524601,-0.0089 -2.199249,3.571875 -0.246758,1.309688 -0.553616,2.619375 -0.68191,2.910417 -0.399085,0.905346 -0.774216,2.58537 -0.629553,2.819441 0.07589,0.122797 0.781614,0.223267 1.568271,0.223267 1.152332,0 1.484505,-0.101313 1.709293,-0.521333 z m 4.95763,-1.066167 c 0.20043,-0.800364 0.588082,-2.169583 0.861447,-3.042708 0.433485,-1.384546 1.064283,-4.314481 1.064283,-4.943385 0,-0.118795 -0.601387,-0.21599 -1.336418,-0.21599 -1.285883,0 -1.35156,0.03625 -1.736934,0.958573 -0.565494,1.353419 -1.47129,5.10177 -1.299874,5.379126 0.07875,0.127428 0.01765,0.273532 -0.135769,0.324675 -0.153429,0.05114 -0.350125,0.782511 -0.437104,1.625263 l -0.158147,1.532276 1.407049,-0.08131 1.407051,-0.08131 z m 4.712026,-0.198437 c 0.100417,-0.982266 0.302331,-2.321719 0.448699,-2.976563 0.146367,-0.654843 0.321966,-1.934765 0.390223,-2.844271 0.115533,-1.539486 0.08601,-1.653645 -0.42764,-1.653645 -0.303459,0 -0.551744,0.127376 -0.551744,0.283057 0,0.155682 -0.383387,0.840291 -0.851972,1.521355 -0.468582,0.681063 -0.810932,1.270434 -0.760775,1.309714 0.05015,0.03928 0.01545,0.545077 -0.07712,1.123992 -0.09257,0.578915 -0.177068,1.14209 -0.187765,1.251498 -0.01069,0.109409 -0.116914,0.317988 -0.236034,0.463509 -0.119124,0.145521 -0.301311,0.949192 -0.404863,1.785937 l -0.188278,1.521354 h 1.332344 1.332344 z m 15.145455,0.992187 c 0.03981,-0.363802 0.18333,-1.137708 0.318942,-1.719791 1.166844,-5.008414 1.672209,-7.257322 1.778243,-7.913303 0.06842,-0.423255 0.236458,-1.064305 0.373425,-1.424557 0.403643,-1.061657 0.57358,-3.229849 0.253151,-3.229849 -0.256662,0 -0.408469,0.57634 -0.304014,1.15421 C 76.068981,3.131786 75.918287,3.369911 75.71142,3.53546 75.504553,3.701009 75.256639,4.193646 75.1605,4.630208 75.06436,5.066771 74.877792,5.840677 74.745897,6.35 c -0.342712,1.323424 -0.839358,3.503133 -0.904282,3.96875 -0.03043,0.218281 -0.205179,0.672493 -0.388321,1.009358 -0.183142,0.336866 -0.391155,0.872647 -0.462248,1.190625 -0.158496,0.708908 -0.240057,0.992934 -0.431935,1.504184 -0.953215,2.539791 -0.933172,2.964042 0.135173,2.861034 0.694658,-0.06698 0.873802,-0.210016 0.93227,-0.744368 z m -38.932813,-0.79375 c 0.445243,-1.491075 0.445362,-1.5875 0.0019,-1.5875 -0.391036,0 -1.548879,2.499246 -1.281647,2.766479 0.410324,0.410324 0.954937,-0.09143 1.279684,-1.178979 z m 1.849374,1.120428 c 0.275844,-0.181648 1.424604,-2.250069 1.424604,-2.565096 0,-0.07856 -0.414451,-0.142832 -0.921001,-0.142832 -0.967182,0 -0.906278,-0.08953 -1.323139,1.945096 -0.175877,0.85842 0.176416,1.186338 0.819536,0.762832 z m 6.202461,-0.136655 c 0.226727,-0.177273 0.612717,-0.82833 0.857753,-1.446793 l 0.445523,-1.12448 -1.916088,-0.05257 -1.916086,-0.05257 1.885447,-0.09065 1.88545,-0.09065 0.467138,-1.510425 c 0.256926,-0.830735 0.688395,-1.952168 0.958823,-2.492073 0.837441,-1.671954 0.529257,-2.493501 -0.804537,-2.144706 -0.378912,0.09909 -0.671232,0.531537 -0.926719,1.370966 -0.205266,0.674421 -0.568933,1.642939 -0.808151,2.152262 l -0.434938,0.926041 0.145513,-1.124479 c 0.08003,-0.618463 0.220263,-1.600729 0.311623,-2.182812 0.148905,-0.94874 0.109123,-1.058334 -0.384201,-1.058334 -0.391094,0 -0.805977,0.440155 -1.434002,1.521354 -0.960872,1.654222 -1.873369,4.211052 -1.638496,4.591085 0.08075,0.130659 0.03193,0.237561 -0.108506,0.237561 -0.312925,0 -1.145241,2.356668 -0.94611,2.67887 0.218194,0.353047 3.887203,0.262514 4.360564,-0.107597 z m 2.12711,-0.38846 c 0.529788,-1.390171 0.617024,-2.264545 0.212799,-2.13285 -0.462227,0.15059 -1.618306,2.289929 -1.415119,2.618693 0.297646,0.481601 0.931196,0.225591 1.20232,-0.485843 z M 5.833069,14.089063 C 6.229486,12.815755 6.777955,11.119115 7.051889,10.31875 L 7.549952,8.863542 7.387099,10.186458 c -0.08957,0.727605 -0.389321,2.235723 -0.666117,3.351375 -0.691519,2.787234 -0.680056,2.866334 0.415386,2.866334 0.890341,0 0.932372,-0.04688 1.36393,-1.521354 0.244904,-0.836745 0.496277,-1.372527 0.558606,-1.190625 0.255222,0.744829 0.601784,0.21464 1.251023,-1.913885 1.173325,-3.846729 1.393657,-6.110951 0.354439,-3.642366 -0.737563,1.75203 -1.007065,2.767395 -1.007065,3.79418 0,0.896461 -0.363889,1.552523 -0.683719,1.232692 -0.06564,-0.06564 0.06134,-0.978316 0.282186,-2.028167 0.220843,-1.049851 0.401533,-2.377286 0.401533,-2.949856 0,-0.973708 -0.04991,-1.041036 -0.771702,-1.041036 -0.597616,0 -0.83484,0.164138 -1.051588,0.727604 C 7.560542,8.582273 7.555486,8.58379 7.613524,7.937504 7.664764,7.366878 7.552094,7.264456 6.793033,7.191645 6.086963,7.123915 5.884861,7.215385 5.769987,7.654666 5.584153,8.365294 5.159384,8.362655 5.159384,7.650866 c 0,-0.935593 -0.628641,-0.406754 -0.993662,0.83591 -0.351367,1.196179 -0.432329,1.668267 -0.722554,4.213222 -0.143325,1.256792 -0.115311,1.401095 0.205458,1.058333 0.204275,-0.218281 0.597017,-1.230312 0.87276,-2.248958 0.384373,-1.419949 0.521602,-1.680144 0.588146,-1.115167 0.04774,0.405304 -0.148498,1.476866 -0.43608,2.38125 -0.945058,2.971996 -0.952018,3.628709 -0.03846,3.628709 0.36876,0 0.641254,-0.526553 1.19808,-2.315104 z m 5.614981,-0.529167 c 1.64975,-5.560192 1.866338,-6.745322 1.152061,-6.303875 -0.502172,0.31036 -2.814628,8.448809 -2.531026,8.907686 0.339269,0.548948 0.576337,0.101307 1.378965,-2.603811 z m -2.215932,1.89659 C 9.4688,14.839704 9.427345,14.234869 9.159728,14.400267 8.860093,14.585451 8.608439,15.875 8.871935,15.875 c 0.109772,0 0.271855,-0.188331 0.360185,-0.418514 z M 2.630311,11.773958 C 2.741974,11.191875 2.865135,10.4775 2.904002,10.186458 2.942872,9.895417 3.05518,9.467354 3.153583,9.235209 3.333375,8.811053 3.184273,7.4617 2.929462,7.206884 2.6692,6.946622 2.279825,8.427474 2.030828,10.624525 c -0.137616,1.214272 -0.277995,2.326829 -0.311952,2.47235 -0.03396,0.145521 -0.04298,0.502708 -0.02005,0.79375 0.03334,0.423252 0.110419,0.370295 0.385076,-0.264583 0.188863,-0.436563 0.434748,-1.27 0.546411,-1.852084 z M 38.364594,12.7 c 0.225756,-0.436562 0.333296,-0.79375 0.238982,-0.79375 -0.09432,0 -0.0539,-0.148828 0.08981,-0.330729 0.230026,-0.291156 1.391002,-3.649778 1.391002,-4.024074 0,-0.360796 -1.025536,-0.08873 -1.455209,0.386053 -0.26339,0.291042 -0.399412,0.529167 -0.30227,0.529167 0.09714,0 -0.143,0.506015 -0.533644,1.124479 -0.623773,0.987553 -1.413044,3.043097 -1.413044,3.680071 0,0.122393 0.354129,0.222533 0.786955,0.222533 0.606793,0 0.880925,-0.181719 1.19742,-0.79375 z M 35.423652,12.038542 C 35.618804,11.127824 35.24064,11.631757 34.927278,12.7 c -0.127476,0.434563 -0.104794,0.5707 0.06613,0.396875 0.143087,-0.145521 0.336699,-0.621771 0.430247,-1.058333 z M 80.433347,10.054167 C 80.724388,9.929102 80.808335,9.818408 80.619894,9.80818 80.367415,9.79448 80.312041,9.423122 80.409415,8.396653 80.580778,6.590285 80.273716,6.058021 79.724583,7.209562 c -0.531039,1.113603 -0.831466,2.492984 -0.618143,2.838149 0.196948,0.318666 0.595836,0.320607 1.326907,0.0065 z M 77.880033,9.591146 c 0.133887,-0.254662 0.320143,-1.117865 0.413906,-1.918229 0.165198,-1.410166 0.158853,-1.4298 -0.204949,-0.63432 -0.342979,0.749953 -0.749181,3.01557 -0.540657,3.01557 0.04855,0 0.197813,-0.20836 0.3317,-0.463021 z m -50.16897,-3.34803 c 0.106913,-0.159495 0.19621,-0.62856 0.198438,-1.042365 0.0028,-0.527839 0.161973,-0.793672 0.533217,-0.890755 0.632709,-0.165457 0.681615,-0.49422 0.120254,-0.808375 C 28.235386,3.318295 28.209073,3.128074 28.43068,2.545208 28.786629,1.608985 28.783624,1.5875 28.296663,1.5875 c -0.225851,0 -0.53603,0.359701 -0.689287,0.799335 -0.153257,0.439634 -0.49938,0.917466 -0.769162,1.061848 -0.431301,0.230826 -1.570496,2.345686 -1.570496,2.91555 0,0.546962 2.064105,0.444643 2.443345,-0.121117 z M 43.414273,5.820833 C 43.597984,5.31151 43.754705,4.537604 43.762542,4.101042 l 0.01423,-0.79375 -0.501735,0.652925 C 42.836348,4.531104 42.680143,4.957279 42.320775,6.563762 42.148828,7.332417 43.10282,6.68426 43.414259,5.820833 Z m 2.867536,0.463021 c 0.590322,-2.878451 0.669877,-3.638021 0.381034,-3.638021 -0.12565,0 -0.228457,0.119063 -0.228457,0.264584 0,0.14552 -0.198437,0.264583 -0.440973,0.264583 -0.242533,0 -0.360508,0.08046 -0.262162,0.178809 0.09835,0.09835 -0.05315,0.425767 -0.336646,0.727604 -0.283501,0.301837 -0.629121,1.054811 -0.768045,1.673274 l -0.252593,1.12448 h 0.892879 c 0.71338,0 0.917419,-0.119675 1.014963,-0.595313 z M 59.928137,6.057109 c 0,-0.275472 -0.09042,-0.500859 -0.200938,-0.500859 -0.279114,0 -0.858364,0.969171 -0.683665,1.14387 0.283393,0.283391 0.884603,-0.153625 0.884603,-0.643011 z M 20.445178,5.357812 C 20.612699,4.666588 20.742364,3.64213 20.733323,3.081238 L 20.716883,2.061434 20.09014,3.081238 c -0.344708,0.560892 -0.630458,1.140083 -0.635,1.28709 -0.0045,0.147008 -0.305914,0.588296 -0.669716,0.980641 -0.909503,0.980858 -0.831462,1.265614 0.346856,1.265614 0.983763,0 1.01573,-0.0306 1.312896,-1.256771 z M 40.735594,5.243644 c 0.22392,-0.754016 0.407125,-1.524186 0.407125,-1.711487 0,-0.572184 -0.786683,-0.08056 -0.957008,0.598068 -0.08728,0.347752 -0.245735,0.632275 -0.352121,0.632275 -0.208711,0 -0.807538,1.18644 -0.807538,1.599949 0,0.138674 0.293045,0.252134 0.651209,0.252134 0.55572,0 0.710906,-0.201022 1.058333,-1.370939 z M 3.718261,5.511868 C 3.809851,5.223304 3.815411,4.917836 3.730631,4.833051 3.645841,4.748261 3.687701,4.544886 3.823631,4.381095 4.166947,3.967425 3.716033,3.327655 3.216313,3.519415 2.770799,3.690375 2.363423,5.312552 2.606758,5.946672 2.803794,6.460142 3.504262,6.18613 3.718265,5.511868 Z m 8.068927,0.1419 C 12.023154,5.033132 12.300796,3.880429 12.702868,1.852083 12.8266,1.227892 12.809932,1.233854 12.407036,1.957895 12.172213,2.379893 11.952003,2.856143 11.917681,3.016228 11.883361,3.176313 11.735627,3.604948 11.589388,3.96875 11.149688,5.062602 10.970507,6.35 11.257964,6.35 11.403449,6.35 11.6416,6.036695 11.787188,5.653768 Z M 24.574614,4.40691 c 0.02559,-0.168228 0.135435,-0.448116 0.244101,-0.621974 0.31924,-0.510762 0.967182,-2.462019 0.817548,-2.462019 -0.226889,0 -1.692085,3.391654 -1.683416,3.896794 0.0075,0.437406 0.02705,0.436129 0.291644,-0.01905 0.155979,-0.268335 0.304534,-0.625522 0.330123,-0.79375 z M 3.932174,2.711979 C 4.050468,2.29503 3.996844,1.130269 3.843864,0.79375 3.747324,0.581385 3.362533,1.928362 3.333678,2.579687 3.302558,3.282192 3.742791,3.379501 3.932178,2.711979 Z M 105.44052,72.694271 c 0.002,-0.181901 0.11947,-0.509323 0.26054,-0.727604 0.19986,-0.309264 0.25737,-0.236257 0.26053,0.330729 0.002,0.400182 -0.11501,0.727604 -0.26053,0.727604 -0.14552,0 -0.26276,-0.148828 -0.26054,-0.330729 z M 90.289077,63.313276 c 0.327421,-0.06307 0.863203,-0.06307 1.190625,0 0.327421,0.06306 0.05953,0.114662 -0.595313,0.114662 -0.654844,0 -0.922734,-0.0516 -0.595312,-0.114662 z M 11.244801,50.52155 c -0.284367,-0.19371 -0.09685,-0.220112 0.661458,-0.09314 1.312525,0.219768 1.523778,0.372877 0.507118,0.36754 -0.424436,-0.0022 -0.950295,-0.125709 -1.168576,-0.2744 z m 26.60997,0.02352 c -0.472453,-0.168383 -0.475716,-0.194789 -0.04451,-0.360259 0.649886,-0.249386 1.215787,-0.22252 1.215787,0.05772 0,0.354169 -0.595116,0.507889 -1.171281,0.302543 z M 27.384385,50.30826 c 0.218281,-0.116086 1.170781,-0.130622 2.116667,-0.0323 l 1.719792,0.178766 -2.116667,0.0323 c -1.18871,0.01815 -1.942674,-0.06023 -1.719792,-0.178763 z m 69.519275,0.03343 c 0.618464,-0.0557 1.630495,-0.0557 2.248959,0 0.618463,0.0557 0.112448,0.101283 -1.12448,0.101283 -1.236927,0 -1.742942,-0.04558 -1.124479,-0.101283 z M 72.291509,47.169459 c 0.469696,-0.05845 1.303133,-0.05941 1.852083,-0.0021 0.548947,0.05728 0.16465,0.105098 -0.853996,0.106273 -1.018646,0.0011 -1.467786,-0.04569 -0.998087,-0.104138 z M 28.929491,44.448952 c -0.09584,-0.657558 0.524423,-2.110761 0.90229,-2.113947 0.259667,-0.0021 0.273444,-0.06802 -0.304012,1.452489 -0.426212,1.122262 -0.516554,1.222145 -0.598278,0.661458 z m 1.220851,-5.290619 c 0.07295,-0.654843 0.198903,-1.488281 0.279892,-1.852083 0.08099,-0.363802 0.219623,-1.229757 0.308073,-1.924346 0.139965,-1.099132 0.104484,-1.241269 -0.273635,-1.096172 -0.291811,0.11198 -0.434453,0.02712 -0.434453,-0.258466 0,-0.24067 0.217188,-0.425183 0.500483,-0.425183 0.311282,0 0.562358,-0.24653 0.66416,-0.652131 0.09002,-0.358672 0.489831,-0.978289 0.888468,-1.376927 0.794268,-0.794268 1.262351,-1.582801 1.779669,-2.998025 0.410435,-1.12282 1.710122,-3.96875 1.812463,-3.96875 0.04041,0 -0.219406,1.220391 -0.577382,2.711979 -0.761209,3.171764 -0.762648,3.178122 -0.782127,3.45055 -0.0082,0.115174 -0.321051,0.731687 -0.695145,1.370031 -0.799555,1.36434 -0.81652,1.463273 -0.250902,1.463273 0.329115,0 0.360519,0.08284 0.134588,0.355074 -0.162076,0.195289 -0.20642,0.444735 -0.09854,0.55432 0.107876,0.109586 -0.03316,0.158163 -0.31341,0.107948 -0.570341,-0.102193 -1.167299,0.916471 -2.272263,3.87745 -0.108611,0.291042 -0.333621,0.826823 -0.500023,1.190625 -0.266488,0.582615 -0.286742,0.519541 -0.169915,-0.529167 z M 3.916295,38.698821 c 0.05836,-0.952722 0.325561,-1.156076 1.110797,-0.845386 0.436631,0.172759 0.449676,0.212624 0.0746,0.227967 -0.250014,0.01024 -0.63081,0.34602 -0.846214,0.746202 L 3.86383,39.555208 Z m 74.009394,-0.384768 c -0.0063,-0.761719 0.423307,-1.214289 0.796634,-0.839229 0.126802,0.127392 0.0024,0.520671 -0.281755,0.889759 l -0.508997,0.661459 -0.0059,-0.711989 z M 21.67471,34.799056 c 0.433124,-1.813312 0.832976,-3.251449 0.88856,-3.195865 0.196078,0.196077 -1.049886,5.83979 -1.360842,6.164072 -0.175157,0.18266 0.03469,-1.136185 0.472282,-2.968207 z m 15.267669,1.517941 c 0.141097,-0.547317 0.394253,-1.270757 0.562568,-1.607643 0.245353,-0.491083 0.229767,-0.66076 -0.07862,-0.855842 -0.28094,-0.177721 -0.156123,-0.244417 0.462941,-0.247378 0.837835,-0.004 0.843349,0.0043 0.479209,0.723553 -0.20261,0.400183 -0.557446,1.16903 -0.788525,1.708553 -0.57268,1.337093 -0.953312,1.50351 -0.637573,0.278757 z M 55.202366,36.5125 c 0.02133,-1.233734 0.300305,-2.166895 0.61766,-2.066137 0.324826,0.103132 0.204768,1.064726 -0.268883,2.153576 l -0.364795,0.838603 0.01601,-0.926042 z M 4.769472,35.692355 c 0.363547,-1.378143 0.655672,-1.948272 0.653019,-1.274474 -0.0025,0.635635 -0.534329,2.332075 -0.778379,2.482906 -0.127103,0.07855 -0.07069,-0.465241 0.12536,-1.208432 z m 71.566884,1.018582 c 0.0021,-0.181901 0.119467,-0.509322 0.260532,-0.727604 0.199861,-0.309263 0.257374,-0.236257 0.260533,0.330729 0.0021,0.400183 -0.115012,0.727605 -0.260533,0.727605 -0.145521,0 -0.26276,-0.148828 -0.260532,-0.33073 z M 104.37814,34.13125 c -0.90448,-0.190386 -0.89678,-0.195733 0.33073,-0.229754 0.69122,-0.01916 1.25677,0.08423 1.25677,0.229754 0,0.290274 -0.20847,0.290274 -1.5875,0 z M 30.58809,32.940625 c -0.0027,-0.291042 0.163494,-0.886354 0.369234,-1.322917 l 0.374068,-0.79375 -0.160766,0.79375 c -0.08842,0.436563 -0.254577,1.031875 -0.369232,1.322917 l -0.208468,0.529167 -0.0048,-0.529167 z m 13.465046,-0.90764 c 0,-0.575667 0.381609,-0.735793 0.664125,-0.27867 0.0914,0.147895 0.292471,0.190855 0.446816,0.09547 0.161075,-0.09955 0.228994,-0.01685 0.15943,0.194119 -0.06666,0.202158 -0.37976,0.405606 -0.695783,0.452107 -0.431872,0.06355 -0.574588,-0.05146 -0.574588,-0.463021 z M 2.645522,30.823958 c 0.301634,-2.090756 0.485157,-2.942672 0.71247,-3.307291 0.35319,-0.566531 0.05607,1.426554 -0.433866,2.910416 -0.257565,0.780077 -0.353632,0.916927 -0.278604,0.396875 z m 12.147345,-0.926041 c 0.09286,-0.363802 0.238719,-0.980541 0.324128,-1.370531 0.08541,-0.389988 0.465893,-0.985301 0.84552,-1.322917 0.379627,-0.337614 0.569839,-0.43525 0.422694,-0.216969 -0.147146,0.218281 -0.428018,0.873125 -0.624159,1.455208 -0.196142,0.582084 -0.532212,1.296459 -0.746822,1.5875 -0.376031,0.50995 -0.384069,0.505148 -0.221361,-0.132291 z m 33.898537,0 c 0.109903,-0.363802 0.35302,-1.078177 0.540261,-1.5875 0.421886,-1.147601 0.49054,-0.416402 0.07703,0.820414 -0.35855,1.072425 -0.920488,1.77073 -0.617289,0.767086 z M 45.508345,28.575 c 0.10547,-0.363802 0.310829,-0.780521 0.45635,-0.926042 0.17639,-0.176389 0.20066,-0.0441 0.07282,0.396875 -0.105471,0.363802 -0.31083,0.780521 -0.45635,0.926042 -0.17639,0.17639 -0.200661,0.0441 -0.07282,-0.396875 z m -7.27269,-1.653646 c 0.0039,-0.383746 1.508723,-3.417844 1.799595,-3.628405 0.107818,-0.07805 0.421783,-0.653675 0.697698,-1.279169 0.873911,-1.98113 0.968309,-1.492042 0.143688,0.744455 -0.687158,1.863668 -2.164856,4.493848 -2.524753,4.493848 -0.06577,0 -0.118072,-0.148828 -0.116228,-0.330729 z m 3.482914,-0.198437 c 0.08017,-0.218282 0.411419,-1.186444 0.736119,-2.151473 0.493082,-1.465492 0.673409,-1.73288 1.094401,-1.622787 0.643038,0.168157 0.636677,0.386846 -0.02511,0.863843 -0.291042,0.209771 -0.529167,0.586216 -0.529167,0.836544 0,0.250329 -0.119062,0.528727 -0.264583,0.618664 -0.145521,0.08994 -0.264583,0.380041 -0.264583,0.644677 0,0.264635 -0.200885,0.644561 -0.446413,0.844282 -0.383278,0.311769 -0.4258,0.306996 -0.300654,-0.03375 z M 24.60626,24.341667 c 0.08994,-0.145521 -0.08582,-0.264584 -0.390569,-0.264584 -0.468598,0 -0.511208,-0.08013 -0.276162,-0.519314 0.173484,-0.324159 0.435589,-0.458813 0.69747,-0.35832 0.230748,0.08855 0.513572,0.0088 0.628497,-0.177104 0.152586,-0.246889 0.2558,-0.190502 0.382604,0.209023 0.09551,0.300916 0.376414,0.600492 0.624238,0.665725 0.247824,0.06523 0.06364,0.132418 -0.409307,0.149298 -0.472943,0.01688 -0.859896,0.149755 -0.859896,0.295276 0,0.14552 -0.126089,0.264583 -0.280198,0.264583 -0.154109,0 -0.206614,-0.119063 -0.116677,-0.264583 z M 8.334384,2.945612 C 8.334384,2.649675 8.126024,2.274374 7.871363,2.11161 7.459673,1.848483 7.472314,1.829084 7.98539,1.936624 8.480125,2.040321 8.587232,1.910824 8.736251,1.028787 8.842278,0.401218 9.055771,0 9.283682,0 9.739621,0 9.743317,0.29032 9.308722,1.966576 8.964322,3.294935 8.334387,3.92791 8.334387,2.945612 Z M 36.25215,2.348589 C 36.512402,0.797924 36.832977,0 37.195728,0 37.363715,0 37.422572,0.189182 37.329801,0.430941 37.238851,0.667958 37.032872,1.384357 36.872074,2.022938 36.47421,3.603002 35.999796,3.852216 36.25215,2.348589 Z M 105.02886,1.785346 C 104.77084,1.115645 105.11456,0 105.57885,0 c 0.29851,0 0.35399,0.180328 0.22384,0.727604 -0.0952,0.400182 -0.26803,0.906198 -0.38413,1.124479 -0.18074,0.339818 -0.23676,0.330223 -0.3897,-0.06674 z M 0.301496,1.403918 C -0.039257,1.063165 0.133161,0 0.529175,0 0.773561,0 0.92605,0.248149 0.92605,0.645843 c 0,0.663895 -0.324663,1.057966 -0.624554,0.758075 z"
       id="path506" />
  </g>
</svg>
