<?xml version="1.0" encoding="UTF-8" standalone="no"?>
<!-- Created with Inkscape (http://www.inkscape.org/) -->

<svg
   width="400.06519"
   height="300.05411"
   viewBox="0 0 105.85058 79.389316"
   version="1.1"
   id="svg1216"
   inkscape:export-filename="texture-shadow-4.svg"
   inkscape:export-xdpi="96"
   inkscape:export-ydpi="96"
   xmlns:inkscape="http://www.inkscape.org/namespaces/inkscape"
   xmlns:sodipodi="http://sodipodi.sourceforge.net/DTD/sodipodi-0.dtd"
   xmlns="http://www.w3.org/2000/svg"
   xmlns:svg="http://www.w3.org/2000/svg">
  <sodipodi:namedview
     id="namedview1218"
     pagecolor="#ffffff"
     bordercolor="#666666"
     borderopacity="1.0"
     inkscape:showpageshadow="2"
     inkscape:pageopacity="0.0"
     inkscape:pagecheckerboard="0"
     inkscape:deskcolor="#d1d1d1"
     inkscape:document-units="mm"
     showgrid="false" />
  <defs
     id="defs1213" />
  <g
     inkscape:label="Layer 1"
     inkscape:groupmode="layer"
     id="layer1">
    <path
       style="display:inline;fill:#000000;stroke-width:0.264583"
       d="M 0,62.713412 C 0,48.437345 0.05439,46.0375 0.377976,46.0375 c 0.207887,0 0.55657,0.178594 0.774852,0.396875 0.218281,0.218281 0.554207,0.400042 0.746502,0.403916 0.192296,0.0039 0.0213,0.210589 -0.379983,0.459374 -0.652428,0.404485 -1.191988,1.272056 -0.944829,1.519214 0.05152,0.05152 0.66938,-0.02912 1.373029,-0.179194 0.913151,-0.194755 1.362815,-0.189407 1.570907,0.01868 0.212339,0.212342 0.187318,0.301009 -0.0921,0.326377 -0.211005,0.01916 0.03307,0.117848 0.542396,0.219313 0.803806,0.160131 0.856193,0.214104 0.396875,0.408893 -1.14246,0.484494 -0.940215,1.176464 0.346344,1.184997 0.33601,0.0021 0.555795,0.09335 0.48841,0.202488 -0.202687,0.328285 1.252318,0.307854 1.663431,-0.02336 0.264824,-0.213355 0.326995,-0.216326 0.203263,-0.0097 -0.113448,0.189439 0.06838,0.297657 0.50012,0.297657 0.373107,0 0.960549,0.151013 1.305427,0.335586 0.506466,0.271053 0.857527,0.271061 1.825536,3.5e-5 0.659167,-0.184558 1.126748,-0.451628 1.039069,-0.593495 -0.08768,-0.14187 0.08525,-0.127 0.384286,0.03304 0.703066,0.376269 1.189468,0.372824 0.954869,-0.0068 -0.127941,-0.207012 0.114513,-0.262895 0.795635,-0.183377 0.833895,0.09735 0.961526,0.04506 0.857828,-0.351486 -0.115362,-0.441142 -0.08538,-0.441978 0.565081,-0.01577 0.657181,0.430601 0.67874,0.4288 0.4982,-0.04168 -0.142538,-0.371445 -0.09087,-0.45422 0.211168,-0.338317 0.219932,0.0844 0.399876,0.02522 0.399876,-0.131511 0,-0.169934 0.260464,-0.219591 0.645243,-0.123018 0.739708,0.185655 1.189499,-0.25499 0.482475,-0.472665 -0.256443,-0.07895 0.06952,-0.08627 0.724365,-0.01627 0.847507,0.0906 1.076252,0.05112 0.79375,-0.137006 -0.326605,-0.217493 -0.29147,-0.273204 0.198438,-0.314643 2.704425,-0.228748 4.299479,-0.52047 4.299479,-0.786336 0,-0.12636 0.20836,-0.227923 0.463021,-0.225695 0.397709,0.0035 0.407039,0.04194 0.06615,0.272621 -0.294454,0.199261 -0.209104,0.224952 0.330729,0.09956 0.518012,-0.120328 0.729922,-0.06548 0.73565,0.190399 0.0053,0.236374 0.101435,0.198998 0.280845,-0.109172 0.150039,-0.257723 0.404777,-0.38702 0.566084,-0.287327 0.186636,0.115348 0.234904,0.02912 0.132736,-0.237122 -0.09381,-0.244457 0.0032,-0.481219 0.233363,-0.56954 0.222287,-0.0853 0.323482,-0.0372 0.232261,0.110395 -0.203533,0.329324 -0.132608,0.327025 0.888119,-0.0288 0.458105,-0.159697 0.759161,-0.409699 0.669013,-0.555564 -0.09305,-0.150556 0.07866,-0.13539 0.397187,0.03508 0.308605,0.165158 0.562919,0.206801 0.565147,0.09254 0.0021,-0.114261 0.119468,-0.02915 0.260533,0.189129 0.208568,0.322736 0.257238,0.288719 0.260532,-0.182094 0.0036,-0.516655 0.132207,-0.573612 1.194703,-0.529167 0.654859,0.02739 1.190641,-0.05471 1.190625,-0.182451 -1.3e-5,-0.127738 0.476223,-0.156096 1.058307,-0.06302 0.696222,0.111332 1.058333,0.06959 1.058333,-0.121996 0,-0.188587 0.377172,-0.238475 1.070163,-0.141545 0.58859,0.08233 1.016876,0.06315 0.951751,-0.04262 -0.06512,-0.105772 0.296,-0.206915 0.802505,-0.224763 0.506503,-0.01786 1.179542,-0.15357 1.495643,-0.301599 0.746283,-0.34948 2.898518,-0.966748 3.154418,-0.904695 0.10914,0.02647 0.198437,-0.05771 0.198437,-0.187066 0,-0.129352 0.148828,-0.222824 0.330729,-0.207716 0.421024,0.03497 2.583411,-0.556313 3.117538,-0.852453 0.554586,-0.307483 2.160662,-0.671635 2.597555,-0.588952 0.196507,0.03719 0.286843,-0.04635 0.200753,-0.185653 -0.08609,-0.139298 0.259149,-0.331248 0.767199,-0.426559 0.50805,-0.09531 0.923727,-0.300839 0.923727,-0.456731 0,-0.158084 0.286546,-0.228661 0.647901,-0.159584 0.453713,0.08673 0.810038,-0.06262 1.188873,-0.498324 0.639784,-0.735814 1.329886,-0.875186 0.78807,-0.159155 -0.298066,0.393904 -0.295003,0.413652 0.02053,0.132292 0.203985,-0.181901 0.614963,-0.339098 0.91328,-0.349327 0.536978,-0.01841 0.53711,-0.02087 0.01323,-0.245986 -0.510181,-0.219231 -0.508366,-0.228057 0.05053,-0.245985 0.318833,-0.01024 0.658299,-0.145778 0.754367,-0.301218 0.09607,-0.155443 0.337407,-0.220173 0.53631,-0.143849 0.198901,0.07633 0.436412,0.01778 0.527804,-0.130085 0.09981,-0.161501 0.322337,-0.07765 0.55726,0.209992 0.215101,0.263369 0.325194,0.345371 0.244645,0.182229 -0.09038,-0.183068 0.236937,-0.348046 0.855011,-0.430948 0.550802,-0.07388 1.661159,-0.446413 2.467459,-0.827854 0.8063,-0.381442 1.8485,-0.693532 2.31599,-0.693532 0.46749,0 0.79559,-0.0893 0.72912,-0.198437 -0.0665,-0.109141 0.5336,-0.220414 1.33349,-0.247274 0.88869,-0.02984 1.63235,-0.209929 1.91201,-0.463021 0.25172,-0.227801 0.62689,-0.405816 0.83371,-0.395587 0.22906,0.01132 0.16921,0.112961 -0.15312,0.260022 -0.47492,0.216681 -0.46136,0.234471 0.13229,0.173562 0.42481,-0.04359 0.63103,-0.207608 0.57641,-0.458462 -0.0599,-0.275011 -0.001,-0.308248 0.1989,-0.112327 0.18155,0.177927 0.92777,0.211318 2.06942,0.0926 0.98201,-0.102118 1.89317,-0.119647 2.0248,-0.03895 0.13468,0.08257 0.14573,-0.0047 0.0253,-0.199623 -0.15552,-0.251624 -0.11243,-0.282927 0.15755,-0.114466 0.51028,0.318407 1.03307,0.37702 1.03307,0.115826 0,-0.119022 0.23813,-0.154133 0.52917,-0.07802 0.29104,0.07611 0.52916,0.243557 0.52916,0.372105 0,0.329946 0.9913,0.291664 1.2002,-0.04635 0.0952,-0.15404 0.48918,-0.232023 0.87551,-0.173296 0.38633,0.05873 0.56373,0.05892 0.39422,5.29e-4 -0.46715,-0.161285 -0.65837,-0.870069 -0.23473,-0.870069 0.20159,0 0.41208,0.13667 0.46776,0.303712 0.11572,0.347136 2.85328,-0.196273 2.85328,-0.566377 0,-0.433623 0.88732,-0.528426 1.31587,-0.140589 0.49993,0.452429 2.91746,0.565568 2.91746,0.136532 0,-0.146695 -0.5363,-0.246432 -1.19178,-0.221641 -1.68614,0.06378 -2.16088,-0.513744 -0.50671,-0.616424 0.42485,-0.02638 0.89152,-0.114181 1.03704,-0.195132 0.2979,-0.165722 0.47515,-0.207082 1.09073,-0.254508 0.36908,-0.02844 0.37836,-0.09468 0.0662,-0.472456 -0.33144,-0.401035 -0.31242,-0.407803 0.21794,-0.07754 0.50205,0.312635 0.69993,0.299133 1.45521,-0.09929 0.48077,-0.253622 0.68028,-0.406625 0.44336,-0.340008 -0.23693,0.06662 -0.54885,0.0031 -0.69314,-0.141235 -0.379,-0.378997 -2.24884,0.01606 -2.08589,0.440709 0.0968,0.252354 -0.14782,0.301408 -0.97632,0.19576 -0.60805,-0.07754 -1.01804,-0.04702 -0.91111,0.06781 0.10694,0.114831 -0.0909,0.356835 -0.43971,0.537786 -0.79768,0.41384 -4.4316,0.614985 -4.5576,0.252273 -0.0506,-0.145521 0.32481,-0.290021 0.83413,-0.321109 2.69245,-0.164344 3.05016,-0.2061 2.73002,-0.318672 -0.19182,-0.06746 0.30607,-0.341294 1.10644,-0.608537 0.87743,-0.292973 1.08753,-0.418891 0.52917,-0.31714 -1.0684,0.194694 -4.85041,0.374544 -4.69934,0.223472 0.0557,-0.05569 0.33215,-0.13716 0.61436,-0.181041 0.2822,-0.04388 0.63216,-0.151632 0.77768,-0.23945 0.69221,-0.417732 2.02777,-0.515678 2.44288,-0.179155 0.28158,0.228277 0.36869,0.240599 0.24509,0.03467 -0.2391,-0.398402 1.11048,-1.135748 2.07879,-1.135748 0.38059,0 0.93414,-0.129593 1.2301,-0.287985 0.53378,-0.285674 2.46072,-0.780294 9.08439,-2.331837 3.89271,-0.911836 10.083256,-2.260436 11.584096,-2.523577 l 1.00077,-0.175462 -0.0285,5.176267 c -0.0157,2.846946 -0.12844,5.114509 -0.25056,5.039032 -0.12213,-0.07548 -0.28235,0.01233 -0.35605,0.195143 -0.10649,0.264136 -0.13829,0.264475 -0.15489,0.0016 -0.0324,-0.513152 -0.54954,-0.389687 -0.55411,0.132291 -0.003,0.35459 -0.0564,0.380376 -0.22776,0.110107 -0.18012,-0.284144 -0.25505,-0.271256 -0.38452,0.06615 -0.0885,0.230484 -0.34314,0.419061 -0.56599,0.419061 -0.22285,0 -0.42006,0.119062 -0.43825,0.264583 -0.0182,0.145521 -0.0506,0.413412 -0.0721,0.595313 -0.0215,0.181901 -0.25665,0.292999 -0.52265,0.246888 -0.28959,-0.0502 -0.41364,0.02942 -0.30918,0.198437 0.24518,0.396701 -0.19383,0.35092 -1.08329,-0.112966 l -0.75785,-0.395246 0.7276,-0.0016 c 0.40018,-7.94e-4 0.72761,-0.113856 0.72761,-0.251021 0,-0.137165 -0.23813,-0.203533 -0.52917,-0.147484 -0.29104,0.05605 -0.52917,0.0158 -0.52917,-0.08948 0,-0.290951 1.62776,-0.842917 1.93174,-0.655044 0.1567,0.09685 0.18423,0.03141 0.0668,-0.158679 -0.10997,-0.177924 -0.36268,-0.261051 -0.56158,-0.184727 -0.1989,0.07633 -0.42879,0.03011 -0.51088,-0.102698 -0.0821,-0.13281 -0.32401,-0.174403 -0.53764,-0.09243 -0.21362,0.08198 -0.3884,0.0027 -0.3884,-0.176245 0,-0.242416 -0.11404,-0.232777 -0.44766,0.03784 -0.258426,0.209619 -0.368136,0.230534 -0.259536,0.04948 0.10613,-0.176927 -0.1024,-0.604187 -0.47837,-0.980162 -0.63131,-0.631309 -0.93748,-1.418432 -0.42966,-1.104578 0.13027,0.08051 0.30063,-0.01979 0.37857,-0.222898 0.0839,-0.218744 -0.0666,-0.423743 -0.36915,-0.502875 -0.28097,-0.07348 -0.51086,-0.03919 -0.51086,0.07618 0,0.216821 -2.04484,0.602909 -2.51354,0.474583 -0.14552,-0.03984 -0.23187,-0.170585 -0.19188,-0.290542 0.04,-0.119956 -0.0574,-0.137678 -0.21648,-0.03938 -0.15905,0.0983 -0.2188,0.362112 -0.13279,0.586256 0.12255,0.319371 0.0783,0.342699 -0.20474,0.107826 -0.19862,-0.164841 -0.40971,-0.253971 -0.46908,-0.198065 -0.0594,0.05591 -1.00092,0.179062 -2.09232,0.273683 -1.09141,0.09462 -2.34157,0.277135 -2.77813,0.40559 -0.43656,0.128458 -1.98437,0.494168 -3.43958,0.812694 -1.45521,0.318527 -2.96243,0.799171 -3.34938,1.068099 -0.38695,0.268928 -1.27992,0.620361 -1.98437,0.780963 -0.70446,0.160599 -1.48758,0.403167 -1.74027,0.539033 -0.25268,0.135869 -0.848,0.248856 -1.32291,0.251084 -0.58475,0.0028 -0.74761,0.07748 -0.50451,0.231511 0.45336,0.287266 0.29918,0.367821 -1.8606,0.972132 -0.97142,0.271804 -1.71069,0.584025 -1.64283,0.693825 0.0679,0.109799 -0.20891,0.28099 -0.61504,0.380423 -0.40614,0.09943 -0.81112,0.291444 -0.89997,0.426693 -0.26538,0.403969 -7.45382,2.931525 -8.2447,2.898947 -0.2578,-0.01061 -0.3996,0.09255 -0.31511,0.229264 0.0845,0.136713 -0.002,0.249304 -0.19272,0.250201 -0.19049,7.94e-4 -0.70353,0.194299 -1.14009,0.429784 -0.43657,0.235487 -2.28204,0.935077 -4.10105,1.554649 -1.819006,0.619572 -4.140725,1.428414 -5.159371,1.797426 -1.838375,0.665967 -7.252187,2.312829 -9.789584,2.977951 -0.727604,0.190728 -2.326275,0.41555 -3.5526,0.499608 -2.325021,0.159385 -3.228973,0.411887 -1.474484,0.411887 1.215909,0 1.041694,0.33259 -0.194026,0.370417 -1.037292,0.03175 -1.209353,0.750578 -0.227997,0.9525 0.97645,0.200911 0.961091,0.723106 -0.02698,0.91735 -0.480651,0.09449 -1.112036,0.273135 -1.403078,0.396984 -0.980051,0.417052 -1.584365,0.607303 -2.181768,0.686866 -0.996521,0.132717 -1.669277,0.406977 -1.534247,0.625462 0.07047,0.114022 -0.158014,0.152614 -0.507743,0.08576 -0.555678,-0.106225 -0.615554,-0.04387 -0.474787,0.494419 0.08859,0.338783 0.205695,0.482129 0.260223,0.318545 0.06954,-0.208616 0.414567,-0.173527 1.155467,0.117509 0.59545,0.233897 1.003779,0.551876 0.935887,0.728803 -0.09072,0.236395 0.184068,0.251111 1.113263,0.05962 0.678538,-0.13984 1.561127,-0.239699 1.961309,-0.221914 0.400183,0.01778 0.727604,-0.08488 0.727604,-0.228142 0,-0.143267 0.172892,-0.194138 0.384205,-0.113049 0.211314,0.08109 0.538736,0.05093 0.727604,-0.06701 0.637659,-0.398198 1.078957,-0.328493 1.592342,0.251511 0.281141,0.317624 0.444076,0.442491 0.362079,0.277479 -0.187944,-0.378222 1.278483,-1.00601 1.843469,-0.789202 0.231706,0.08891 0.580993,0.0019 0.776192,-0.193244 0.195199,-0.195199 0.717148,-0.333359 1.159886,-0.30702 0.442738,0.02633 0.751118,-0.03926 0.685287,-0.145775 -0.06583,-0.106515 0.06577,-0.264832 0.292436,-0.351811 0.226668,-0.08698 0.343104,-0.269824 0.258747,-0.406318 -0.08436,-0.136493 -0.01397,-0.334325 0.156403,-0.439623 0.193468,-0.119571 0.238897,-0.07677 0.120991,0.114009 -0.186907,0.302424 0.259519,0.418174 1.231506,0.319301 0.254661,-0.0259 0.463021,0.09433 0.463021,0.267187 0,0.204542 0.263742,0.261541 0.7553,0.163227 0.455076,-0.09101 0.970251,-5.29e-4 1.29607,0.227708 0.473292,0.331507 0.560245,0.328007 0.696875,-0.02805 0.08586,-0.223747 0.04664,-0.339156 -0.08716,-0.256465 -0.133797,0.08269 -0.312971,0.03757 -0.398158,-0.100267 -0.08519,-0.13784 -0.01582,-0.336566 0.154146,-0.441613 0.375459,-0.232048 1.086728,0.663784 0.904362,1.139028 -0.0714,0.186076 -5.3e-4,0.33832 0.157313,0.33832 0.157924,0 0.224867,0.238125 0.148757,0.529167 -0.07611,0.291042 -0.03046,0.529167 0.101433,0.529167 0.131897,0 0.239813,0.185621 0.239813,0.41249 0,0.22687 0.124844,0.335331 0.277431,0.241028 0.189667,-0.117221 0.179451,-0.28952 -0.03229,-0.544656 -0.260863,-0.314319 -0.12061,-0.354057 0.889056,-0.251891 0.852799,0.08629 1.238459,0.01789 1.336267,-0.236992 0.106336,-0.277106 -0.09746,-0.326782 -0.899371,-0.219224 -0.957215,0.128392 -1.835674,-0.209489 -1.835674,-0.706051 0,-0.167666 2.062601,-0.792686 3.307291,-1.002189 0.291042,-0.04899 0.568855,-0.204686 0.617361,-0.346 0.105759,-0.308102 1.545172,-0.346242 1.730817,-0.04586 0.207075,0.335053 -0.332534,1.021244 -0.56224,0.714971 -0.257347,-0.343131 -0.948211,-0.489241 -0.742955,-0.157128 0.08595,0.13907 0.0435,0.322556 -0.09434,0.407744 -0.13784,0.08519 -0.325403,0.03388 -0.416806,-0.114009 -0.0914,-0.147894 -0.298979,-0.268899 -0.461277,-0.268899 -0.162298,0 -0.01545,0.297656 0.326318,0.661458 0.607341,0.646483 1.250723,0.922219 0.926042,0.396875 -0.08994,-0.145521 0.08946,-0.264583 0.398653,-0.264583 0.309198,0 0.78057,-0.116882 1.0475,-0.259739 0.3604,-0.192881 0.52405,-0.158829 0.63576,0.132292 0.10596,0.276116 -0.029,0.39203 -0.4566,0.39203 -0.33387,0 -0.889959,0.301165 -1.235764,0.669256 -0.345803,0.368091 -0.783275,0.609954 -0.972161,0.537472 -0.188886,-0.07248 -0.34343,-0.01646 -0.34343,0.124492 0,0.341587 0.989516,0.33044 1.103808,-0.01244 0.126442,-0.379325 1.274027,0.469858 1.177437,0.871268 -0.0428,0.177916 -0.0321,0.24683 0.0238,0.153138 0.14102,-0.236424 1.13457,0.04835 1.13457,0.325197 0,0.123981 -0.19812,0.149391 -0.44028,0.05647 -0.29603,-0.113602 -0.3776,-0.06754 -0.24896,0.140594 0.10779,0.174421 0.0401,0.318384 -0.15504,0.32979 -0.573295,0.03351 -1.190255,0.176197 -2.193555,0.507315 -0.524005,0.172939 -1.132605,0.245411 -1.352442,0.161052 -0.219837,-0.08436 -0.330655,-0.04166 -0.246261,0.0949 0.224189,0.362744 -0.655902,0.704824 -1.648738,0.640842 -0.59455,-0.03831 -0.804175,0.03982 -0.676815,0.252262 0.101476,0.16927 -0.01693,0.144359 -0.26316,-0.05536 -0.388344,-0.315013 -0.447656,-0.301662 -0.447656,0.100767 0,0.382526 0.162663,0.437493 0.927428,0.313388 0.558726,-0.09067 1.208593,-0.0046 1.634675,0.216424 0.388986,0.201808 0.833647,0.288806 0.988134,0.193328 0.154488,-0.09548 -0.0036,-0.240757 -0.351316,-0.322842 l -0.632203,-0.149243 0.671568,-0.305986 c 0.664972,-0.302982 1.019826,-0.304043 1.788798,-0.0053 0.218281,0.08479 0.829159,0.196268 1.357503,0.247734 0.90839,0.08849 0.94605,0.06157 0.69252,-0.494876 -0.22507,-0.493964 -0.32547,-0.531109 -0.62525,-0.231325 -0.196424,0.196421 -0.610926,0.290761 -0.921118,0.209645 -0.490437,-0.128254 -0.508024,-0.178806 -0.13485,-0.387644 0.236024,-0.132085 0.537086,-0.17344 0.669025,-0.0919 0.13194,0.08154 0.282093,0.02164 0.333683,-0.133114 0.0516,-0.154755 0.29919,-0.202552 0.55024,-0.106215 0.25105,0.09633 0.39045,0.281967 0.30976,0.412512 -0.0807,0.130545 0.15813,0.353245 0.53069,0.494893 0.60102,0.228507 0.9876,0.848786 0.47894,0.768471 -0.10914,-0.01722 -0.43656,-0.0097 -0.7276,0.01678 -0.4981,0.04528 -0.49482,0.06193 0.0559,0.283607 0.37864,0.15241 1.07883,0.106407 1.98437,-0.130374 0.76961,-0.201236 1.49471,-0.272912 1.61135,-0.159279 0.2668,0.259937 1.54647,0.03277 1.37533,-0.244152 -0.0694,-0.112337 0.10648,-0.265105 0.39091,-0.339484 0.28443,-0.07438 0.50712,-0.05815 0.49486,0.03607 -0.0696,0.534855 0.0868,0.83276 0.43725,0.83276 0.21828,0 0.39688,-0.178593 0.39688,-0.396875 0,-0.218281 0.11906,-0.396875 0.26458,-0.396875 0.14552,0 0.26458,0.161507 0.26458,0.358902 0,0.228598 0.28797,0.348673 0.79315,0.330729 0.44274,-0.01572 0.79341,-0.174286 0.79375,-0.358902 2.6e-4,-0.181901 0.11967,-0.330729 0.26519,-0.330729 0.14552,0 0.26458,0.228203 0.26458,0.507119 0,0.278913 0.14883,0.564523 0.33073,0.634688 0.1819,0.07016 0.028,0.102396 -0.34192,0.07163 -0.36996,-0.03077 -0.82395,-0.14945 -1.00886,-0.263734 -0.19926,-0.12315 -0.5496,-0.01468 -0.86009,0.266316 -0.45296,0.409919 -0.50127,0.415166 -0.35683,0.03876 0.14288,-0.372324 0.0201,-0.412726 -0.8485,-0.279088 -0.55857,0.08594 -1.19429,0.247079 -1.41271,0.358087 -0.21843,0.111006 -0.87328,0.240144 -1.45521,0.28697 -0.58194,0.04683 -1.2165,0.238191 -1.41013,0.425254 -0.19363,0.187063 -0.46016,0.273304 -0.59228,0.191649 -0.13212,-0.08166 -0.17814,0.01333 -0.10225,0.211087 0.0959,0.250007 -0.32819,0.504436 -1.39209,0.835096 -0.84154,0.261552 -1.79796,0.722003 -2.125382,1.023229 -0.327422,0.301225 -0.595313,0.407866 -0.595313,0.236976 0,-0.170897 -0.12609,-0.310713 -0.280199,-0.310713 -0.154109,0 -0.198728,0.131818 -0.09916,0.292928 0.12459,0.201589 -0.01429,0.230939 -0.445331,0.09413 -0.562488,-0.178527 -0.589007,-0.153783 -0.260014,0.242631 0.201497,0.24279 0.283388,0.524407 0.181978,0.625816 -0.101409,0.10141 -0.277082,0.03439 -0.390385,-0.148939 -0.149788,-0.242363 -0.391138,-0.262932 -0.884451,-0.07538 -0.373145,0.14187 -0.750219,0.186172 -0.837944,0.09845 -0.08772,-0.08772 -0.159496,0.03753 -0.159496,0.27835 0,0.306223 -0.318146,0.488717 -1.058333,0.607078 -0.582084,0.09308 -1.060157,0.302845 -1.062385,0.466148 -0.0028,0.202705 -0.06795,0.196408 -0.205422,-0.01984 -0.12146,-0.191063 -0.343712,-0.22879 -0.560073,-0.09507 -0.271587,0.167849 -0.205631,0.273754 0.271566,0.436049 0.766612,0.260726 0.919194,0.297325 1.415719,0.339587 0.214278,0.01823 0.326136,0.195776 0.249375,0.395806 -0.13675,0.356365 0.628021,0.840743 0.899227,0.569537 0.07619,-0.07619 -2.65e-4,-0.13852 -0.170159,-0.13852 -0.359506,0 -0.420066,-0.958262 -0.07408,-1.172096 0.129032,-0.07975 0.396922,0.05458 0.595312,0.298506 0.315024,0.387326 0.302064,0.421521 -0.102311,0.269975 -0.254662,-0.09544 -0.463021,-0.06648 -0.463021,0.06435 0,0.130834 0.24284,0.275926 0.539646,0.322427 0.822963,0.128934 0.590495,0.582528 -0.45013,0.878298 -0.511995,0.14552 -0.840809,0.35388 -0.730694,0.46302 0.294835,0.292233 -0.107196,0.24134 -0.731063,-0.09254 -0.315727,-0.168973 -0.47548,-0.180597 -0.381,-0.02772 0.08949,0.144791 -0.01521,0.331526 -0.232653,0.414967 -0.628182,0.241057 -0.474393,0.75823 0.165113,0.55526 0.40526,-0.128624 0.527399,-0.07861 0.44105,0.180607 -0.107794,0.323588 -0.808575,0.470131 -2.521122,0.527204 -0.326459,0.01087 -0.524272,0.131895 -0.439582,0.268925 0.08469,0.13703 0.411322,0.213683 0.725853,0.170339 0.346964,-0.04781 0.545859,0.05126 0.505727,0.251923 -0.03638,0.181901 0.04918,0.330729 0.190135,0.330729 0.140952,0 0.187746,0.178594 0.103984,0.396875 -0.105677,0.275392 0.01834,0.396875 0.405178,0.396875 0.306612,0 0.557474,0.131799 0.557474,0.292891 0,0.161089 0.174781,0.225822 0.388401,0.143846 0.213622,-0.08197 0.458774,-0.03518 0.544782,0.103984 0.08601,0.13916 -0.02924,0.253024 -0.256109,0.253024 -0.226869,0 -0.41249,0.119062 -0.41249,0.264583 0,0.145521 -0.119063,0.264583 -0.264584,0.264583 -0.145521,0 -0.234818,-0.143417 -0.198437,-0.318704 0.05859,-0.282299 -0.260866,-0.351488 -1.12448,-0.243535 -0.14552,0.0182 -0.264583,0.271198 -0.264583,0.562239 0,0.473697 0.274878,0.65287 0.859896,0.560499 0.109141,-0.01722 0.198438,0.08475 0.198438,0.226637 0,0.145521 -0.345994,0.188769 -0.793751,0.09922 -0.64385,-0.128771 -0.79375,-0.06991 -0.79375,0.311681 0,0.428832 -0.04094,0.42372 -0.46302,-0.05781 -0.446493,-0.509381 -1.12448,-0.550473 -1.12448,-0.06815 0,0.128825 0.16655,0.17032 0.370113,0.0922 0.203562,-0.07811 0.453252,-0.0075 0.554868,0.156917 0.101616,0.164417 0.47801,0.410437 0.836433,0.546708 0.360225,0.136957 0.573487,0.374285 0.476845,0.530657 -0.09616,0.155585 0.06704,0.346136 0.362651,0.423441 0.295617,0.07731 0.598906,0.300615 0.673976,0.496242 0.113676,0.296236 -4.084635,0.359413 -25.117116,0.377966 L 9e-5,79.38932 Z m 48.683336,15.486579 c 0,-0.279263 -0.507764,-0.396587 -0.658791,-0.152223 -0.0914,0.147894 0.01942,0.268899 0.246301,0.268899 0.226869,0 0.41249,-0.0525 0.41249,-0.116676 z m -0.992187,-0.587719 c -0.181901,-0.0734 -0.479557,-0.0734 -0.661459,0 -0.181901,0.0734 -0.03307,0.133453 0.33073,0.133453 0.363802,0 0.51263,-0.06005 0.330729,-0.133453 z m 1.107345,-1.384549 c 0.08051,-0.13027 -0.03152,-0.305128 -0.248968,-0.38857 -0.240152,-0.09215 -0.395356,7.94e-4 -0.395356,0.236858 0,0.427934 0.413443,0.525285 0.644324,0.151712 z m 0.678592,-2.14439 c 0,-0.145521 -0.0525,-0.264583 -0.116676,-0.264583 -0.06417,0 -0.190261,0.119062 -0.280199,0.264583 -0.08994,0.145521 -0.03743,0.264584 0.116676,0.264584 0.15411,0 0.280199,-0.119063 0.280199,-0.264584 z m 8.731248,-11.355199 c 0,-0.312259 -2.338025,-1.211636 -2.563534,-0.986124 -0.261494,0.261493 0.04447,0.453118 0.879295,0.550696 0.417009,0.04874 0.854524,0.102201 0.972253,0.118793 0.117726,0.01659 0.140466,0.14923 0.05053,0.294751 -0.08994,0.145521 0.02209,0.264583 0.248966,0.264583 0.22687,0 0.41249,-0.109214 0.41249,-0.242699 z m -4.762497,-0.551051 c 0,-0.145521 -0.12609,-0.264583 -0.280199,-0.264583 -0.15411,0 -0.206613,0.119062 -0.116676,0.264583 0.08994,0.145521 0.216027,0.264584 0.280199,0.264584 0.06417,0 0.116676,-0.119063 0.116676,-0.264584 z m 3.102253,-2.910416 c -0.0453,-0.601327 -0.63281,-0.734955 -0.63281,-0.143931 0,0.211881 0.09922,0.323916 0.220488,0.248968 0.121267,-0.07495 0.220486,-0.01019 0.220486,0.14393 0,0.15411 0.05213,0.280199 0.115847,0.280199 0.06372,0 0.09791,-0.238125 0.07599,-0.529166 z m 0.96276,0.13381 c -0.08344,-0.217445 -0.27101,-0.321625 -0.416819,-0.23151 -0.16301,0.100748 -0.12686,0.251444 0.09387,0.391305 0.481753,0.305255 0.498273,0.297085 0.322947,-0.159795 z m -3.888624,-0.519046 c 0,-0.211881 -0.10116,-0.322715 -0.224803,-0.246301 -0.12364,0.07641 -0.156302,0.249769 -0.07258,0.385236 0.213948,0.346176 0.297381,0.307197 0.297381,-0.138935 z m -19.755557,-1.21788 c 0,-0.33555 -0.830961,-0.308779 -1.322917,0.04262 -0.318849,0.227751 -0.279837,0.257831 0.198438,0.153011 0.327421,-0.07176 0.595312,-0.01553 0.595312,0.124955 0,0.140486 0.119063,0.181843 0.264583,0.09191 0.145521,-0.08994 0.264584,-0.275559 0.264584,-0.412491 z m 5.027083,0.288502 c 0,-0.140952 -0.178593,-0.187746 -0.396875,-0.103984 -0.218281,0.08376 -0.396875,0.199088 -0.396875,0.25628 0,0.05719 0.178594,0.103984 0.396875,0.103984 0.218282,0 0.396875,-0.115326 0.396875,-0.25628 z m 1.322917,-0.568698 c 0,-0.145521 -0.119062,-0.191001 -0.264583,-0.101063 -0.145521,0.08994 -0.264584,0.282583 -0.264584,0.428103 0,0.145521 0.119063,0.191 0.264584,0.101063 0.145521,-0.08994 0.264583,-0.282583 0.264583,-0.428103 z m 2.25596,-0.182256 c -0.08146,-0.08146 -0.294955,-1.69e-4 -0.474433,0.180652 -0.25936,0.261308 -0.22897,0.291698 0.148114,0.148114 0.260937,-0.09936 0.407781,-0.247303 0.326319,-0.328766 z m 12.825291,0.213484 c 0,-0.145521 -0.119062,-0.264583 -0.264583,-0.264583 -0.145521,0 -0.264584,0.119062 -0.264584,0.264583 0,0.145521 0.119063,0.264584 0.264584,0.264584 0.145521,0 0.264583,-0.119063 0.264583,-0.264584 z m 0.529167,-0.465521 c 0,-0.110516 -0.245229,-0.354086 -0.544952,-0.541266 -0.503293,-0.314314 -0.522809,-0.298955 -0.255273,0.200938 0.281245,0.52551 0.800225,0.746228 0.800225,0.340328 z m -1.5875,-0.732414 c 0,-0.21553 -0.16047,-0.311378 -0.380169,-0.227073 -0.209093,0.08024 -0.31568,0.313941 -0.236858,0.519345 0.171455,0.446804 0.617027,0.235749 0.617027,-0.292272 z M 20.873808,50.109012 c 0.202729,-0.06337 0.304192,-0.179623 0.225474,-0.258342 -0.257427,-0.257427 -2.009231,0.198749 -2.147562,0.559231 -0.107556,0.280289 0.03636,0.297127 0.709277,0.08298 0.464317,-0.147759 1.010082,-0.3205 1.212811,-0.38387 z m 1.351193,-0.07445 c 0,-0.129953 -0.195434,-0.311272 -0.434298,-0.402932 -0.363134,-0.139348 -0.379503,-0.100631 -0.0999,0.236276 0.381033,0.459116 0.534193,0.506899 0.534193,0.166656 z m 0.901318,-0.782053 c 0.07634,-0.123518 -0.244057,-0.230444 -0.71199,-0.237617 -0.693137,-0.01061 -0.752733,0.02755 -0.321619,0.205983 0.706414,0.292381 0.869375,0.297368 1.033609,0.03163 z m 47.848165,-8.946483 c -0.1819,-0.0734 -0.47956,-0.0734 -0.66146,0 -0.1819,0.0734 -0.0331,0.133453 0.33073,0.133453 0.3638,0 0.51263,-0.06005 0.33073,-0.133453 z m 1.63808,-0.177549 c 0.41799,-0.305636 0.42474,-0.352779 0.0506,-0.352779 -0.23753,0 -0.43188,0.111958 -0.43188,0.248795 0,0.136835 -0.18478,0.177888 -0.41062,0.09122 -0.23546,-0.09035 -0.34166,-0.046 -0.24897,0.103984 0.21709,0.35125 0.46557,0.329473 1.0409,-0.09122 z m 1.97321,-2.020808 c 0.4927,-0.141303 1.0277,-0.174416 1.18888,-0.07359 0.46729,0.292328 0.97197,0.308216 0.79699,0.02508 -0.088,-0.142428 -0.22646,-0.19254 -0.30764,-0.111361 -0.0812,0.08118 -0.28515,0.03345 -0.45326,-0.106071 -0.3551,-0.294712 -2.25657,-0.04792 -2.25657,0.29288 0,0.282522 -0.0522,0.283887 1.0316,-0.02695 z m 4.11647,-1.047716 c 0.0837,-0.135466 0.0128,-0.332457 -0.15755,-0.437755 -0.18464,-0.114113 -0.23916,-0.07719 -0.13496,0.09141 0.0961,0.155577 0.0252,0.343167 -0.15756,0.416866 -0.2379,0.09591 -0.2428,0.139941 -0.0173,0.15489 0.17331,0.01148 0.38361,-0.08995 0.46734,-0.225412 z m -0.98409,-0.42282 c 0.31766,-0.222496 0.99421,-0.420203 1.50345,-0.439346 0.50923,-0.01915 0.86789,-0.128637 0.79702,-0.243316 -0.0709,-0.114681 0.41661,-0.02265 1.08331,0.204521 0.66669,0.227163 1.27376,0.351435 1.34904,0.276156 0.0753,-0.07528 -0.22747,-0.216892 -0.67277,-0.314698 -0.4453,-0.0978 -0.87755,-0.287727 -0.96057,-0.422053 -0.2253,-0.364535 -1.2841,-0.295092 -2.12102,0.139107 -0.40638,0.210834 -0.82423,0.330581 -0.92856,0.266105 -0.10433,-0.06448 -0.25486,0.05263 -0.33453,0.260228 -0.0797,0.207603 -0.53862,0.42599 -1.01991,0.485304 l -0.87507,0.107844 0.80103,0.04234 c 0.44056,0.02328 1.06092,-0.139698 1.37858,-0.362194 z m 14.81436,-3.459482 c -0.0879,-0.08792 -0.31612,-0.09732 -0.50712,-0.02088 -0.21106,0.08446 -0.14837,0.147156 0.15986,0.159851 0.27891,0.01148 0.43518,-0.05104 0.34726,-0.138965 z m -9.47539,-0.708766 c -0.0606,-0.04118 -0.34837,-0.249537 -0.63941,-0.463021 -0.48948,-0.359042 -0.50193,-0.353428 -0.16604,0.07487 0.19972,0.254662 0.48745,0.463021 0.63941,0.463021 0.15195,0 0.22667,-0.03369 0.16604,-0.07487 z M 52.521668,79.113446 c -0.09269,-0.149982 0.01352,-0.194336 0.248968,-0.103984 0.458369,0.175893 0.542234,0.365538 0.16165,0.365538 -0.136933,0 -0.321712,-0.1177 -0.410618,-0.261554 z M 50.53542,77.522917 c 0,-0.145521 0.119062,-0.264584 0.264583,-0.264584 0.145521,0 0.264584,0.119063 0.264584,0.264584 0,0.145521 -0.119063,0.264583 -0.264584,0.264583 -0.145521,0 -0.264583,-0.119062 -0.264583,-0.264583 z m 1.852083,-1.5875 c -0.339169,-0.219189 -0.329551,-0.25707 0.06615,-0.260533 0.254662,-0.0021 0.463021,0.115012 0.463021,0.260533 0,0.322688 -0.02984,0.322688 -0.529167,0 z M 51.628445,73.72826 c -0.162075,-0.195289 -0.222728,-0.42703 -0.134781,-0.514975 0.08794,-0.08795 -0.09461,-0.140731 -0.405683,-0.1173 -0.372274,0.02804 -0.516075,0.171633 -0.420725,0.420108 0.120142,0.313087 0.0746,0.319193 -0.266882,0.03579 -0.22646,-0.187944 -0.370798,-0.464558 -0.320752,-0.614696 0.08138,-0.244123 0.51848,-0.282157 2.307881,-0.200822 0.792398,0.03602 0.638432,0.55322 -0.164687,0.55322 -0.586761,0 -0.64302,0.06126 -0.364479,0.396875 0.181157,0.218282 0.269846,0.396875 0.197085,0.396875 -0.07276,0 -0.264901,-0.159782 -0.426977,-0.355073 z m 2.198691,-0.822391 c -0.496033,-0.3706 -0.493239,-0.37859 0.08172,-0.233725 0.327421,0.08249 0.595312,0.255167 0.595312,0.383714 0,0.314865 -0.07796,0.297596 -0.677034,-0.149989 z m -2.087124,-0.916604 c -0.08226,-0.133091 -0.0045,-0.290343 0.172837,-0.349449 0.476353,-0.158784 1.532988,0.08776 1.532988,0.357696 0,0.309565 -1.51393,0.302247 -1.705825,-0.0083 z m 1.970408,-0.03821 c 0,-0.154109 0.119063,-0.206613 0.264583,-0.116676 0.145521,0.08994 0.264584,0.216027 0.264584,0.280199 0,0.06417 -0.119063,0.116676 -0.264584,0.116676 -0.14552,0 -0.264583,-0.12609 -0.264583,-0.280199 z m 1.008724,-1.752624 c 0.190995,-0.07643 0.419198,-0.06703 0.507119,0.02088 0.08792,0.08792 -0.06835,0.150452 -0.347266,0.138964 -0.308226,-0.0127 -0.370919,-0.07539 -0.159853,-0.15985 z m 0.843359,-0.08384 c 0,-0.145521 0.245153,-0.264583 0.544783,-0.264583 0.29963,0 0.471196,0.119062 0.381259,0.264583 -0.08994,0.145521 -0.335089,0.264584 -0.544782,0.264584 -0.209693,0 -0.38126,-0.119063 -0.38126,-0.264584 z m 1.802475,-0.180739 c 0.190994,-0.07643 0.419196,-0.06703 0.507116,0.02088 0.0879,0.08792 -0.0684,0.150453 -0.347263,0.138965 -0.308226,-0.0127 -0.37092,-0.07539 -0.159853,-0.159851 z m -3.389975,-0.348427 c -0.320929,-0.207399 -0.282956,-0.257255 0.198438,-0.260533 0.327422,-0.0021 0.595312,0.115012 0.595312,0.260533 0,0.331501 -0.280786,0.331501 -0.79375,0 z m 1.343806,-0.418923 c 0.0127,-0.308226 0.07539,-0.370919 0.159851,-0.159853 0.07643,0.190994 0.06703,0.4192 -0.02088,0.507119 -0.08792,0.08792 -0.150453,-0.06835 -0.138964,-0.347266 z m -1.476097,-0.374827 c 0.08994,-0.145521 0.282583,-0.264584 0.428104,-0.264584 0.14552,0 0.191,0.119063 0.101062,0.264584 -0.08994,0.145521 -0.282583,0.264583 -0.428103,0.264583 -0.145521,0 -0.191,-0.119062 -0.101063,-0.264583 z m 1.984375,-0.01561 c 0,-0.154109 0.119062,-0.206613 0.264583,-0.116676 0.145521,0.08994 0.264584,0.216027 0.264584,0.280199 0,0.06417 -0.119063,0.116676 -0.264584,0.116676 -0.145521,0 -0.264583,-0.12609 -0.264583,-0.280199 z M 53.71042,67.673453 c 0,-0.226968 0.195435,-0.487662 0.434298,-0.579321 0.3781,-0.145092 0.387789,-0.105958 0.07487,0.302421 -0.197686,0.257993 -0.393121,0.518687 -0.434298,0.579321 -0.04118,0.06063 -0.07487,-0.07546 -0.07487,-0.302426 z m 3.654558,-1.972937 c 0.190994,-0.07643 0.419196,-0.06703 0.507116,0.02088 0.0879,0.08792 -0.0684,0.150453 -0.347263,0.138965 -0.308226,-0.0127 -0.37092,-0.07539 -0.159853,-0.159851 z m 6.531906,-2.132806 c 0.72684,-0.466556 1.71979,-0.520568 1.71979,-0.09355 0,0.09736 -0.20836,0.184674 -0.46302,0.194019 -0.25467,0.0093 -0.82021,0.105201 -1.25677,0.213011 l -0.79376,0.196019 z m 4.54799,-1.94998 c -0.2635,-0.153273 -0.6423,-0.21605 -0.84177,-0.139506 -0.24604,0.09441 -0.33119,-0.02432 -0.26477,-0.369171 0.0538,-0.279588 -0.0322,-0.588775 -0.19131,-0.687078 -0.16307,-0.100785 -0.21434,-0.05761 -0.11754,0.099 0.0944,0.152754 -0.016,0.349744 -0.24535,0.437755 -0.62815,0.241044 -0.82098,0.184994 -0.37371,-0.108627 0.33107,-0.217339 0.29817,-0.287589 -0.19844,-0.423683 -0.32742,-0.08973 -0.59531,-0.32785 -0.59531,-0.529158 0,-0.456216 0.70194,-0.484265 0.8831,-0.03529 0.0787,0.195141 0.14202,0.138221 0.15434,-0.13884 0.0422,-0.947476 2.6678,-1.225672 4.58495,-0.485788 0.96944,0.374131 0.91909,0.543229 -0.13229,0.444309 -0.47294,-0.04449 -0.592,-0.0291 -0.26458,0.03421 0.32742,0.06331 0.59531,0.227962 0.59531,0.365892 0,0.400759 -1.64334,-6.6e-5 -2.03429,-0.496176 -0.30461,-0.386561 -0.31149,-0.348146 -0.048,0.268095 0.16917,0.395621 0.42762,0.645115 0.57435,0.554432 0.14672,-0.09068 0.19174,-0.04347 0.10004,0.104912 -0.0917,0.148381 -0.46729,0.236794 -0.83464,0.196469 -0.36734,-0.04032 -0.66789,0.03526 -0.66789,0.167971 0,0.241504 0.31404,0.324683 1.05833,0.280331 0.26879,-0.01601 0.28961,0.02384 0.0645,0.123542 -0.1828,0.08095 -0.26507,0.256085 -0.18282,0.389176 0.20114,0.32544 -0.42783,0.292962 -1.02222,-0.05279 z m -0.48848,-1.790065 c -0.16239,-0.260043 -0.47337,-0.472805 -0.69104,-0.472805 -0.33115,0 -0.32526,0.05157 0.0361,0.315802 0.23753,0.173691 0.43188,0.458528 0.43188,0.632976 0,0.174447 0.11662,0.245096 0.25916,0.157003 0.16545,-0.102256 0.1524,-0.331136 -0.0361,-0.632976 z m 1.09986,0.232752 c 0,-0.145521 -0.12609,-0.264584 -0.2802,-0.264584 -0.15411,0 -0.20661,0.119063 -0.11667,0.264584 0.0899,0.145521 0.21602,0.264583 0.28019,0.264583 0.0642,0 0.11668,-0.119062 0.11668,-0.264583 z m -3.96875,1.314614 c 0,-0.140954 0.17859,-0.256281 0.39687,-0.256281 0.21829,0 0.39688,0.04679 0.39688,0.103984 0,0.05719 -0.17859,0.172516 -0.39688,0.256281 -0.21828,0.08376 -0.39687,0.03697 -0.39687,-0.103984 z m -1.32292,-0.673569 c -0.6109,-0.368072 -0.61595,-0.386217 -0.0661,-0.237378 0.32742,0.08864 0.59532,0.04522 0.59532,-0.09648 0,-0.30466 0.9994,-0.08742 1.21691,0.264525 0.0872,0.141134 -0.15321,0.167063 -0.57275,0.06177 -0.51141,-0.128355 -0.66824,-0.09273 -0.53572,0.121687 0.23797,0.385048 0.17096,0.373054 -0.63761,-0.114118 z M 60.192714,60.325 c -0.0899,-0.145521 -0.0374,-0.264583 0.11667,-0.264583 0.15411,0 0.2802,0.119062 0.2802,0.264583 0,0.145521 -0.0525,0.264583 -0.11667,0.264583 -0.0642,0 -0.19026,-0.119062 -0.2802,-0.264583 z m 12.05809,-0.902486 c -0.47129,-0.567864 0.0469,-0.670353 0.57576,-0.113876 0.34796,0.366127 0.37245,0.487195 0.0985,0.487195 -0.20046,0 -0.5039,-0.167994 -0.6743,-0.373319 z m -13.01581,-0.590888 c -0.32226,-0.388303 -0.29376,-0.413682 0.26532,-0.236236 0.40974,0.130045 0.56767,0.103814 0.45663,-0.07585 -0.0934,-0.151056 -0.0487,-0.349432 0.0992,-0.440835 0.1479,-0.0914 0.2689,-0.02553 0.2689,0.146407 0,0.232944 0.10113,0.228669 0.39688,-0.01678 0.2814,-0.233545 0.39687,-0.241503 0.39687,-0.02736 0,0.410506 1.3617,0.08086 1.76864,-0.428167 0.17239,-0.215628 0.61746,-0.409708 0.98906,-0.431287 0.3716,-0.02156 0.73206,-0.186052 0.80103,-0.365501 0.0715,-0.186108 0.31885,-0.252039 0.5757,-0.153474 0.30938,0.118719 0.38907,0.07373 0.25465,-0.143769 -0.10761,-0.174109 -0.3355,-0.2993 -0.50643,-0.278199 -0.72192,0.08912 -1.01995,-0.0475 -0.88287,-0.404728 0.11627,-0.303003 -0.0664,-0.354801 -0.89774,-0.254592 -0.62555,0.0754 -1.04371,0.01579 -1.04371,-0.14877 0,-0.151017 0.11907,-0.289457 0.26459,-0.307647 0.5257,-0.06571 0.66678,-0.110705 0.98916,-0.31545 0.22193,-0.140954 0.27923,-0.08183 0.17753,0.183184 -0.11053,0.288042 -0.01,0.354614 0.3816,0.252254 0.34794,-0.09099 0.48373,-0.290102 0.39282,-0.576008 -0.10544,-0.331581 -0.0784,-0.352481 0.11215,-0.08667 0.2054,0.286547 0.32529,0.27608 0.65889,-0.05752 0.22429,-0.224292 0.80715,-0.475488 1.29522,-0.558213 1.39446,-0.236349 1.83315,-0.414681 1.66989,-0.678833 -0.0857,-0.138745 0.15138,-0.129675 0.54753,0.02093 0.70972,0.269836 1.29822,0.132329 1.06294,-0.248367 -0.0711,-0.115009 0.18254,-0.174881 0.56361,-0.133051 0.38107,0.04183 0.78005,0.21716 0.88664,0.389621 0.14509,0.234751 0.22292,0.226184 0.30968,-0.0341 0.0747,-0.224192 0.64523,-0.36441 1.60645,-0.394829 1.37744,-0.04359 1.45784,-0.01447 1.05951,0.383865 -0.43869,0.43869 -0.51403,0.468987 -1.32873,0.534308 -0.38616,0.03096 -0.39924,0.07747 -0.0788,0.280199 0.21134,0.133691 0.47787,0.185213 0.59229,0.114498 0.11442,-0.07072 0.13713,0.0562 0.0505,0.282041 -0.10289,0.268134 -0.007,0.410617 0.27592,0.410617 0.23841,0 0.49725,-0.166182 0.57519,-0.369292 0.15702,-0.409178 1.54212,-0.417915 1.9463,-0.01228 0.15523,0.155784 -0.11351,0.27559 -0.71654,0.319432 -0.53071,0.03859 -1.03394,0.181819 -1.11829,0.318293 -0.0844,0.136478 -0.65844,0.328907 -1.27577,0.42762 -0.61732,0.09872 -1.17947,0.271801 -1.2492,0.384635 -0.0697,0.112837 0.14126,0.149268 0.46888,0.08096 0.56517,-0.117838 0.5618,-0.1035 -0.0658,0.279881 -0.3638,0.222245 -0.86608,0.408302 -1.11618,0.413457 -0.293,0.006 -0.40076,0.149973 -0.303,0.404733 0.0834,0.217445 0.2767,0.318111 0.42945,0.223702 0.16773,-0.103658 0.19853,-0.0435 0.0778,0.15189 -0.14903,0.241138 -0.31929,0.201009 -0.6685,-0.157557 -0.2577,-0.264605 -0.42408,-0.559292 -0.36972,-0.654862 0.0543,-0.09557 -0.15166,-0.108263 -0.4578,-0.0282 -0.32627,0.08532 -0.65322,-0.007 -0.79006,-0.223113 -0.18657,-0.294637 -0.23426,-0.275687 -0.2375,0.09435 -0.003,0.287983 0.19599,0.463021 0.52511,0.463021 0.29105,0 0.52917,0.119062 0.52917,0.264583 0,0.145521 -0.23812,0.264583 -0.52917,0.264583 -0.32603,0 -0.53072,0.17774 -0.53321,0.463021 -0.003,0.355013 -0.0563,0.380601 -0.22802,0.109694 -0.26962,-0.42535 -0.57324,-0.452956 -0.80778,-0.07345 -0.17733,0.286928 -2.13515,0.702681 -2.13515,0.453409 0,-0.07607 0.26789,-0.395761 0.59531,-0.71043 0.50795,-0.48817 0.51766,-0.528188 0.0661,-0.272698 -0.29104,0.164687 -0.79706,0.491558 -1.12448,0.726381 -0.34901,0.250312 -0.59531,0.306846 -0.59531,0.136647 0,-0.205721 -0.20714,-0.21155 -0.71095,-0.02 -0.39102,0.148664 -1.3435,0.304442 -2.11661,0.346175 -0.77312,0.04173 -1.48507,0.155273 -1.58211,0.252315 -0.27915,0.279148 -0.52517,0.209518 -0.91367,-0.258599 z m 5.94819,-1.020168 c 0.0838,-0.218281 0.037,-0.396875 -0.10398,-0.396875 -0.14096,0 -0.25628,0.178594 -0.25628,0.396875 0,0.218282 0.0468,0.396875 0.10398,0.396875 0.0572,0 0.17252,-0.178593 0.25628,-0.396875 z m 1.62411,-1.190625 c -0.26339,-0.291041 -0.5795,-0.529166 -0.70246,-0.529166 -0.28942,0 0.62605,1.0072 0.94191,1.036285 0.13169,0.01213 0.0239,-0.216077 -0.23945,-0.507119 z m -0.83155,-0.926041 c 0.47129,-0.471287 0.81043,-0.526217 0.53918,-0.08733 -0.13043,0.211045 -0.0443,0.25314 0.27061,0.132292 0.25405,-0.09749 0.57124,-0.177255 0.70486,-0.177255 0.13362,0 0.2427,-0.0893 0.24241,-0.198437 -2.6e-4,-0.109141 -0.41701,-0.228132 -0.92604,-0.264425 -0.50903,-0.03629 -0.92551,0.05719 -0.92551,0.207745 0,0.186415 -0.15948,0.188381 -0.49996,0.0062 -0.40264,-0.21549 -0.52658,-0.165798 -0.63669,0.255273 -0.1683,0.643583 0.63168,0.725437 1.23114,0.125971 z m 6.45131,-1.045634 c -0.18045,-0.195913 -0.38762,-0.280299 -0.46038,-0.187528 -0.0728,0.09277 -0.25136,0.270586 -0.39688,0.395147 -0.15601,0.133538 -0.0746,0.165351 0.19844,0.07753 0.25466,-0.08192 0.46302,-0.0266 0.46302,0.122947 0,0.149542 0.11788,0.199043 0.26195,0.11 0.1649,-0.101915 0.1404,-0.293857 -0.0662,-0.518094 z m -14.28486,3.615881 c -0.25466,-0.05253 -0.46302,-0.208108 -0.46302,-0.345731 0,-0.138544 0.31283,-0.171707 0.70092,-0.0743 0.45321,0.113747 0.64131,0.07947 0.53225,-0.097 -0.14566,-0.235683 1.14276,-0.686554 1.35781,-0.475152 0.19184,0.188573 -1.71457,1.077452 -2.12796,0.992182 z m 11.33819,-0.01259 c -0.075,-0.121269 0.0318,-0.220488 0.23733,-0.220488 0.20548,0 0.31228,0.09922 0.23733,0.220488 -0.075,0.121253 -0.18175,0.220472 -0.23733,0.220472 -0.0556,0 -0.16238,-0.09922 -0.23733,-0.220486 z m -8.36163,-0.788546 c 0,-0.128355 0.36942,-0.243874 0.82092,-0.256712 0.9373,-0.02665 0.81191,0.271418 -0.16947,0.402841 -0.3583,0.04798 -0.65145,-0.01777 -0.65145,-0.146129 z m -2.11667,-1.372232 c 0,-0.145521 0.12609,-0.264584 0.2802,-0.264584 0.15411,0 0.20662,0.119063 0.11668,0.264584 -0.0899,0.145521 -0.21603,0.264583 -0.2802,0.264583 -0.0642,0 -0.11668,-0.119062 -0.11668,-0.264583 z m 16.08998,-0.709911 c 0.19099,-0.07643 0.4192,-0.06703 0.50712,0.02088 0.0879,0.08792 -0.0683,0.150453 -0.34727,0.138965 -0.30823,-0.0127 -0.37092,-0.07539 -0.15985,-0.159851 z M 48.94792,55.009415 c 0,-0.149542 -0.110837,-0.203396 -0.246301,-0.119674 -0.135467,0.08373 -0.313375,0.0437 -0.395356,-0.08895 -0.256008,-0.414232 0.661299,-0.579363 1.051391,-0.18927 0.3175,0.3175 0.314692,0.391801 -0.01966,0.520102 -0.21454,0.08233 -0.390075,0.02733 -0.390075,-0.122208 z m 8.893744,-0.125079 c -0.0964,-0.251164 0.0309,-0.380169 0.37498,-0.380169 0.60205,0 0.69781,0.404648 0.14588,0.616444 -0.20624,0.07914 -0.44063,-0.02718 -0.52086,-0.236275 z M 47.230795,54.499851 c 0.0914,-0.147894 0.277024,-0.2004 0.412491,-0.116676 0.366987,0.226809 0.298558,0.385575 -0.16619,0.385575 -0.22687,0 -0.337704,-0.121005 -0.246301,-0.268899 z m 44.265439,-2.557674 c 0.19099,-0.07643 0.4192,-0.06703 0.50712,0.02088 0.0879,0.08792 -0.0684,0.150452 -0.34727,0.138964 -0.30823,-0.0127 -0.37092,-0.07539 -0.15985,-0.15985 z M 9.659959,51.324851 c 0.0914,-0.147894 0.277025,-0.2004 0.41249,-0.116676 0.366989,0.226809 0.298559,0.385575 -0.166188,0.385575 -0.22687,0 -0.337705,-0.121005 -0.246302,-0.268899 z M 68.527084,50.8 c -0.30408,-0.196517 -0.2082,-0.257426 0.41011,-0.260533 0.44384,-0.0021 0.92009,-0.10973 1.05833,-0.238897 0.40354,-0.377031 1.44198,-0.619739 1.44198,-0.337021 0,0.180586 -2.21791,1.155925 -2.49453,1.096984 -0.0105,-0.0022 -0.1976,-0.119468 -0.41589,-0.260533 z m 32.808336,-0.785873 c 0,-0.115909 0.20836,-0.284237 0.46302,-0.374063 0.25467,-0.08983 0.61185,-0.232698 0.79375,-0.317492 0.18191,-0.08479 0.33073,-0.05129 0.33073,0.07446 0,0.125744 -0.35718,0.363448 -0.79375,0.528233 -0.43656,0.164783 -0.79375,0.204772 -0.79375,0.08887 z m 3.43959,-0.280763 c 0,-0.295611 0.18373,-0.607975 0.40828,-0.694145 0.55281,-0.212132 0.73339,0.02304 0.52409,0.682509 -0.22423,0.70649 -0.93237,0.715327 -0.93237,0.01164 z m -5.341276,-1.23077 c 0.19099,-0.07643 0.4192,-0.06703 0.50712,0.02087 0.0879,0.08792 -0.0684,0.150453 -0.34727,0.138965 -0.30823,-0.0127 -0.37092,-0.07539 -0.15985,-0.159851 z M 25.135418,47.889583 c 0,-0.145521 0.12609,-0.264583 0.280199,-0.264583 0.154108,0 0.206613,0.119062 0.116676,0.264583 -0.08994,0.145521 -0.216026,0.264584 -0.280198,0.264584 -0.06417,0 -0.116677,-0.119063 -0.116677,-0.264584 z M 93.397924,46.83125 c 0.21828,-0.141065 0.51594,-0.256479 0.66146,-0.256479 0.14552,0 0.086,0.115414 -0.1323,0.256479 -0.21828,0.141065 -0.51593,0.256479 -0.66145,0.256479 -0.14552,0 -0.086,-0.115414 0.13229,-0.256479 z m -3.83646,-0.529167 c 0.0899,-0.145521 0.34211,-0.264583 0.56039,-0.264583 0.21829,0 0.3233,0.119062 0.23336,0.264583 -0.0899,0.145521 -0.34211,0.264584 -0.56039,0.264584 -0.21829,0 -0.3233,-0.119063 -0.23336,-0.264584 z m 2.97215,-0.561998 c 0.17948,-0.180822 0.39297,-0.262115 0.47443,-0.180653 0.0815,0.08146 -0.0654,0.229407 -0.32631,0.328766 -0.37709,0.143584 -0.40748,0.113194 -0.14812,-0.148113 z m 8.133206,-3.682889 c -0.086,-0.139166 0.0888,-0.253029 0.3884,-0.253029 0.63886,0 0.70331,0.147137 0.15639,0.357013 -0.21363,0.08197 -0.45878,0.03518 -0.54479,-0.103984 z M 101.46771,41.275 c -0.0899,-0.145521 -0.0374,-0.264583 0.11668,-0.264583 0.15411,0 0.2802,0.119062 0.2802,0.264583 0,0.145521 -0.0525,0.264583 -0.11668,0.264583 -0.0642,0 -0.19026,-0.119062 -0.2802,-0.264583 z m -1.43121,-0.244155 c -0.205086,-0.129828 -0.552036,-0.167304 -0.771006,-0.08328 -0.2487,0.09544 -0.33023,0.04291 -0.21722,-0.139936 0.0995,-0.160991 0.38692,-0.298871 0.63871,-0.306398 0.2518,-0.0075 0.934066,-0.08892 1.516146,-0.18088 0.58208,-0.09195 0.97281,-0.07729 0.86827,0.03258 -0.10453,0.109871 -0.46172,0.228028 -0.79375,0.262567 -1.00182,0.104219 -1.03781,0.120592 -0.86827,0.39492 0.19984,0.323342 0.11312,0.328091 -0.37288,0.02043 z m -1.082326,-1.388467 c 0,-0.09758 0.36288,-0.257117 0.80639,-0.354531 0.695266,-0.152704 0.759076,-0.234164 0.463026,-0.591074 -0.311166,-0.375126 -0.268146,-0.375068 0.45855,5.29e-4 0.57721,0.298408 0.93493,0.340138 1.27661,0.148926 0.26108,-0.146108 0.54411,-0.196239 0.62894,-0.111403 0.0848,0.08484 0.28427,0.05094 0.44318,-0.07534 0.15891,-0.126275 0.52705,-0.133609 0.81809,-0.0163 0.40856,0.164674 0.43009,0.217527 0.0945,0.231883 -0.23909,0.01024 -0.50325,0.197192 -0.58701,0.415473 -0.0838,0.218281 -0.36439,0.388506 -0.62362,0.378277 -0.41257,-0.01627 -0.40536,-0.04694 0.0578,-0.245985 0.46891,-0.201496 0.44631,-0.229508 -0.19844,-0.245986 -0.41561,-0.01064 -0.7276,0.123216 -0.7276,0.312131 0,0.224494 -0.46743,0.33073 -1.45521,0.33073 -0.800366,0 -1.455206,-0.07984 -1.455206,-0.177414 z M 56.620837,38.89375 c 0,-0.145521 0.12609,-0.264583 0.280199,-0.264583 0.154109,0 0.206613,0.119062 0.116676,0.264583 -0.08994,0.145521 -0.216027,0.264583 -0.280199,0.264583 -0.06417,0 -0.116676,-0.119062 -0.116676,-0.264583 z m 46.701633,-1.062649 c 0.0914,-0.147894 0.27702,-0.2004 0.41249,-0.116676 0.36698,0.226809 0.29855,0.385575 -0.16619,0.385575 -0.22687,0 -0.33771,-0.121005 -0.2463,-0.268899 z M 62.970834,36.777083 c 0.21829,-0.141065 0.51594,-0.256479 0.66146,-0.256479 0.14552,0 0.086,0.115414 -0.13229,0.256479 -0.21828,0.141066 -0.51594,0.256479 -0.66146,0.256479 -0.14552,0 -0.086,-0.115413 0.13229,-0.256479 z m 7.35873,-0.974489 c 0.19099,-0.07643 0.4192,-0.06703 0.50712,0.02088 0.0879,0.08792 -0.0684,0.150453 -0.34727,0.138965 -0.30822,-0.0127 -0.37092,-0.07539 -0.15985,-0.159851 z m 3.48919,-0.187828 c 0,-0.05719 0.18478,-0.174889 0.41062,-0.261554 0.23546,-0.09035 0.34166,-0.046 0.24897,0.103984 -0.15538,0.25141 -0.65959,0.371859 -0.65959,0.15757 z m 24.99225,-0.178202 c -0.0959,-0.155202 -0.11766,-0.338931 -0.0483,-0.408287 0.0694,-0.06936 0.1966,0.05763 0.28277,0.282187 0.17891,0.466224 0.0264,0.548232 -0.23447,0.1261 z M 75.141674,34.925 c 0,-0.145521 0.26789,-0.26276 0.59531,-0.260533 0.48139,0.0033 0.51937,0.05313 0.19844,0.260533 -0.51297,0.331502 -0.79375,0.331502 -0.79375,0 z m 3.12539,0.08384 c 0.19099,-0.07643 0.4192,-0.06703 0.50712,0.02087 0.0879,0.08792 -0.0684,0.150453 -0.34727,0.138965 -0.30822,-0.0127 -0.37092,-0.07539 -0.15985,-0.159851 z M 4.465668,27.277613 c 0.21241,-0.134538 0.278183,-0.370819 0.157557,-0.565997 -0.134818,-0.218141 -0.100486,-0.269172 0.0984,-0.146256 0.168005,0.103833 0.305464,0.06643 0.305464,-0.08311 0,-0.149542 0.178594,-0.203361 0.396875,-0.119599 0.218281,0.08376 0.396875,0.03855 0.396875,-0.100461 0,-0.139016 0.506016,-0.469679 1.124479,-0.734807 1.712239,-0.734015 2.315105,-0.899026 2.315105,-0.63367 0,0.132936 0.119062,0.241702 0.264583,0.241702 0.145521,0 0.264796,-0.148828 0.265056,-0.33073 5.82e-4,-0.415086 1.627349,-1.424628 4.365152,-2.708954 1.164167,-0.546121 2.771511,-1.380494 3.571875,-1.854162 0.800365,-0.473669 1.881008,-0.93706 2.40143,-1.029759 0.520421,-0.0927 1.175265,-0.34336 1.455208,-0.557025 0.440923,-0.336532 0.455916,-0.423993 0.112113,-0.654041 -0.323997,-0.216795 -0.287558,-0.266304 0.198437,-0.269611 0.327422,-0.0022 0.595313,0.115011 0.595313,0.260532 0,0.367966 0.386402,0.331335 1.525521,-0.144619 0.722923,-0.302057 0.883806,-0.468257 0.614432,-0.63474 -0.277946,-0.17178 -0.174546,-0.323987 0.433806,-0.638579 0.439304,-0.227172 0.883096,-0.32868 0.986204,-0.225572 0.103108,0.103108 0.361029,-0.04989 0.573159,-0.339992 0.33328,-0.455788 0.423342,-0.473708 0.662776,-0.131876 0.221261,0.315882 0.251468,0.278197 0.149932,-0.187041 -0.06993,-0.320444 0.009,-0.635523 0.175487,-0.700175 0.310386,-0.120557 -2.819449,0.03179 -3.533817,0.172016 -0.218281,0.04285 -0.664766,0.225193 -0.992188,0.405215 -0.327422,0.180023 -0.595312,0.216505 -0.595312,0.08107 0,-0.504284 2.14156,-1.322567 3.067912,-1.172241 0.601904,0.09768 0.900838,0.04172 0.900838,-0.168631 0,-0.173149 0.127026,-0.236311 0.282279,-0.140359 0.155255,0.09595 0.253717,0.01368 0.21881,-0.182823 -0.03491,-0.196504 0.0953,-0.684702 0.289356,-1.084885 0.258176,-0.532411 0.548458,-0.727604 1.082059,-0.727604 0.401079,0 0.776248,0.141048 0.833713,0.31344 0.07806,0.234173 0.501824,0.207097 1.675693,-0.107066 0.864169,-0.231278 1.928403,-0.494848 2.364965,-0.585711 l 0.79375,-0.165206 -0.859895,0.562838 c -0.472943,0.30956 -0.859896,0.6573 -0.859896,0.772755 0,0.115455 -0.293455,0.28357 -0.652119,0.373589 -0.437356,0.10977 -0.602305,0.293487 -0.500859,0.55785 0.08319,0.216798 0.02428,0.394178 -0.130924,0.394178 -0.155202,0 -0.554892,0.277463 -0.888203,0.616584 -0.333312,0.339121 -1.498989,1.165 -2.590396,1.835286 -1.091406,0.670286 -2.758281,1.752907 -3.704167,2.405824 -0.945885,0.652917 -2.850885,1.857782 -4.233333,2.677478 -1.382448,0.819695 -2.692136,1.598812 -2.910417,1.731371 -3.000389,1.822094 -4.545628,2.353824 -10.31875,3.550768 -2.290856,0.474967 -2.373331,0.482529 -1.884332,0.172802 z m 8.881825,-2.958544 c -0.08519,-0.13784 -0.267668,-0.180917 -0.405507,-0.09573 -0.137839,0.08519 -0.180916,0.267668 -0.09573,0.405507 0.08519,0.13784 0.267667,0.180917 0.405507,0.09573 0.137839,-0.08519 0.180916,-0.267667 0.09573,-0.405506 z M 0.049382,24.0575 c 0.07729,-0.758245 0.253157,-0.883917 2.596452,-1.855442 2.57126,-1.066038 5.516948,-1.956638 5.738582,-1.735004 0.161382,0.161382 -1.962364,1.403538 -3.04483,1.780888 -0.462918,0.161374 -0.841669,0.400822 -0.841669,0.532108 0,0.131285 -0.161669,0.2387 -0.359264,0.2387 -0.197595,0 -1.158747,0.416719 -2.135892,0.926042 -0.977146,0.509323 -1.835052,0.926041 -1.906458,0.926041 -0.07141,0 -0.09252,-0.366 -0.046921,-0.813333 z m 67.066592,-0.421389 c -0.2686,-0.268604 -0.21035,-0.669579 0.0719,-0.49512 0.13658,0.08441 0.36633,-0.05739 0.51056,-0.315114 0.14423,-0.257722 0.33095,-0.437224 0.41493,-0.398893 0.084,0.03833 0.77697,-0.250465 1.53997,-0.641768 0.76299,-0.391302 1.86351,-0.75472 2.4456,-0.807594 l 1.05833,-0.09613 -0.86629,0.539465 c -0.47646,0.296705 -0.92064,0.539464 -0.98705,0.539464 -0.0664,0 -0.7722,0.416718 -1.5684,0.926041 -1.38508,0.88603 -2.23887,1.130361 -2.61958,0.749653 z m -21.12808,-0.798102 c 0.190994,-0.07643 0.419197,-0.06703 0.507118,0.02089 0.08792,0.08792 -0.06835,0.150453 -0.347265,0.138965 -0.308227,-0.01269 -0.37092,-0.07539 -0.159853,-0.159853 z m 0.843359,-0.08384 c 0,-0.145521 0.238125,-0.264584 0.529167,-0.264584 0.291041,0 0.529166,-0.107916 0.529166,-0.239813 0,-0.131897 -0.238125,-0.177542 -0.529166,-0.101433 -0.295855,0.07737 -0.529167,0.0081 -0.529167,-0.157062 0,-0.162493 0.164015,-0.295442 0.364479,-0.295442 0.200462,0 0.512697,-0.178593 0.693854,-0.396875 0.181158,-0.218281 0.612455,-0.396875 0.958438,-0.396875 0.345985,0 0.629062,-0.119062 0.629062,-0.264583 0,-0.145521 0.232524,-0.264583 0.516719,-0.264583 0.751382,0 1.864532,-0.561315 1.864532,-0.940204 0,-0.369264 0.584562,-0.647296 1.36094,-0.647296 0.288152,0 1.179261,-0.31003 1.980245,-0.688956 0.83118,-0.393211 1.729319,-0.636771 2.092274,-0.567388 0.349768,0.06686 0.572988,0.01971 0.496048,-0.104794 -0.0769,-0.124499 0.2285,-0.226362 0.67877,-0.226362 0.45027,0 1.09791,-0.182962 1.43919,-0.406581 0.34129,-0.22362 1.3789,-0.595906 2.3058,-0.827303 0.9269,-0.231398 1.80434,-0.50515 1.94986,-0.608339 0.14552,-0.103188 0.97896,-0.392725 1.85208,-0.643415 0.87313,-0.250689 1.79424,-0.567882 2.04693,-0.704872 0.25269,-0.136991 0.63284,-0.249074 0.84478,-0.249074 0.21193,0 0.83569,-0.265715 1.38612,-0.590477 0.55043,-0.324763 1.12279,-0.592653 1.2719,-0.595313 0.65577,-0.01169 3.16272,-1.107668 3.72439,-1.628209 0.82275,-0.762497 6.73317,-2.7109145 6.73317,-2.219643 0,0.4892746 -15.1571,8.473838 -19.05,10.035289 -0.50932,0.20429 -1.40229,0.584002 -1.98437,0.843803 -2.53257,1.130364 -6.083895,2.361569 -7.227136,2.505571 -2.143204,0.269955 -2.277589,0.290949 -3.190814,0.498466 -0.582036,0.13226 -0.957046,0.0992 -1.07704,-0.09496 -0.133318,-0.215716 -0.498236,-0.18703 -1.323131,0.10401 -1.349369,0.476086 -1.33709,0.474825 -1.33709,0.137293 z m 57.930487,-1.521354 c 0.11305,-0.400183 0.34088,-0.697839 0.50628,-0.661459 0.16541,0.03638 0.30074,-0.05292 0.30074,-0.198437 0,-0.382099 -1.14344,-0.325579 -2.9656,0.146589 -0.87272,0.226145 -2.46136,0.434504 -3.530306,0.463021 -3.44068,0.09179 -3.18042,-0.822276 0.80736,-2.835528 1.690566,-0.853493 2.607536,-1.168668 5.091776,-1.750111 l 0.85843,-0.20092 -0.018,2.882224 c -0.0177,2.840351 -0.027,2.882225 -0.63712,2.882225 -0.54888,0 -0.59582,-0.08258 -0.4136,-0.727604 z M 79.970314,20.579161 c -0.99452,-0.479642 -0.60254,-1.239493 0.72761,-1.41046 0.21828,-0.02806 0.93265,-0.198499 1.5875,-0.378761 0.65484,-0.180262 1.42875,-0.365416 1.71979,-0.411454 1.37291,-0.21717 3.48717,-0.949464 4.1446,-1.435522 0.40082,-0.296338 0.82288,-0.542105 0.93792,-0.546147 0.30815,-0.01083 1.54464,-1.364776 1.80552,-1.977025 0.25016,-0.58712 0.31253,-0.849015 0.35748,-1.501054 0.0441,-0.640001 1.32408,-2.072694 2.12373,-2.377151 0.3767,-0.143426 1.44996,-0.308805 2.38502,-0.367508 0.93506,-0.0587 1.77605,-0.2296136 1.86887,-0.3798001 0.099,-0.1601586 0.41925,0.015015 0.77456,0.4236551 0.47362,0.544715 0.55087,0.819325 0.35407,1.258665 -0.28818,0.643318 -0.14554,1.302927 0.23138,1.06998 0.13946,-0.0862 0.42695,-0.01283 0.63886,0.16304 0.30407,0.252354 0.385286,0.246496 0.385286,-0.02779 0,-0.234272 0.10779,-0.202041 0.33073,0.09889 0.28908,0.390227 0.5306,0.411292 1.91822,0.167313 0.87313,-0.153518 2.03399,-0.347335 2.57969,-0.430704 l 0.99219,-0.15158 v 1.482335 1.482336 l -2.97656,0.911657 c -5.121936,1.568739 -13.300926,3.60168 -14.490406,3.60168 -0.16024,0 -0.21776,-0.119063 -0.12783,-0.264583 0.21128,-0.341855 0.0902,-0.333222 -2.11666,0.150901 -1.01865,0.223463 -2.17592,0.45341 -2.57171,0.510993 -0.39579,0.05758 -0.95351,0.22987 -1.23938,0.382859 -0.64872,0.347184 -1.56409,0.329679 -2.34048,-0.04476 z M 9.260417,19.868621 c 0,-0.277341 2.403406,-1.149244 2.606918,-0.945732 0.283721,0.283722 -0.505483,0.744472 -1.275182,0.744472 -0.441413,0 -0.802569,0.09922 -0.802569,0.220486 0,0.121268 -0.119063,0.220486 -0.264583,0.220486 -0.145521,0 -0.264584,-0.10787 -0.264584,-0.239712 z m 3.704167,-1.477755 c 0,-0.351311 8.550189,-3.885966 9.259461,-3.827868 0.20547,0.01683 -4.626198,2.292358 -5.329994,2.51022 -0.342196,0.105928 -1.038894,0.39855 -1.548217,0.65027 -1.022489,0.50534 -2.38125,0.886151 -2.38125,0.667378 z m 9.260417,-1.036565 c 0,-0.05037 0.178594,-0.23981 0.396875,-0.420968 0.228757,-0.189851 0.396875,-0.215566 0.396875,-0.0607 0,0.14777 -0.178593,0.337206 -0.396875,0.420968 -0.218281,0.08376 -0.396875,0.111079 -0.396875,0.0607 z m 48.207793,-6.732228 c -0.28128,-0.17843 -0.28128,-0.26685 0,-0.489748 0.40234,-0.3188273 3.22431,-1.5476928 4.17537,-1.8182168 l 0.65711,-0.1869136 -0.64822,-0.2397932 c -0.72507,-0.2682192 -1.85895,-0.050124 -5.94021,1.1425605 -2.69273,0.7869098 -3.37944,0.7345011 -2.78786,-0.2127657 0.20934,-0.3352038 0.86478,-0.6097572 1.94477,-0.8146296 1.45856,-0.2766859 3.24778,-0.9555123 3.60375,-1.3672571 0.30663,-0.3546663 2.3099,-1.187051 3.04271,-1.2642845 1.32908,-0.1400768 4.24442,-1.3760228 5.46316,-2.3160831 0.67193,-0.5182872 2.19362,-1.2347368 3.65409,-1.720432 1.37647,-0.4577601 2.6422,-0.9480954 2.81275,-1.089634 0.1825,-0.1514657 2.21252,-0.2275642 4.93412,-0.1849635 l 4.62405,0.072379 -2.476,2.241642 c -1.36181,1.2329031 -2.74383,2.3780835 -3.07117,2.5448454 -0.61392,0.3127541 -10.99784,3.56206 -15.67091,4.9036904 -1.45217,0.4169178 -2.85116,0.6911158 -3.10885,0.6093268 -0.25769,-0.08179 -0.46853,-0.02162 -0.46853,0.133708 0,0.335561 -0.26803,0.356046 -0.74013,0.05657 z M 13.493751,1.4712195 C 13.493751,1.3038565 17.846091,0 18.404757,0 c 0.871781,0 0.194271,0.2818259 -2.250113,0.935986 -2.622609,0.7018563 -2.660893,0.7095571 -2.660893,0.5352335 z"
       id="path492" />
  </g>
</svg>
