<svg width="944" height="155" viewBox="0 0 944 155" fill="none" xmlns="http://www.w3.org/2000/svg">
<path d="M271.093 122.48C259.697 122.48 252.001 115.228 252.001 100.132V55.88H242.233C240.901 55.88 240.013 54.992 240.013 53.66V52.18C240.013 50.848 240.753 49.96 242.233 49.96H247.561C254.665 49.96 258.069 44.336 258.809 35.9C258.957 33.976 259.993 32.94 261.325 32.94H262.805C264.581 32.94 265.173 33.976 265.173 35.9L265.321 49.96H285.745C286.929 49.96 287.965 50.996 287.965 52.18V53.66C287.965 54.992 286.929 55.88 285.745 55.88H265.321V100.28C265.321 108.42 269.169 112.712 274.645 112.712C281.157 112.712 285.005 108.864 285.597 103.832C286.485 101.612 290.037 101.76 290.037 104.424C290.037 113.6 282.933 122.48 271.093 122.48ZM366.766 110.344C367.21 115.672 372.094 115.82 372.094 118.632V119.224C372.094 120.408 370.91 121 369.134 121H351.374C349.598 121 348.414 120.408 348.414 119.224V118.632C348.414 115.82 354.038 115.672 353.742 110.492L352.262 80.3C351.522 62.836 344.27 54.252 334.058 54.252C323.106 54.252 315.558 62.984 315.558 74.676V110.64C315.558 115.82 321.478 115.672 321.478 118.632V119.076C321.478 120.26 320.146 121 318.37 121H299.87C298.094 121 297.058 120.26 297.058 119.076V118.632C297.058 115.672 302.534 115.82 302.534 110.64V27.02C302.534 21.248 296.91 20.952 296.91 18.584V18.14C296.91 16.956 297.65 16.216 298.982 15.624L311.118 10.296C313.782 8.964 315.41 9.99999 315.41 12.22L315.114 60.172C319.702 53.068 327.694 48.48 337.166 48.48C351.67 48.48 363.806 58.248 365.138 80.596L366.766 110.344ZM440.968 100.132C442.3 98.06 445.704 98.504 445.26 101.316C443.484 110.196 433.716 122.48 415.216 122.48C396.124 122.48 380.88 107.976 380.88 84.888C380.88 64.02 396.124 48.48 415.808 48.48C433.568 48.48 443.336 60.172 443.336 70.384C443.336 75.12 440.82 77.636 436.38 79.116L395.384 92.584C398.788 105.312 407.816 113.008 419.804 113.008C430.756 113.008 437.712 107.236 440.968 100.132ZM413.588 53.216C401.6 53.216 393.756 65.056 393.756 80.152C393.756 82.816 393.904 85.332 394.348 87.7L427.352 75.86C429.868 74.824 430.904 73.196 430.904 70.68C430.904 64.02 423.8 53.216 413.588 53.216ZM481.241 122.48C469.845 122.48 462.149 115.228 462.149 100.132V55.88H452.381C451.049 55.88 450.161 54.992 450.161 53.66V52.18C450.161 50.848 450.901 49.96 452.381 49.96H457.709C464.813 49.96 468.217 44.336 468.957 35.9C469.105 33.976 470.141 32.94 471.473 32.94H472.953C474.729 32.94 475.321 33.976 475.321 35.9L475.469 49.96H495.893C497.077 49.96 498.113 50.996 498.113 52.18V53.66C498.113 54.992 497.077 55.88 495.893 55.88H475.469V100.28C475.469 108.42 479.317 112.712 484.793 112.712C491.305 112.712 495.153 108.864 495.745 103.832C496.633 101.612 500.185 101.76 500.185 104.424C500.185 113.6 493.081 122.48 481.241 122.48ZM568.183 109.16C569.071 118.336 576.471 115.08 576.471 118.78C576.471 121 572.475 121.888 566.999 121.888C560.339 121.888 556.787 120.26 556.195 112.12C552.791 118.336 545.687 122.48 534.883 122.48C518.603 122.48 507.355 114.34 507.355 100.132C507.207 85.924 519.047 78.228 534.439 78.228C542.283 78.228 548.647 80.448 552.643 84.148L552.347 80.152C550.719 62.688 545.983 53.216 534.143 53.216C518.751 53.216 521.119 70.088 513.719 70.088C510.167 70.088 507.947 68.016 507.947 64.612C507.947 56.768 518.011 48.48 534.143 48.48C552.347 48.48 563.299 60.172 565.223 79.708L568.183 109.16ZM538.139 117.744C548.055 117.744 554.567 110.492 554.271 101.464L553.679 94.804C552.199 87.848 546.131 82.964 537.399 82.964C527.335 82.964 520.379 89.18 520.379 98.356C520.379 109.16 527.483 117.744 538.139 117.744ZM643.175 122.332C623.491 122.332 613.131 112.416 613.131 105.46C613.131 101.908 615.499 99.984 618.903 99.984C628.079 99.984 623.343 118.04 643.175 118.04C652.647 118.04 660.047 113.452 660.047 105.016C660.047 83.26 614.759 97.912 614.759 68.756C614.759 57.36 626.303 48.48 642.583 48.48C660.935 48.48 671.443 57.952 671.443 65.944C671.443 68.904 669.075 71.124 666.115 71.124C657.679 71.124 661.379 53.068 643.175 53.068C634.591 53.068 627.931 58.544 627.931 65.944C627.931 87.256 673.071 72.752 673.071 102.352C673.071 113.452 661.527 122.332 643.175 122.332ZM686.065 121C684.289 121 683.253 120.26 683.253 119.076V118.632C683.253 115.672 688.433 115.82 688.433 110.64V27.464C688.433 21.692 683.253 20.804 683.253 18.584V18.288C683.253 17.104 683.993 16.66 685.325 15.92L696.869 10.296C699.829 8.816 701.457 10.444 701.457 12.368V110.64C701.457 115.82 707.229 115.672 707.229 118.632V119.076C707.229 120.26 706.045 121 704.269 121H686.065ZM777.725 100.132C779.057 98.06 782.461 98.504 782.017 101.316C780.241 110.196 770.473 122.48 751.973 122.48C732.881 122.48 717.637 107.976 717.637 84.888C717.637 64.02 732.881 48.48 752.565 48.48C770.325 48.48 780.093 60.172 780.093 70.384C780.093 75.12 777.577 77.636 773.137 79.116L732.141 92.584C735.545 105.312 744.573 113.008 756.561 113.008C767.513 113.008 774.469 107.236 777.725 100.132ZM750.345 53.216C738.357 53.216 730.513 65.056 730.513 80.152C730.513 82.816 730.661 85.332 731.105 87.7L764.109 75.86C766.625 74.824 767.661 73.196 767.661 70.68C767.661 64.02 760.557 53.216 750.345 53.216ZM851.003 100.132C852.335 98.06 855.739 98.504 855.295 101.316C853.519 110.196 843.751 122.48 825.251 122.48C806.159 122.48 790.915 107.976 790.915 84.888C790.915 64.02 806.159 48.48 825.843 48.48C843.603 48.48 853.371 60.172 853.371 70.384C853.371 75.12 850.855 77.636 846.415 79.116L805.419 92.584C808.823 105.312 817.851 113.008 829.839 113.008C840.791 113.008 847.747 107.236 851.003 100.132ZM823.623 53.216C811.635 53.216 803.791 65.056 803.791 80.152C803.791 82.816 803.939 85.332 804.383 87.7L837.387 75.86C839.903 74.824 840.939 73.196 840.939 70.68C840.939 64.02 833.835 53.216 823.623 53.216ZM904.596 48.48C922.652 48.48 938.636 62.54 938.636 84.444C938.636 106.348 923.392 122.48 904.744 122.48C895.568 122.48 888.02 118.632 882.84 112.268V144.088C882.84 149.564 888.612 149.564 888.612 152.376V152.82C888.612 154.152 887.428 154.744 885.652 154.744H867.448C865.672 154.744 864.34 154.152 864.34 152.82V152.376C864.34 149.564 869.816 149.564 869.816 144.088V65.648C869.816 60.468 863.896 60.32 863.896 57.36V56.916C863.896 55.732 864.784 54.844 866.264 54.252L876.92 49.072C879.88 47.74 881.064 48.924 881.064 51.144L880.916 60.912C885.356 53.364 894.236 48.48 904.596 48.48ZM902.968 117.744C916.584 117.744 925.464 106.2 925.464 87.996C925.464 67.572 915.696 53.216 901.34 53.216C892.164 53.216 884.024 60.616 882.84 69.644V94.952C882.84 106.792 892.608 117.744 902.968 117.744Z" fill="#ffffff"/>
<path d="M252.001 55.88H253.501V54.38H252.001V55.88ZM258.809 35.9L260.303 36.0311L260.304 36.0231L260.304 36.015L258.809 35.9ZM265.173 35.9H263.673V35.9079L263.673 35.9158L265.173 35.9ZM265.321 49.96L263.821 49.9758L263.836 51.46H265.321V49.96ZM265.321 55.88V54.38H263.821V55.88H265.321ZM285.597 103.832L284.204 103.275L284.13 103.459L284.107 103.657L285.597 103.832ZM271.093 120.98C265.722 120.98 261.39 119.281 258.385 115.96C255.362 112.62 253.501 107.44 253.501 100.132H250.501C250.501 107.92 252.487 113.914 256.161 117.974C259.853 122.053 265.068 123.98 271.093 123.98V120.98ZM253.501 100.132V55.88H250.501V100.132H253.501ZM252.001 54.38H242.233V57.38H252.001V54.38ZM242.233 54.38C241.907 54.38 241.753 54.2782 241.684 54.2088C241.614 54.1395 241.513 53.9851 241.513 53.66H238.513C238.513 54.6669 238.855 55.6225 239.562 56.3302C240.27 57.0378 241.226 57.38 242.233 57.38V54.38ZM241.513 53.66V52.18H238.513V53.66H241.513ZM241.513 52.18C241.513 51.7821 241.62 51.64 241.654 51.605C241.675 51.5825 241.797 51.46 242.233 51.46V48.46C241.188 48.46 240.2 48.7815 239.481 49.536C238.775 50.278 238.513 51.2458 238.513 52.18H241.513ZM242.233 51.46H247.561V48.46H242.233V51.46ZM247.561 51.46C251.575 51.46 254.653 49.8394 256.774 46.9891C258.84 44.2143 259.921 40.3849 260.303 36.0311L257.314 35.7689C256.956 39.8511 255.965 43.0517 254.368 45.1978C252.826 47.2686 250.65 48.46 247.561 48.46V51.46ZM260.304 36.015C260.36 35.2887 260.571 34.889 260.744 34.695C260.896 34.5233 261.077 34.44 261.325 34.44V31.44C260.24 31.44 259.237 31.8747 258.501 32.702C257.786 33.507 257.405 34.5873 257.313 35.7849L260.304 36.015ZM261.325 34.44H262.805V31.44H261.325V34.44ZM262.805 34.44C263.109 34.44 263.271 34.4851 263.347 34.5165C263.407 34.5415 263.429 34.5634 263.449 34.5913C263.525 34.6938 263.673 35.0279 263.673 35.9H266.673C266.673 34.8481 266.524 33.7022 265.86 32.8057C265.118 31.8043 263.996 31.44 262.805 31.44V34.44ZM263.673 35.9158L263.821 49.9758L266.82 49.9442L266.672 35.8842L263.673 35.9158ZM265.321 51.46H285.745V48.46H265.321V51.46ZM285.745 51.46C286.1 51.46 286.465 51.8244 286.465 52.18H289.465C289.465 50.1676 287.757 48.46 285.745 48.46V51.46ZM286.465 52.18V53.66H289.465V52.18H286.465ZM286.465 53.66C286.465 53.9171 286.373 54.0797 286.263 54.1845C286.143 54.2991 285.962 54.38 285.745 54.38V57.38C287.69 57.38 289.465 55.8854 289.465 53.66H286.465ZM285.745 54.38H265.321V57.38H285.745V54.38ZM263.821 55.88V100.28H266.821V55.88H263.821ZM263.821 100.28C263.821 104.567 264.832 108.041 266.751 110.477C268.7 112.952 271.478 114.212 274.645 114.212V111.212C272.335 111.212 270.451 110.326 269.107 108.62C267.733 106.875 266.821 104.133 266.821 100.28H263.821ZM274.645 114.212C278.202 114.212 281.156 113.156 283.319 111.296C285.48 109.437 286.751 106.861 287.086 104.007L284.107 103.657C283.851 105.835 282.901 107.699 281.363 109.022C279.825 110.344 277.599 111.212 274.645 111.212V114.212ZM286.989 104.389C287.152 103.982 287.577 103.75 288.011 103.79C288.211 103.809 288.334 103.881 288.397 103.946C288.443 103.993 288.537 104.112 288.537 104.424H291.537C291.537 103.404 291.186 102.506 290.539 101.845C289.908 101.202 289.087 100.877 288.288 100.803C286.724 100.658 284.929 101.462 284.204 103.275L286.989 104.389ZM288.537 104.424C288.537 112.819 282.057 120.98 271.093 120.98V123.98C283.808 123.98 291.537 114.381 291.537 104.424H288.537ZM366.766 110.344L365.269 110.426L365.27 110.447L365.272 110.469L366.766 110.344ZM353.742 110.492L352.244 110.565L352.245 110.578L353.742 110.492ZM352.262 80.3L350.764 80.3635L350.764 80.3734L352.262 80.3ZM298.982 15.624L298.379 14.2505L298.373 14.2533L298.982 15.624ZM311.118 10.296L311.721 11.6695L311.756 11.6544L311.789 11.6376L311.118 10.296ZM315.41 12.22L316.91 12.2293V12.22H315.41ZM315.114 60.172L313.615 60.1627L313.583 65.3086L316.375 60.9858L315.114 60.172ZM365.138 80.596L366.636 80.514L366.636 80.5068L365.138 80.596ZM365.272 110.469C365.542 113.71 367.222 115.415 368.642 116.588C369.396 117.211 369.853 117.527 370.233 117.929C370.538 118.253 370.594 118.439 370.594 118.632H373.594C373.594 117.419 373.04 116.532 372.415 115.87C371.866 115.288 371.074 114.706 370.552 114.275C369.419 113.339 368.435 112.306 368.261 110.219L365.272 110.469ZM370.594 118.632V119.224H373.594V118.632H370.594ZM370.594 119.224C370.594 119.258 370.589 119.238 370.61 119.206C370.625 119.181 370.622 119.205 370.536 119.254C370.337 119.368 369.893 119.5 369.134 119.5V122.5C370.152 122.5 371.188 122.336 372.025 121.858C372.942 121.334 373.594 120.428 373.594 119.224H370.594ZM369.134 119.5H351.374V122.5H369.134V119.5ZM351.374 119.5C350.616 119.5 350.172 119.368 349.973 119.254C349.887 119.205 349.883 119.181 349.899 119.206C349.92 119.238 349.914 119.258 349.914 119.224H346.914C346.914 120.428 347.567 121.334 348.484 121.858C349.321 122.336 350.357 122.5 351.374 122.5V119.5ZM349.914 119.224V118.632H346.914V119.224H349.914ZM349.914 118.632C349.914 118.514 349.942 118.346 350.315 117.996C350.764 117.575 351.268 117.271 352.095 116.646C352.827 116.092 353.679 115.366 354.311 114.342C354.963 113.286 355.331 111.998 355.24 110.406L352.245 110.578C352.302 111.576 352.077 112.249 351.759 112.766C351.42 113.314 350.921 113.772 350.284 114.254C349.742 114.665 348.858 115.249 348.262 115.808C347.59 116.439 346.914 117.344 346.914 118.632H349.914ZM355.241 110.419L353.761 80.2266L350.764 80.3734L352.244 110.565L355.241 110.419ZM353.761 80.2365C353.384 71.3356 351.343 64.4939 347.921 59.8386C344.457 55.1258 339.643 52.752 334.058 52.752V55.752C338.686 55.752 342.604 57.6702 345.504 61.6154C348.446 65.6181 350.401 71.8004 350.764 80.3635L353.761 80.2365ZM334.058 52.752C322.124 52.752 314.058 62.319 314.058 74.676H317.058C317.058 63.649 324.089 55.752 334.058 55.752V52.752ZM314.058 74.676V110.64H317.058V74.676H314.058ZM314.058 110.64C314.058 112.252 314.529 113.523 315.272 114.542C315.988 115.524 316.911 116.203 317.69 116.719C318.56 117.295 319.112 117.597 319.568 117.994C319.946 118.323 319.978 118.491 319.978 118.632H322.978C322.978 117.293 322.271 116.37 321.539 115.732C320.885 115.162 319.957 114.622 319.347 114.218C318.646 113.754 318.089 113.313 317.695 112.774C317.328 112.271 317.058 111.618 317.058 110.64H314.058ZM319.978 118.632V119.076H322.978V118.632H319.978ZM319.978 119.076C319.978 119.082 319.978 119.078 319.981 119.069C319.983 119.061 319.986 119.058 319.983 119.061C319.978 119.069 319.939 119.123 319.819 119.196C319.563 119.349 319.075 119.5 318.37 119.5V122.5C319.442 122.5 320.508 122.281 321.362 121.768C322.246 121.238 322.978 120.324 322.978 119.076H319.978ZM318.37 119.5H299.87V122.5H318.37V119.5ZM299.87 119.5C299.163 119.5 298.797 119.349 298.652 119.249C298.59 119.205 298.575 119.177 298.574 119.174C298.573 119.172 298.558 119.148 298.558 119.076H295.558C295.558 120.17 296.067 121.108 296.945 121.715C297.762 122.281 298.802 122.5 299.87 122.5V119.5ZM298.558 119.076V118.632H295.558V119.076H298.558ZM298.558 118.632C298.558 118.445 298.611 118.267 298.942 117.955C299.359 117.563 299.857 117.27 300.67 116.688C301.397 116.167 302.257 115.482 302.922 114.497C303.608 113.481 304.034 112.225 304.034 110.64H301.034C301.034 111.645 300.776 112.313 300.435 112.819C300.074 113.355 299.565 113.79 298.923 114.249C298.367 114.647 297.496 115.196 296.886 115.771C296.191 116.425 295.558 117.339 295.558 118.632H298.558ZM304.034 110.64V27.02H301.034V110.64H304.034ZM304.034 27.02C304.034 25.3152 303.614 23.9455 302.941 22.8266C302.279 21.726 301.416 20.9409 300.642 20.3406C300.26 20.0437 299.877 19.7753 299.559 19.5496C299.226 19.3126 298.97 19.1257 298.764 18.9495C298.329 18.5771 298.41 18.497 298.41 18.584H295.41C295.41 19.855 296.195 20.6999 296.814 21.2294C297.135 21.5041 297.495 21.7624 297.82 21.9942C298.162 22.2374 298.482 22.4616 298.803 22.7104C299.435 23.2016 299.978 23.7208 300.37 24.373C300.752 25.007 301.034 25.8388 301.034 27.02H304.034ZM298.41 18.584V18.14H295.41V18.584H298.41ZM298.41 18.14C298.41 17.9002 298.471 17.7692 298.582 17.6404C298.729 17.4699 299.023 17.2475 299.592 16.9947L298.373 14.2533C297.61 14.5925 296.867 15.0361 296.312 15.6796C295.72 16.3648 295.41 17.1958 295.41 18.14H298.41ZM299.585 16.9975L311.721 11.6695L310.515 8.92253L298.379 14.2505L299.585 16.9975ZM311.789 11.6376C312.93 11.0671 313.462 11.2025 313.593 11.2676C313.649 11.296 313.91 11.4516 313.91 12.22H316.91C316.91 10.7684 316.358 9.29599 314.934 8.58435C313.585 7.90951 311.971 8.19288 310.448 8.95436L311.789 11.6376ZM313.91 12.2107L313.615 60.1627L316.614 60.1813L316.91 12.2293L313.91 12.2107ZM316.375 60.9858C320.684 54.3136 328.199 49.98 337.166 49.98V46.98C327.19 46.98 318.721 51.8224 313.854 59.3582L316.375 60.9858ZM337.166 49.98C344.07 49.98 350.317 52.2958 355.009 57.1949C359.712 62.1065 362.99 69.7614 363.641 80.6852L366.636 80.5068C365.955 69.0826 362.499 60.6795 357.175 55.1201C351.84 49.5482 344.767 46.98 337.166 46.98V49.98ZM363.641 80.678L365.269 110.426L368.264 110.262L366.636 80.514L363.641 80.678ZM440.968 100.132L439.706 99.3209L439.648 99.4103L439.604 99.507L440.968 100.132ZM445.26 101.316L446.731 101.61L446.737 101.58L446.741 101.55L445.26 101.316ZM436.38 79.116L436.848 80.5411L436.854 80.539L436.38 79.116ZM395.384 92.584L394.915 91.1589L393.568 91.6015L393.935 92.9715L395.384 92.584ZM394.348 87.7L392.873 87.9764L393.198 89.7062L394.854 89.1119L394.348 87.7ZM427.352 75.86L427.858 77.2719L427.891 77.2602L427.923 77.247L427.352 75.86ZM442.229 100.943C442.552 100.441 443.106 100.283 443.469 100.36C443.631 100.394 443.698 100.46 443.727 100.502C443.749 100.534 443.841 100.685 443.778 101.082L446.741 101.55C446.901 100.541 446.733 99.5816 446.201 98.805C445.674 98.0373 444.891 97.5943 444.09 97.425C442.53 97.0949 440.715 97.7513 439.706 99.3209L442.229 100.943ZM443.789 101.022C442.147 109.231 432.97 120.98 415.216 120.98V123.98C434.462 123.98 444.82 111.161 446.731 101.61L443.789 101.022ZM415.216 120.98C406.061 120.98 397.876 117.508 391.975 111.308C386.074 105.108 382.38 96.0947 382.38 84.888H379.38C379.38 96.7693 383.308 106.552 389.802 113.376C396.296 120.2 405.279 123.98 415.216 123.98V120.98ZM382.38 84.888C382.38 64.7988 397.001 49.98 415.808 49.98V46.98C395.246 46.98 379.38 63.2412 379.38 84.888H382.38ZM415.808 49.98C432.891 49.98 441.836 61.144 441.836 70.384H444.836C444.836 59.2 434.245 46.98 415.808 46.98V49.98ZM441.836 70.384C441.836 72.4677 441.291 73.9179 440.375 75.0048C439.435 76.1215 437.981 77.0012 435.905 77.693L436.854 80.539C439.219 79.7508 441.242 78.6325 442.67 76.9372C444.123 75.2121 444.836 73.0363 444.836 70.384H441.836ZM435.911 77.6909L394.915 91.1589L395.852 94.0091L436.848 80.5411L435.911 77.6909ZM393.935 92.9715C397.484 106.245 407.028 114.508 419.804 114.508V111.508C408.603 111.508 400.091 104.379 396.833 92.1965L393.935 92.9715ZM419.804 114.508C431.378 114.508 438.846 108.361 442.331 100.757L439.604 99.507C436.577 106.111 430.134 111.508 419.804 111.508V114.508ZM413.588 51.716C407.04 51.716 401.653 54.9703 397.955 60.1516C394.277 65.3047 392.256 72.3619 392.256 80.152H395.256C395.256 72.8461 397.156 66.4352 400.397 61.8944C403.618 57.3817 408.148 54.716 413.588 54.716V51.716ZM392.256 80.152C392.256 82.866 392.406 85.4832 392.873 87.9764L395.822 87.4236C395.401 85.1808 395.256 82.766 395.256 80.152H392.256ZM394.854 89.1119L427.858 77.2719L426.845 74.4481L393.841 86.2881L394.854 89.1119ZM427.923 77.247C429.369 76.6517 430.531 75.8265 431.315 74.6633C432.1 73.4981 432.404 72.1449 432.404 70.68H429.404C429.404 71.7311 429.189 72.4499 428.827 72.9867C428.464 73.5255 427.851 74.0323 426.781 74.473L427.923 77.247ZM432.404 70.68C432.404 66.901 430.433 62.2 427.21 58.4699C423.964 54.7115 419.251 51.716 413.588 51.716V54.716C418.136 54.716 422.082 57.1224 424.94 60.4311C427.823 63.768 429.404 67.799 429.404 70.68H432.404ZM462.149 55.88H463.649V54.38H462.149V55.88ZM468.957 35.9L470.451 36.0311L470.452 36.0231L470.453 36.015L468.957 35.9ZM475.321 35.9H473.821V35.9079L473.821 35.9158L475.321 35.9ZM475.469 49.96L473.969 49.9758L473.985 51.46H475.469V49.96ZM475.469 55.88V54.38H473.969V55.88H475.469ZM495.745 103.832L494.352 103.275L494.278 103.459L494.255 103.657L495.745 103.832ZM481.241 120.98C475.87 120.98 471.539 119.281 468.534 115.96C465.511 112.62 463.649 107.44 463.649 100.132H460.649C460.649 107.92 462.635 113.914 466.309 117.974C470.001 122.053 475.216 123.98 481.241 123.98V120.98ZM463.649 100.132V55.88H460.649V100.132H463.649ZM462.149 54.38H452.381V57.38H462.149V54.38ZM452.381 54.38C452.056 54.38 451.901 54.2782 451.832 54.2088C451.763 54.1395 451.661 53.9851 451.661 53.66H448.661C448.661 54.6669 449.003 55.6225 449.711 56.3302C450.419 57.0378 451.374 57.38 452.381 57.38V54.38ZM451.661 53.66V52.18H448.661V53.66H451.661ZM451.661 52.18C451.661 51.7821 451.769 51.64 451.802 51.605C451.824 51.5825 451.946 51.46 452.381 51.46V48.46C451.336 48.46 450.348 48.7815 449.63 49.536C448.923 50.278 448.661 51.2458 448.661 52.18H451.661ZM452.381 51.46H457.709V48.46H452.381V51.46ZM457.709 51.46C461.723 51.46 464.801 49.8394 466.923 46.9891C468.988 44.2143 470.069 40.3849 470.451 36.0311L467.463 35.7689C467.105 39.8511 466.114 43.0517 464.516 45.1978C462.975 47.2686 460.799 48.46 457.709 48.46V51.46ZM470.453 36.015C470.508 35.2887 470.72 34.889 470.892 34.695C471.045 34.5233 471.225 34.44 471.473 34.44V31.44C470.389 31.44 469.385 31.8747 468.65 32.702C467.934 33.507 467.554 34.5873 467.461 35.7849L470.453 36.015ZM471.473 34.44H472.953V31.44H471.473V34.44ZM472.953 34.44C473.257 34.44 473.42 34.4851 473.495 34.5165C473.555 34.5415 473.577 34.5634 473.598 34.5913C473.674 34.6938 473.821 35.0279 473.821 35.9H476.821C476.821 34.8481 476.672 33.7022 476.008 32.8057C475.267 31.8043 474.144 31.44 472.953 31.44V34.44ZM473.821 35.9158L473.969 49.9758L476.969 49.9442L476.821 35.8842L473.821 35.9158ZM475.469 51.46H495.893V48.46H475.469V51.46ZM495.893 51.46C496.249 51.46 496.613 51.8244 496.613 52.18H499.613C499.613 50.1676 497.905 48.46 495.893 48.46V51.46ZM496.613 52.18V53.66H499.613V52.18H496.613ZM496.613 53.66C496.613 53.9171 496.521 54.0797 496.411 54.1845C496.291 54.2991 496.11 54.38 495.893 54.38V57.38C497.839 57.38 499.613 55.8854 499.613 53.66H496.613ZM495.893 54.38H475.469V57.38H495.893V54.38ZM473.969 55.88V100.28H476.969V55.88H473.969ZM473.969 100.28C473.969 104.567 474.981 108.041 476.899 110.477C478.849 112.952 481.627 114.212 484.793 114.212V111.212C482.483 111.212 480.599 110.326 479.256 108.62C477.881 106.875 476.969 104.133 476.969 100.28H473.969ZM484.793 114.212C488.351 114.212 491.305 113.156 493.467 111.296C495.629 109.437 496.899 106.861 497.235 104.007L494.255 103.657C493.999 105.835 493.049 107.699 491.511 109.022C489.973 110.344 487.747 111.212 484.793 111.212V114.212ZM497.138 104.389C497.301 103.982 497.725 103.75 498.16 103.79C498.359 103.809 498.482 103.881 498.545 103.946C498.591 103.993 498.685 104.112 498.685 104.424H501.685C501.685 103.404 501.335 102.506 500.687 101.845C500.056 101.202 499.236 100.877 498.436 100.803C496.873 100.658 495.077 101.462 494.352 103.275L497.138 104.389ZM498.685 104.424C498.685 112.819 492.206 120.98 481.241 120.98V123.98C493.956 123.98 501.685 114.381 501.685 104.424H498.685ZM568.183 109.16L569.676 109.016L569.675 109.01L568.183 109.16ZM556.195 112.12L557.691 112.011L557.322 106.939L554.879 111.4L556.195 112.12ZM507.355 100.132H508.855V100.124L508.855 100.116L507.355 100.132ZM552.643 84.148L551.624 85.2486L554.42 87.838L554.139 84.0372L552.643 84.148ZM552.347 80.152L553.843 80.0412L553.842 80.027L553.84 80.0128L552.347 80.152ZM565.223 79.708L563.73 79.855L563.73 79.858L565.223 79.708ZM554.271 101.464L555.77 101.415L555.769 101.373L555.765 101.331L554.271 101.464ZM553.679 94.804L555.173 94.6712L555.165 94.5807L555.146 94.4918L553.679 94.804ZM566.69 109.304C566.932 111.807 567.635 113.618 568.673 114.94C569.712 116.264 570.981 116.961 572.096 117.413C572.64 117.634 573.179 117.808 573.604 117.951C574.06 118.105 574.378 118.221 574.623 118.344C574.859 118.464 574.922 118.541 574.935 118.558C574.939 118.564 574.944 118.572 574.951 118.594C574.958 118.617 574.971 118.674 574.971 118.78H577.971C577.971 118.049 577.781 117.377 577.368 116.803C576.972 116.254 576.45 115.907 575.979 115.668C575.516 115.434 575.003 115.257 574.561 115.108C574.088 114.949 573.661 114.811 573.224 114.634C572.378 114.291 571.631 113.85 571.032 113.088C570.433 112.324 569.878 111.101 569.676 109.016L566.69 109.304ZM574.971 118.78C574.971 118.817 574.979 118.896 574.783 119.065C574.549 119.266 574.103 119.508 573.362 119.728C571.886 120.166 569.688 120.388 566.999 120.388V123.388C569.785 123.388 572.324 123.166 574.215 122.605C575.157 122.325 576.053 121.929 576.739 121.34C577.463 120.717 577.971 119.853 577.971 118.78H574.971ZM566.999 120.388C563.71 120.388 561.619 119.965 560.254 118.882C558.946 117.843 557.975 115.918 557.691 112.011L554.699 112.229C555.007 116.462 556.108 119.421 558.389 121.231C560.613 122.997 563.628 123.388 566.999 123.388V120.388ZM554.879 111.4C551.805 117.013 545.293 120.98 534.883 120.98V123.98C546.081 123.98 553.777 119.659 557.511 112.84L554.879 111.4ZM534.883 120.98C526.974 120.98 520.451 119.001 515.941 115.455C511.472 111.941 508.855 106.797 508.855 100.132H505.855C505.855 107.675 508.861 113.705 514.087 117.813C519.27 121.889 526.512 123.98 534.883 123.98V120.98ZM508.855 100.116C508.786 93.4857 511.49 88.4585 515.977 85.046C520.512 81.5974 526.971 79.728 534.439 79.728V76.728C526.515 76.728 519.358 78.7066 514.161 82.658C508.918 86.6455 505.776 92.5703 505.855 100.148L508.855 100.116ZM534.439 79.728C542.028 79.728 547.984 81.8781 551.624 85.2486L553.662 83.0474C549.31 79.0179 542.538 76.728 534.439 76.728V79.728ZM554.139 84.0372L553.843 80.0412L550.851 80.2628L551.147 84.2588L554.139 84.0372ZM553.84 80.0128C553.021 71.2274 551.407 64.1974 548.344 59.3354C546.795 56.8778 544.864 54.953 542.47 53.6512C540.078 52.3503 537.307 51.716 534.143 51.716V54.716C536.899 54.716 539.16 55.2656 541.037 56.2866C542.912 57.3065 544.486 58.8412 545.805 60.9346C548.477 65.1746 550.044 71.6125 550.853 80.2912L553.84 80.0128ZM534.143 51.716C529.995 51.716 526.928 52.862 524.585 54.6629C522.275 56.4378 520.776 58.7685 519.611 60.9443C519.034 62.0238 518.509 63.1243 518.032 64.08C517.542 65.0627 517.094 65.9116 516.621 66.6172C515.687 68.0116 514.845 68.588 513.719 68.588V71.588C516.293 71.588 517.929 70.0554 519.114 68.2863C519.701 67.4101 520.221 66.4137 520.717 65.4192C521.227 64.3977 521.706 63.3892 522.256 62.3597C523.349 60.3175 524.606 58.4302 526.413 57.0416C528.186 55.679 530.595 54.716 534.143 54.716V51.716ZM513.719 68.588C512.231 68.588 511.189 68.1577 510.531 67.536C509.883 66.9241 509.447 65.9773 509.447 64.612H506.447C506.447 66.6507 507.121 68.4419 508.471 69.717C509.811 70.9823 511.655 71.588 513.719 71.588V68.588ZM509.447 64.612C509.447 61.3514 511.559 57.7273 515.833 54.8487C520.079 51.9891 526.325 49.98 534.143 49.98V46.98C525.829 46.98 518.976 49.1149 514.158 52.3603C509.367 55.5867 506.447 60.0286 506.447 64.612H509.447ZM534.143 49.98C542.905 49.98 549.786 52.783 554.716 57.8175C559.667 62.8731 562.791 70.3233 563.73 79.855L566.716 79.561C565.73 69.5567 562.417 61.3929 556.86 55.7185C551.282 50.023 543.585 46.98 534.143 46.98V49.98ZM563.73 79.858L566.69 109.31L569.675 109.01L566.715 79.558L563.73 79.858ZM538.139 119.244C548.911 119.244 556.094 111.282 555.77 101.415L552.772 101.513C553.04 109.702 547.199 116.244 538.139 116.244V119.244ZM555.765 101.331L555.173 94.6712L552.185 94.9368L552.777 101.597L555.765 101.331ZM555.146 94.4918C553.499 86.7495 546.739 81.464 537.399 81.464V84.464C545.523 84.464 550.899 88.9465 552.212 95.1162L555.146 94.4918ZM537.399 81.464C532.06 81.464 527.428 83.1154 524.111 86.1047C520.781 89.1058 518.879 93.367 518.879 98.356H521.879C521.879 94.169 523.455 90.7342 526.119 88.3333C528.796 85.9206 532.673 84.464 537.399 84.464V81.464ZM518.879 98.356C518.879 109.817 526.493 119.244 538.139 119.244V116.244C528.473 116.244 521.879 108.503 521.879 98.356H518.879ZM643.175 120.832C633.58 120.832 626.368 118.416 621.6 115.254C616.767 112.05 614.631 108.234 614.631 105.46H611.631C611.631 109.642 614.675 114.262 619.943 117.755C625.276 121.29 633.085 123.832 643.175 123.832V120.832ZM614.631 105.46C614.631 104.034 615.094 103.095 615.749 102.5C616.425 101.886 617.474 101.484 618.903 101.484V98.484C616.928 98.484 615.091 99.044 613.731 100.28C612.352 101.535 611.631 103.334 611.631 105.46H614.631ZM618.903 101.484C619.785 101.484 620.436 101.695 620.97 102.031C621.524 102.378 622.031 102.907 622.539 103.651C623.052 104.402 623.523 105.305 624.039 106.358C624.542 107.383 625.094 108.562 625.724 109.726C626.997 112.079 628.691 114.573 631.462 116.459C634.247 118.354 637.98 119.54 643.175 119.54V116.54C638.454 116.54 635.341 115.469 633.15 113.979C630.945 112.479 629.531 110.459 628.362 108.298C627.771 107.205 627.268 106.127 626.733 105.036C626.211 103.973 625.66 102.902 625.016 101.959C624.368 101.011 623.585 100.129 622.564 99.489C621.524 98.8368 620.315 98.484 618.903 98.484V101.484ZM643.175 119.54C648.13 119.54 652.685 118.343 656.044 115.906C659.451 113.433 661.547 109.734 661.547 105.016H658.547C658.547 108.734 656.943 111.547 654.282 113.477C651.573 115.443 647.691 116.54 643.175 116.54V119.54ZM661.547 105.016C661.547 102.017 660.76 99.5553 659.323 97.5372C657.899 95.5389 655.907 94.0732 653.646 92.9328C649.198 90.6895 643.292 89.5238 637.751 88.2019C632.071 86.8469 626.688 85.317 622.713 82.4464C618.861 79.6642 616.259 75.5672 616.259 68.756H613.259C613.259 76.5228 616.318 81.5278 620.957 84.8784C625.474 88.1405 631.413 89.7741 637.055 91.1201C642.836 92.4992 648.252 93.572 652.295 95.6114C654.28 96.6124 655.826 97.7992 656.879 99.2777C657.918 100.736 658.547 102.576 658.547 105.016H661.547ZM616.259 68.756C616.259 58.5744 626.684 49.98 642.583 49.98V46.98C625.922 46.98 613.259 56.1456 613.259 68.756H616.259ZM642.583 49.98C651.507 49.98 658.415 52.2831 663.048 55.453C667.717 58.6478 669.943 62.607 669.943 65.944H672.943C672.943 61.289 669.915 56.5162 664.742 52.977C659.533 49.4129 652.011 46.98 642.583 46.98V49.98ZM669.943 65.944C669.943 68.0207 668.303 69.624 666.115 69.624V72.624C669.847 72.624 672.943 69.7873 672.943 65.944H669.943ZM666.115 69.624C664.705 69.624 663.757 68.9423 662.781 67.4731C662.279 66.7169 661.811 65.8082 661.298 64.7543C660.798 63.7273 660.25 62.5513 659.632 61.3907C658.385 59.0497 656.746 56.5607 654.131 54.673C651.492 52.7684 647.991 51.568 643.175 51.568V54.568C647.461 54.568 650.324 55.6246 652.375 57.1055C654.45 58.6033 655.826 60.6283 656.984 62.8013C657.568 63.8977 658.07 64.9787 658.601 66.0676C659.118 67.1296 659.66 68.1958 660.282 69.1324C661.554 71.0487 663.307 72.624 666.115 72.624V69.624ZM643.175 51.568C634.022 51.568 626.431 57.4779 626.431 65.944H629.431C629.431 59.6101 635.16 54.568 643.175 54.568V51.568ZM626.431 65.944C626.431 68.893 627.219 71.3129 628.657 73.2942C630.079 75.254 632.066 76.688 634.317 77.8049C638.745 80.0016 644.632 81.1594 650.147 82.4977C655.802 83.8698 661.165 85.444 665.125 88.3779C668.967 91.225 671.571 95.4173 671.571 102.352H674.571C674.571 94.4867 671.532 89.392 666.911 85.9676C662.407 82.63 656.485 80.9482 650.855 79.5823C645.085 78.1825 639.687 77.1204 635.651 75.1176C633.67 74.1347 632.131 72.9742 631.085 71.5322C630.054 70.1119 629.431 68.323 629.431 65.944H626.431ZM671.571 102.352C671.571 107.328 668.999 111.895 664.148 115.274C659.278 118.665 652.125 120.832 643.175 120.832V123.832C652.577 123.832 660.372 121.559 665.862 117.735C671.371 113.899 674.571 108.476 674.571 102.352H671.571ZM685.325 15.92L684.668 14.5715L684.632 14.5892L684.596 14.6088L685.325 15.92ZM696.869 10.296L697.526 11.6445L697.533 11.6411L697.54 11.6376L696.869 10.296ZM686.065 119.5C685.358 119.5 684.991 119.349 684.847 119.249C684.784 119.205 684.77 119.177 684.768 119.174C684.767 119.172 684.753 119.148 684.753 119.076H681.753C681.753 120.17 682.261 121.108 683.139 121.715C683.957 122.281 684.996 122.5 686.065 122.5V119.5ZM684.753 119.076V118.632H681.753V119.076H684.753ZM684.753 118.632C684.753 118.414 684.817 118.228 685.12 117.926C685.511 117.538 685.973 117.251 686.748 116.664C687.441 116.14 688.258 115.452 688.888 114.465C689.535 113.451 689.933 112.207 689.933 110.64H686.933C686.933 111.663 686.684 112.343 686.359 112.851C686.018 113.386 685.54 113.817 684.937 114.273C684.418 114.666 683.585 115.221 683.004 115.8C682.337 116.464 681.753 117.37 681.753 118.632H684.753ZM689.933 110.64V27.464H686.933V110.64H689.933ZM689.933 27.464C689.933 24.0176 688.34 21.9851 686.872 20.6006C686.519 20.2682 686.169 19.9677 685.872 19.7117C685.562 19.4445 685.321 19.2333 685.123 19.0357C684.697 18.6093 684.753 18.5103 684.753 18.584H681.753C681.753 19.7677 682.457 20.6121 683.002 21.157C683.29 21.4451 683.615 21.7264 683.912 21.983C684.222 22.2508 684.519 22.5053 684.814 22.7834C685.936 23.8409 686.933 25.1384 686.933 27.464H689.933ZM684.753 18.584V18.288H681.753V18.584H684.753ZM684.753 18.288C684.753 18.1519 684.773 18.1009 684.777 18.0922C684.78 18.0856 684.79 18.0578 684.85 17.9982C684.919 17.9293 685.037 17.834 685.247 17.6993C685.459 17.5638 685.716 17.4186 686.053 17.2312L684.596 14.6088C683.982 14.95 683.259 15.347 682.729 15.8768C682.091 16.5144 681.753 17.305 681.753 18.288H684.753ZM685.982 17.2685L697.526 11.6445L696.212 8.94751L684.668 14.5715L685.982 17.2685ZM697.54 11.6376C698.741 11.0372 699.315 11.2309 699.506 11.3444C699.724 11.4743 699.957 11.8006 699.957 12.368H702.957C702.957 11.0114 702.376 9.56172 701.04 8.76656C699.677 7.95505 697.957 8.0748 696.198 8.95436L697.54 11.6376ZM699.957 12.368V110.64H702.957V12.368H699.957ZM699.957 110.64C699.957 112.243 700.412 113.509 701.136 114.527C701.836 115.511 702.738 116.191 703.5 116.709C704.351 117.287 704.885 117.586 705.328 117.982C705.69 118.305 705.729 118.476 705.729 118.632H708.729C708.729 117.308 708.047 116.388 707.326 115.744C706.687 115.173 705.778 114.63 705.186 114.228C704.505 113.765 703.964 113.326 703.581 112.788C703.223 112.285 702.957 111.627 702.957 110.64H699.957ZM705.729 118.632V119.076H708.729V118.632H705.729ZM705.729 119.076C705.729 119.098 705.726 119.108 705.726 119.11C705.725 119.111 705.725 119.113 705.723 119.116C705.721 119.12 705.695 119.161 705.604 119.22C705.403 119.349 704.974 119.5 704.269 119.5V122.5C705.339 122.5 706.391 122.281 707.226 121.744C708.11 121.175 708.729 120.249 708.729 119.076H705.729ZM704.269 119.5H686.065V122.5H704.269V119.5ZM777.725 100.132L776.464 99.3209L776.406 99.4103L776.362 99.507L777.725 100.132ZM782.017 101.316L783.488 101.61L783.494 101.58L783.499 101.55L782.017 101.316ZM773.137 79.116L773.606 80.5411L773.612 80.539L773.137 79.116ZM732.141 92.584L731.673 91.1589L730.326 91.6015L730.692 92.9715L732.141 92.584ZM731.105 87.7L729.631 87.9764L729.955 89.7062L731.612 89.1119L731.105 87.7ZM764.109 75.86L764.616 77.2719L764.649 77.2602L764.681 77.247L764.109 75.86ZM778.987 100.943C779.31 100.441 779.863 100.283 780.227 100.36C780.388 100.394 780.456 100.46 780.484 100.502C780.507 100.534 780.598 100.685 780.536 101.082L783.499 101.55C783.659 100.541 783.491 99.5816 782.959 98.805C782.432 98.0373 781.648 97.5943 780.848 97.425C779.287 97.0949 777.473 97.7513 776.464 99.3209L778.987 100.943ZM780.547 101.022C778.905 109.231 769.728 120.98 751.973 120.98V123.98C771.219 123.98 781.578 111.161 783.488 101.61L780.547 101.022ZM751.973 120.98C742.818 120.98 734.634 117.508 728.733 111.308C722.832 105.108 719.137 96.0947 719.137 84.888H716.137C716.137 96.7693 720.065 106.552 726.559 113.376C733.053 120.2 742.036 123.98 751.973 123.98V120.98ZM719.137 84.888C719.137 64.7988 733.759 49.98 752.565 49.98V46.98C732.004 46.98 716.137 63.2412 716.137 84.888H719.137ZM752.565 49.98C769.648 49.98 778.593 61.144 778.593 70.384H781.593C781.593 59.2 771.003 46.98 752.565 46.98V49.98ZM778.593 70.384C778.593 72.4677 778.048 73.9179 777.133 75.0048C776.193 76.1215 774.738 77.0012 772.663 77.693L773.612 80.539C775.977 79.7508 778 78.6325 779.428 76.9372C780.881 75.2121 781.593 73.0363 781.593 70.384H778.593ZM772.669 77.6909L731.673 91.1589L732.61 94.0091L773.606 80.5411L772.669 77.6909ZM730.692 92.9715C734.242 106.245 743.786 114.508 756.561 114.508V111.508C745.361 111.508 736.849 104.379 733.591 92.1965L730.692 92.9715ZM756.561 114.508C768.135 114.508 775.604 108.361 779.089 100.757L776.362 99.507C773.335 106.111 766.892 111.508 756.561 111.508V114.508ZM750.345 51.716C743.797 51.716 738.411 54.9703 734.713 60.1516C731.035 65.3047 729.013 72.3619 729.013 80.152H732.013C732.013 72.8461 733.914 66.4352 737.155 61.8944C740.376 57.3817 744.906 54.716 750.345 54.716V51.716ZM729.013 80.152C729.013 82.866 729.164 85.4832 729.631 87.9764L732.58 87.4236C732.159 85.1808 732.013 82.766 732.013 80.152H729.013ZM731.612 89.1119L764.616 77.2719L763.603 74.4481L730.599 86.2881L731.612 89.1119ZM764.681 77.247C766.126 76.6517 767.289 75.8265 768.073 74.6633C768.858 73.4981 769.161 72.1449 769.161 70.68H766.161C766.161 71.7311 765.947 72.4499 765.585 72.9867C765.222 73.5255 764.609 74.0323 763.538 74.473L764.681 77.247ZM769.161 70.68C769.161 66.901 767.19 62.2 763.968 58.4699C760.721 54.7115 756.009 51.716 750.345 51.716V54.716C754.894 54.716 758.84 57.1224 761.698 60.4311C764.581 63.768 766.161 67.799 766.161 70.68H769.161ZM851.003 100.132L849.741 99.3209L849.684 99.4103L849.639 99.507L851.003 100.132ZM855.295 101.316L856.766 101.61L856.772 101.58L856.776 101.55L855.295 101.316ZM846.415 79.116L846.883 80.5411L846.889 80.539L846.415 79.116ZM805.419 92.584L804.951 91.1589L803.603 91.6015L803.97 92.9715L805.419 92.584ZM804.383 87.7L802.909 87.9764L803.233 89.7062L804.889 89.1119L804.383 87.7ZM837.387 75.86L837.893 77.2719L837.926 77.2602L837.958 77.247L837.387 75.86ZM852.265 100.943C852.588 100.441 853.141 100.283 853.504 100.36C853.666 100.394 853.733 100.46 853.762 100.502C853.784 100.534 853.876 100.685 853.813 101.082L856.776 101.55C856.936 100.541 856.768 99.5816 856.236 98.805C855.709 98.0373 854.926 97.5943 854.125 97.425C852.565 97.0949 850.75 97.7513 849.741 99.3209L852.265 100.943ZM853.824 101.022C852.182 109.231 843.005 120.98 825.251 120.98V123.98C844.497 123.98 854.856 111.161 856.766 101.61L853.824 101.022ZM825.251 120.98C816.096 120.98 807.911 117.508 802.01 111.308C796.109 105.108 792.415 96.0947 792.415 84.888H789.415C789.415 96.7693 793.343 106.552 799.837 113.376C806.331 120.2 815.314 123.98 825.251 123.98V120.98ZM792.415 84.888C792.415 64.7988 807.036 49.98 825.843 49.98V46.98C805.282 46.98 789.415 63.2412 789.415 84.888H792.415ZM825.843 49.98C842.926 49.98 851.871 61.144 851.871 70.384H854.871C854.871 59.2 844.28 46.98 825.843 46.98V49.98ZM851.871 70.384C851.871 72.4677 851.326 73.9179 850.41 75.0048C849.47 76.1215 848.016 77.0012 845.94 77.693L846.889 80.539C849.254 79.7508 851.278 78.6325 852.705 76.9372C854.158 75.2121 854.871 73.0363 854.871 70.384H851.871ZM845.947 77.6909L804.951 91.1589L805.887 94.0091L846.883 80.5411L845.947 77.6909ZM803.97 92.9715C807.52 106.245 817.063 114.508 829.839 114.508V111.508C818.638 111.508 810.126 104.379 806.868 92.1965L803.97 92.9715ZM829.839 114.508C841.413 114.508 848.881 108.361 852.366 100.757L849.639 99.507C846.612 106.111 840.169 111.508 829.839 111.508V114.508ZM823.623 51.716C817.075 51.716 811.688 54.9703 807.99 60.1516C804.312 65.3047 802.291 72.3619 802.291 80.152H805.291C805.291 72.8461 807.191 66.4352 810.432 61.8944C813.653 57.3817 818.183 54.716 823.623 54.716V51.716ZM802.291 80.152C802.291 82.866 802.441 85.4832 802.909 87.9764L805.857 87.4236C805.437 85.1808 805.291 82.766 805.291 80.152H802.291ZM804.889 89.1119L837.893 77.2719L836.88 74.4481L803.876 86.2881L804.889 89.1119ZM837.958 77.247C839.404 76.6517 840.566 75.8265 841.35 74.6633C842.135 73.4981 842.439 72.1449 842.439 70.68H839.439C839.439 71.7311 839.224 72.4499 838.862 72.9867C838.499 73.5255 837.886 74.0323 836.816 74.473L837.958 77.247ZM842.439 70.68C842.439 66.901 840.468 62.2 837.245 58.4699C833.999 54.7115 829.286 51.716 823.623 51.716V54.716C828.171 54.716 832.117 57.1224 834.975 60.4311C837.858 63.768 839.439 67.799 839.439 70.68H842.439ZM882.84 112.268L884.003 111.321L881.34 108.049V112.268H882.84ZM866.264 54.252L866.821 55.6447L866.871 55.6247L866.92 55.601L866.264 54.252ZM876.92 49.072L876.305 47.7041L876.284 47.7132L876.264 47.7229L876.92 49.072ZM881.064 51.144L882.564 51.1667L882.564 51.1554V51.144H881.064ZM880.916 60.912L879.416 60.8893L879.33 66.5664L882.209 61.6725L880.916 60.912ZM882.84 69.644L881.353 69.449L881.34 69.5461V69.644H882.84ZM904.596 49.98C921.824 49.98 937.136 63.3684 937.136 84.444H940.136C940.136 61.7116 923.481 46.98 904.596 46.98V49.98ZM937.136 84.444C937.136 105.661 922.429 120.98 904.744 120.98V123.98C924.355 123.98 940.136 107.035 940.136 84.444H937.136ZM904.744 120.98C896.023 120.98 888.901 117.338 884.003 111.321L881.677 113.215C887.139 119.926 895.113 123.98 904.744 123.98V120.98ZM881.34 112.268V144.088H884.34V112.268H881.34ZM881.34 144.088C881.34 145.745 881.784 147.062 882.493 148.128C883.183 149.167 884.078 149.894 884.851 150.449C885.722 151.075 886.246 151.37 886.714 151.786C887.1 152.129 887.112 152.281 887.112 152.376H890.112C890.112 151.065 889.403 150.163 888.707 149.544C888.093 148.998 887.173 148.423 886.601 148.013C885.932 147.532 885.383 147.057 884.991 146.467C884.618 145.906 884.34 145.169 884.34 144.088H881.34ZM887.112 152.376V152.82H890.112V152.376H887.112ZM887.112 152.82C887.112 152.875 887.106 152.907 887.102 152.922C887.101 152.93 887.099 152.934 887.098 152.936C887.098 152.937 887.097 152.938 887.097 152.938C887.097 152.938 887.097 152.938 887.097 152.938C887.097 152.938 887.097 152.939 887.097 152.939C887.097 152.939 887.096 152.939 887.096 152.94C887.095 152.941 887.092 152.944 887.088 152.949C887.079 152.958 887.058 152.976 887.02 152.999C886.837 153.11 886.415 153.244 885.652 153.244V156.244C886.666 156.244 887.723 156.082 888.577 155.564C889.53 154.985 890.112 154.025 890.112 152.82H887.112ZM885.652 153.244H867.448V156.244H885.652V153.244ZM867.448 153.244C866.689 153.244 866.206 153.112 865.968 152.976C865.915 152.947 865.884 152.922 865.866 152.906C865.858 152.898 865.853 152.893 865.85 152.889C865.848 152.887 865.847 152.886 865.847 152.885C865.846 152.885 865.846 152.884 865.846 152.884C865.846 152.884 865.846 152.884 865.846 152.885C865.846 152.885 865.847 152.886 865.847 152.886C865.847 152.887 865.847 152.886 865.846 152.884C865.845 152.88 865.84 152.861 865.84 152.82H862.84C862.84 154.102 863.533 155.045 864.489 155.587C865.36 156.08 866.431 156.244 867.448 156.244V153.244ZM865.84 152.82V152.376H862.84V152.82H865.84ZM865.84 152.376C865.84 152.25 865.867 152.091 866.221 151.759C866.663 151.346 867.15 151.057 867.983 150.427C868.722 149.868 869.574 149.137 870.229 148.098C870.9 147.034 871.316 145.728 871.316 144.088H868.316C868.316 145.186 868.048 145.933 867.692 146.498C867.321 147.086 866.803 147.558 866.173 148.035C865.637 148.441 864.755 149.022 864.17 149.57C863.497 150.2 862.84 151.096 862.84 152.376H865.84ZM871.316 144.088V65.648H868.316V144.088H871.316ZM871.316 65.648C871.316 62.3059 869.317 60.5831 867.727 59.4499C866.866 58.8367 866.3 58.4984 865.837 58.0719C865.441 57.7069 865.396 57.5131 865.396 57.36H862.396C862.396 58.6869 863.091 59.6216 863.805 60.2787C864.452 60.8744 865.366 61.4518 865.986 61.8931C867.355 62.8689 868.316 63.8101 868.316 65.648H871.316ZM865.396 57.36V56.916H862.396V57.36H865.396ZM865.396 56.916C865.396 56.6603 865.547 56.1544 866.821 55.6447L865.707 52.8593C864.021 53.5336 862.396 54.8037 862.396 56.916H865.396ZM866.92 55.601L877.576 50.421L876.264 47.7229L865.608 52.9029L866.92 55.601ZM877.536 50.4399C878.894 49.8286 879.313 50.0514 879.32 50.0559C879.32 50.056 879.373 50.0816 879.436 50.2424C879.505 50.4183 879.564 50.7098 879.564 51.144H882.564C882.564 49.8674 882.233 48.3203 880.884 47.4961C879.56 46.6866 877.906 46.9834 876.305 47.7041L877.536 50.4399ZM879.564 51.1213L879.416 60.8893L882.416 60.9347L882.564 51.1667L879.564 51.1213ZM882.209 61.6725C886.345 54.6421 894.695 49.98 904.596 49.98V46.98C893.777 46.98 884.368 52.0859 879.623 60.1515L882.209 61.6725ZM902.968 119.244C910.247 119.244 916.312 116.137 920.516 110.604C924.691 105.11 926.964 97.3235 926.964 87.996H923.964C923.964 96.8725 921.797 103.96 918.128 108.789C914.488 113.579 909.305 116.244 902.968 116.244V119.244ZM926.964 87.996C926.964 77.564 924.472 68.5491 920.02 62.0953C915.547 55.6099 909.083 51.716 901.34 51.716V54.716C907.954 54.716 913.551 58.0001 917.551 63.7987C921.572 69.6288 923.964 78.0039 923.964 87.996H926.964ZM901.34 51.716C891.386 51.716 882.631 59.6996 881.353 69.449L884.327 69.8391C885.417 61.5324 892.942 54.716 901.34 54.716V51.716ZM881.34 69.644V94.952H884.34V69.644H881.34ZM881.34 94.952C881.34 101.277 883.943 107.32 887.896 111.783C891.843 116.237 897.257 119.244 902.968 119.244V116.244C898.32 116.244 893.67 113.775 890.142 109.793C886.621 105.82 884.34 100.467 884.34 94.952H881.34Z" fill="#ffffff"/>
<path d="M38.8965 40.6987C38.8965 40.6987 52.9941 82.9912 103.902 82.9912C154.81 82.9912 168.908 40.6987 168.908 40.6987" stroke="#ffffff" stroke-width="17.8" stroke-linecap="round" stroke-linejoin="round"/>
<line x1="104.189" y1="91.8912" x2="104.189" y2="125.782" stroke="#ffffff" stroke-width="17.8" stroke-linecap="round"/>
<line x1="8.9" y1="-8.9" x2="47.4902" y2="-8.9" transform="matrix(0.642791 0.766041 -0.766048 0.642784 131.324 76.7256)" stroke="#ffffff" stroke-width="17.8" stroke-linecap="round"/>
<line x1="8.9" y1="-8.9" x2="47.4904" y2="-8.9" transform="matrix(0.766048 0.642784 -0.642791 0.766041 157.078 41.8315)" stroke="#ffffff" stroke-width="17.8" stroke-linecap="round"/>
<line x1="8.9" y1="-8.9" x2="47.4904" y2="-8.9" transform="matrix(-0.766048 0.642784 0.642791 0.766041 51.1973 41.2649)" stroke="#ffffff" stroke-width="17.8" stroke-linecap="round"/>
<line x1="8.9" y1="-8.9" x2="47.4902" y2="-8.9" transform="matrix(0.642791 -0.766041 0.766048 0.642784 45.1641 119.923)" stroke="#ffffff" stroke-width="17.8" stroke-linecap="round"/>
</svg>
